<svg width="131" height="131" viewBox="0 0 131 131" fill="none" xmlns="http://www.w3.org/2000/svg">
<path d="M65.5006 119.197C79.7416 119.197 93.3994 113.539 103.469 103.469C113.539 93.3994 119.197 79.7416 119.197 65.5006C119.197 51.2596 113.539 37.6018 103.469 27.5319C93.3994 17.4619 79.7416 11.8047 65.5006 11.8047C51.2596 11.8047 37.6018 17.4619 27.5319 27.5319C17.4619 37.6018 11.8047 51.2596 11.8047 65.5006C11.8047 79.7416 17.4619 93.3994 27.5319 103.469C37.6018 113.539 51.2596 119.197 65.5006 119.197Z" fill="#8B1E1E"/>
<path d="M65.5 130.5C101.398 130.5 130.5 101.398 130.5 65.5C130.5 29.6023 101.398 0.5 65.5 0.5C29.6023 0.5 0.5 29.6023 0.5 65.5C0.5 101.398 29.6023 130.5 65.5 130.5Z" stroke="#191919" stroke-linecap="round" stroke-linejoin="round" stroke-dasharray="7.51 2.81"/>
<path d="M107.963 58.6744C107.963 75.2317 91.5059 88.6335 71.22 88.6335C66.8583 88.6402 62.5196 88.0031 58.3441 86.7426L37.2368 96.5872L45.5095 80.0831C42.17 77.5829 39.4421 74.3567 37.532 70.648C35.6218 66.9393 34.5793 62.845 34.4832 58.6744C34.4832 42.1172 50.9282 28.7153 71.22 28.7153C91.5118 28.7153 107.963 42.1172 107.963 58.6744Z" fill="white" stroke="#191919" stroke-linecap="round" stroke-linejoin="round"/>
<path d="M56.7893 45.7153H85.0525M56.7893 57.0194H85.0525M56.7893 68.3235H85.0525" stroke="#191919" stroke-linecap="round" stroke-linejoin="round"/>
</svg>
