<svg width="122" height="98" viewBox="0 0 122 98" fill="none" xmlns="http://www.w3.org/2000/svg">
<g clip-path="url(#clip0_207_65)">
<path d="M84.8477 75H104.253C113.217 75.0001 120.5 82.3047 120.5 91.3203C120.5 94.1915 118.192 96.4997 115.348 96.5H73.7529C70.9082 96.5 68.5998 94.1916 68.5996 91.3203C68.5996 82.3047 75.8837 75 84.8477 75ZM9.15039 1.5H64.0498C68.2672 1.5 71.7002 4.93787 71.7002 9.1875V69.5215C64.385 73.9814 59.5001 82.0615 59.5 91.2812C59.5 93.123 59.8447 94.8825 60.4746 96.5H47.25V82.6875C47.25 76.7926 42.4854 72 36.5996 72C30.714 72.0002 25.9502 76.7927 25.9502 82.6875V96.5H9.15039C4.93303 96.5 1.5 93.0621 1.5 88.8125V9.1875C1.5 4.93787 4.93303 1.5 9.15039 1.5ZM94.5498 38.25C98.1944 38.25 101.691 39.7034 104.271 42.293C106.85 44.8828 108.3 48.3972 108.3 52.0625C108.3 55.7278 106.85 59.2422 104.271 61.832C101.691 64.4216 98.1944 65.875 94.5498 65.875C90.9052 65.8749 87.4082 64.4216 84.8291 61.832C82.2498 59.2422 80.7998 55.7278 80.7998 52.0625C80.7998 48.3972 82.2498 44.8828 84.8291 42.293C87.4082 39.7034 90.9052 38.2501 94.5498 38.25ZM15.25 41.375C12.7383 41.375 10.7002 43.4305 10.7002 45.9375V52.0625C10.7002 54.5695 12.7383 56.625 15.25 56.625H21.3496C23.8613 56.625 25.9004 54.5695 25.9004 52.0625V45.9375C25.9004 43.4305 23.8613 41.375 21.3496 41.375H15.25ZM33.5498 41.375C31.0382 41.3751 29 43.4306 29 45.9375V52.0625C29 54.5694 31.0382 56.6249 33.5498 56.625H39.6504C42.1619 56.6248 44.2002 54.5694 44.2002 52.0625V45.9375C44.2002 43.4306 42.1619 41.3752 39.6504 41.375H33.5498ZM51.8496 41.375C49.3381 41.3752 47.2998 43.4306 47.2998 45.9375V52.0625C47.2998 54.5694 49.3381 56.6248 51.8496 56.625H57.9502C60.4618 56.6249 62.5 54.5694 62.5 52.0625V45.9375C62.5 43.4306 60.4618 41.3751 57.9502 41.375H51.8496ZM15.25 16.875C12.7383 16.875 10.7002 18.9305 10.7002 21.4375V27.5625C10.7002 30.0695 12.7383 32.125 15.25 32.125H21.3496C23.8613 32.125 25.9004 30.0695 25.9004 27.5625V21.4375C25.9004 18.9305 23.8613 16.875 21.3496 16.875H15.25ZM33.5498 16.875C31.0382 16.8751 29 18.9306 29 21.4375V27.5625C29 30.0694 31.0382 32.1249 33.5498 32.125H39.6504C42.1619 32.1248 44.2002 30.0694 44.2002 27.5625V21.4375C44.2002 18.9306 42.1619 16.8752 39.6504 16.875H33.5498ZM51.8496 16.875C49.3381 16.8752 47.2998 18.9306 47.2998 21.4375V27.5625C47.2998 30.0694 49.3381 32.1248 51.8496 32.125H57.9502C60.4618 32.1249 62.5 30.0694 62.5 27.5625V21.4375C62.5 18.9306 60.4618 16.8751 57.9502 16.875H51.8496Z" stroke="#8B1E1E" stroke-width="3"/>
</g>
<defs>
<clipPath id="clip0_207_65">
<rect width="122" height="98" fill="white"/>
</clipPath>
</defs>
</svg>
