<svg width="112" height="112" viewBox="0 0 112 112" fill="none" xmlns="http://www.w3.org/2000/svg">
<path d="M99.1552 0.00497358H98.9562C98.409 0.0422746 98.1106 0.166612 97.8121 0.474967L90.9472 7.33338L104.677 21.0601L111.517 14.1893C111.84 13.8834 111.965 13.6024 111.99 13.0529C112.039 12.5033 111.915 11.7026 111.542 10.775C110.845 8.91991 109.254 6.62963 107.313 4.69495C105.373 2.76027 103.085 1.16876 101.22 0.455072C100.424 0.141744 99.7024 0.00497347 99.1552 0V0.00497358ZM19.4132 0.084549L0.0746181 19.4189L2.53951 21.8808L9.39444 15.0298L12.5632 18.2004L5.71576 25.0638L10.9788 30.3108L17.8213 23.4723L21.005 26.6553L14.1526 33.4938L19.4132 38.7408L31.8993 26.2823L35.083 29.4653L22.5969 41.9238L27.8699 47.1957L34.7099 40.3323L37.8936 43.5154L31.0536 50.3787L36.3018 55.6257L43.1418 48.7872L46.3255 51.9702L39.4855 58.8088L44.7336 64.0806L57.2198 51.5972L60.4035 54.7803L47.9173 67.2637L53.1904 72.5107L60.0304 65.6721L63.2141 68.8552L56.3741 75.6937L61.6222 80.9656L68.4871 74.1022L71.6708 77.2852L64.8059 84.1486L70.0541 89.3956L82.5402 76.9122L85.7239 80.0952L73.2378 92.5786L78.5108 97.8256L85.3508 90.9871L88.5345 94.1701L81.6945 101.009L86.9427 106.281L93.8076 99.4171L96.9913 102.6L90.1264 109.464L92.5888 111.925L111.94 92.5786L19.4132 0.084549ZM87.7884 10.5015L85.326 12.9658L87.7884 15.4277L90.9472 18.5983L93.4096 21.0601L96.5684 24.2183L99.0308 26.6802L101.493 24.2183L87.7884 10.5015ZM82.1671 16.129L61.9705 36.3038L64.4329 38.7657L84.6295 18.5983L82.1671 16.129ZM87.7884 21.7564L67.6166 41.9487L70.079 44.3857L90.2508 24.2183L87.7884 21.7564ZM93.4096 27.3764L73.2378 47.5687L75.7002 50.0306L95.872 29.8383L93.4096 27.3764ZM36.3018 61.9669L10.4043 87.8787L12.8667 90.3405L38.7642 64.4288L36.3018 61.9669ZM41.923 67.6118L16.033 93.4987L18.4929 95.9606L44.3854 70.0737L41.923 67.6118ZM47.5691 73.2318L21.6517 99.1187L24.1141 101.581L50.0315 75.6937L47.5691 73.2318ZM8.05628 91.8575L5.04171 99.3923L12.603 106.952L20.1345 103.943L18.4929 102.302L15.3291 99.1187L12.8667 96.6569L9.70037 93.4987L8.05628 91.8575ZM3.23346 103.918L0 112L8.07867 108.767L3.23346 103.918Z" fill="#8B1E1E"/>
</svg>
