<svg width="111" height="116" viewBox="0 0 111 116" fill="none" xmlns="http://www.w3.org/2000/svg">
<path d="M109 45.2726L99.2725 35.5454L84.6816 50.1362V11.2272H62.7953L67.6589 1.5H19.0227L23.8863 11.2272H2V113.363H84.6816V69.5907L109 45.2726Z" fill="#EEE7DD"/>
<path d="M60.8498 84.1831H70.0906L109 45.2741L104.622 40.8968L60.8498 84.1831ZM22.4271 8.79688L25.8317 16.0923H59.877L63.7679 8.79688H22.4271ZM60.3634 18.5241H26.318V23.3877H60.3634V18.5241Z" fill="black"/>
<path d="M62.7953 11.2266H84.6816V30.6811M84.6816 84.1809V113.363H2V11.2266H23.8863M16.5909 84.1809H45.7726M16.5909 64.7264H45.7726M16.5909 45.2719H65.2271" stroke="#8B1E1E" stroke-width="4" stroke-miterlimit="10" stroke-linecap="round" stroke-linejoin="round"/>
<path d="M60.3638 74.4544V84.1816H70.091L109 45.2726L99.2728 35.5454L60.3638 74.4544ZM67.6592 1.5L59.8774 16.0909H25.832L19.0229 1.5H67.6592Z" stroke="#8B1E1E" stroke-width="3" stroke-miterlimit="10" stroke-linecap="round" stroke-linejoin="round"/>
</svg>
