<svg width="59" height="59" viewBox="0 0 59 59" fill="none" xmlns="http://www.w3.org/2000/svg">
<g clip-path="url(#clip0_207_83)">
<path fill-rule="evenodd" clip-rule="evenodd" d="M3.24486 9.58264C2.66224 16.5692 2.84415 23.5951 3.79061 30.5424C3.80743 30.8012 3.92341 31.0437 4.11442 31.2192C4.30542 31.3947 4.55674 31.4898 4.81609 31.4847C5.07544 31.4797 5.32286 31.3748 5.50686 31.192C5.69086 31.0091 5.79728 30.7624 5.80399 30.5031C6.44768 23.5109 6.23303 16.4661 5.16482 9.5261C5.16111 9.40019 5.13263 9.27625 5.08102 9.16135C5.02941 9.04645 4.95567 8.94284 4.86402 8.85644C4.77236 8.77004 4.66459 8.70253 4.54685 8.65778C4.42911 8.61303 4.3037 8.59191 4.1778 8.59562C4.05189 8.59933 3.92795 8.62781 3.81305 8.67942C3.69815 8.73103 3.59454 8.80477 3.50814 8.89642C3.42174 8.98807 3.35423 9.09585 3.30948 9.21359C3.26473 9.33133 3.24115 9.45673 3.24486 9.58264ZM17.0287 1.26118C14.4672 29.8688 18.9512 23.8336 18.8946 22.9683C19.4641 15.7484 19.4789 8.49556 18.9389 1.27347C18.9405 1.02017 18.8414 0.776603 18.6635 0.596342C18.5754 0.507085 18.4705 0.436058 18.355 0.387316C18.2394 0.338574 18.1154 0.313072 17.9899 0.312265C17.7366 0.310635 17.4931 0.409694 17.3128 0.58765C17.1326 0.765607 17.0304 1.00788 17.0287 1.26118ZM32.0467 6.42368C31.2454 11.6089 31.3236 16.8921 32.2778 22.0513C32.296 22.3118 32.4146 22.555 32.6085 22.7298C32.8025 22.9045 33.0567 22.9972 33.3177 22.9883C33.5786 22.9794 33.8259 22.8695 34.0075 22.6819C34.1891 22.4943 34.2908 22.2436 34.2912 21.9825C34.9081 16.802 34.7956 11.5606 33.9568 6.41139C33.9552 6.15809 33.853 5.91581 33.6727 5.73786C33.4925 5.5599 33.2489 5.46084 32.9956 5.46247C32.7423 5.4641 32.5 5.56629 32.3221 5.74655C32.1441 5.92681 32.0451 6.17038 32.0467 6.42368ZM45.8478 8.50589C45.8515 8.63809 45.8812 8.76826 45.9352 8.88898C45.9892 9.0097 46.0665 9.11859 46.1626 9.20944C46.2587 9.3003 46.3718 9.37133 46.4953 9.4185C46.6189 9.46566 46.7505 9.48802 46.8827 9.48431C47.0149 9.48059 47.1451 9.45088 47.2658 9.39686C47.3865 9.34284 47.4954 9.26557 47.5863 9.16946C47.6771 9.07336 47.7482 8.9603 47.7953 8.83674C47.8425 8.71318 47.8649 8.58155 47.8612 8.44935C49.9237 -1.96907 42.9445 -3.13186 45.8478 8.50589ZM4.44453 42.9914C3.69182 47.9005 3.74829 52.8997 4.61169 57.7906C4.6295 58.0451 4.74317 58.2834 4.92977 58.4574C5.11637 58.6314 5.36201 58.7281 5.61715 58.7281C5.87229 58.7281 6.11793 58.6314 6.30453 58.4574C6.49113 58.2834 6.6048 58.0451 6.62261 57.7906C7.35274 52.8739 7.26178 47.8712 6.35465 42.984C6.3607 42.8545 6.34036 42.7251 6.29485 42.6037C6.24934 42.4823 6.17962 42.3714 6.08993 42.2778C6.00024 42.1842 5.89244 42.1098 5.7731 42.0591C5.65376 42.0085 5.52536 41.9826 5.39571 41.9831C5.26606 41.9836 5.13787 42.0104 5.01892 42.062C4.89997 42.1136 4.79275 42.1889 4.70379 42.2832C4.61482 42.3775 4.54596 42.4889 4.50139 42.6106C4.45682 42.7324 4.43747 42.8619 4.44453 42.9914ZM17.7908 33.8415C17.218 39.8005 17.4467 45.8136 18.4718 51.7111C18.4963 51.9667 18.6175 52.2034 18.8106 52.3727C19.0037 52.542 19.2541 52.6312 19.5108 52.6221C19.7675 52.613 20.011 52.5063 20.1916 52.3237C20.3722 52.1412 20.4763 51.8965 20.4827 51.6398C21.0518 45.6742 20.7887 39.6584 19.7009 33.7653C19.7002 33.637 19.6737 33.5103 19.623 33.3925C19.5723 33.2747 19.4984 33.1683 19.4057 33.0797C19.3131 32.9911 19.2035 32.922 19.0836 32.8765C18.9637 32.8311 18.8359 32.8102 18.7078 32.8151C18.5796 32.8201 18.4538 32.8507 18.3378 32.9053C18.2217 32.9599 18.1178 33.0372 18.0323 33.1327C17.9467 33.2283 17.8813 33.34 17.8398 33.4613C17.7983 33.5827 17.7817 33.7136 17.7908 33.8415ZM32.5236 34.5888C31.6752 40.8531 31.783 47.2099 32.8432 53.4418C32.8621 53.7084 32.9862 53.9567 33.1881 54.1318C33.2881 54.2186 33.4042 54.2848 33.5297 54.3267C33.6553 54.3686 33.7879 54.3853 33.9199 54.3759C34.052 54.3666 34.1809 54.3313 34.2993 54.2721C34.4177 54.2129 34.5233 54.131 34.61 54.031C34.6968 53.931 34.763 53.815 34.8049 53.6894C34.8467 53.5638 34.8635 53.4312 34.8541 53.2992C35.3171 47.0494 35.1755 40.7696 34.4313 34.547C34.4145 34.3014 34.3036 34.0718 34.1218 33.9059C33.94 33.7399 33.7012 33.6505 33.4551 33.6562C33.209 33.6619 32.9746 33.7623 32.8006 33.9365C32.6266 34.1106 32.5266 34.3452 32.5212 34.5913M46.6344 24.2294C45.9202 35.3639 46.0048 46.5354 46.8877 57.6578C46.9055 57.9123 47.0191 58.1506 47.2057 58.3246C47.3923 58.4986 47.638 58.5954 47.8931 58.5954C48.1483 58.5954 48.3939 58.4986 48.5805 58.3246C48.7671 58.1506 48.8808 57.9123 48.8986 57.6578C49.6434 46.5216 49.5279 35.3435 48.5544 24.2245C48.5364 23.9821 48.4273 23.7555 48.249 23.5904C48.0707 23.4252 47.8364 23.3338 47.5934 23.3344C47.3503 23.335 47.1165 23.4277 46.9391 23.5937C46.7616 23.7598 46.6536 23.9869 46.6369 24.2294" fill="#8B1E1E"/>
<path fill-rule="evenodd" clip-rule="evenodd" d="M49.6902 17.5945C48.384 17.4414 47.073 17.334 45.7593 17.2724C45.6288 17.2813 45.4978 17.2636 45.3742 17.2204C45.2507 17.1773 45.1372 17.1095 45.0406 17.0213C44.9439 16.933 44.8662 16.8261 44.812 16.707C44.7579 16.5879 44.7284 16.459 44.7254 16.3282C44.7224 16.1974 44.746 16.0673 44.7946 15.9459C44.8433 15.8244 44.9161 15.714 45.0085 15.6215C45.101 15.5289 45.2113 15.456 45.3328 15.4073C45.4542 15.3585 45.5842 15.3348 45.7151 15.3377C49.568 14.9002 53.448 14.7482 57.3233 14.8829C59.5678 14.8731 59.113 18.4205 58.4935 23.2609C58.2896 24.79 58.1134 26.3226 57.9649 27.858C57.9746 27.996 57.9558 28.1344 57.9096 28.2648C57.8634 28.3951 57.791 28.5146 57.6966 28.6158C57.6023 28.7169 57.4882 28.7975 57.3614 28.8527C57.2346 28.9078 57.0978 28.9363 56.9595 28.9363C56.8212 28.9363 56.6844 28.9078 56.5576 28.8527C56.4307 28.7975 56.3166 28.7169 56.2223 28.6158C56.128 28.5146 56.0555 28.3951 56.0094 28.2648C55.9632 28.1344 55.9444 27.996 55.954 27.858C55.718 24.2811 55.7475 23.0053 55.7819 21.4664C55.7942 20.9845 55.8065 20.4781 55.809 19.866C55.1084 20.4068 54.1766 21.0976 52.9499 22.0096C50.735 23.6567 47.5613 26.0167 43.0625 29.4707C36.2505 34.6996 34.1732 37.357 32.5728 37.094C31.2084 36.8727 30.1932 34.5226 26.8842 29.837C18.1522 35.9508 14.2828 38.4756 10.5462 40.9118C7.98457 42.5834 5.48199 44.2158 1.51669 46.9371C1.31074 47.0634 1.06471 47.1072 0.827817 47.0599C0.590924 47.0126 0.380628 46.8776 0.238984 46.6819C0.0973411 46.4862 0.0347924 46.2443 0.0638472 46.0044C0.0929019 45.7646 0.211418 45.5446 0.395694 45.3884C5.8302 41.1865 11.3461 37.091 16.9403 33.1041C23.7351 28.2391 25.9525 25.8938 27.5947 26.2453C29.0132 26.5477 30.0039 28.8709 33.1505 33.3278C40.7812 27.2901 46.1846 23.7084 54.4274 18.241L54.8084 17.9878C52.6451 17.9091 51.1283 17.7469 49.6902 17.5945Z" fill="#020202"/>
</g>
<defs>
<clipPath id="clip0_207_83">
<rect width="59" height="59" fill="white"/>
</clipPath>
</defs>
</svg>
