<svg width="70" height="70" viewBox="0 0 70 70" fill="none" xmlns="http://www.w3.org/2000/svg">
<path d="M8.75 26.25V61.25H61.25V13.125H52.5V15.3125C52.5 15.8927 52.2695 16.4491 51.8593 16.8593C51.4491 17.2695 50.8927 17.5 50.3125 17.5C49.7323 17.5 49.1759 17.2695 48.7657 16.8593C48.3555 16.4491 48.125 15.8927 48.125 15.3125V13.125H21.875V15.3125C21.875 15.8927 21.6445 16.4491 21.2343 16.8593C20.8241 17.2695 20.2677 17.5 19.6875 17.5C19.1073 17.5 18.5509 17.2695 18.1407 16.8593C17.7305 16.4491 17.5 15.8927 17.5 15.3125V13.125H8.75V21.875H61.25V26.25H8.75ZM21.875 8.75H48.125V6.5625C48.125 5.98234 48.3555 5.42594 48.7657 5.0157C49.1759 4.60547 49.7323 4.375 50.3125 4.375C50.8927 4.375 51.4491 4.60547 51.8593 5.0157C52.2695 5.42594 52.5 5.98234 52.5 6.5625V8.75H63.4375C64.0177 8.75 64.5741 8.98047 64.9843 9.3907C65.3945 9.80094 65.625 10.3573 65.625 10.9375V63.4375C65.625 64.0177 65.3945 64.5741 64.9843 64.9843C64.5741 65.3945 64.0177 65.625 63.4375 65.625H6.5625C5.98234 65.625 5.42594 65.3945 5.0157 64.9843C4.60547 64.5741 4.375 64.0177 4.375 63.4375V10.9375C4.375 10.3573 4.60547 9.80094 5.0157 9.3907C5.42594 8.98047 5.98234 8.75 6.5625 8.75H17.5V6.5625C17.5 5.98234 17.7305 5.42594 18.1407 5.0157C18.5509 4.60547 19.1073 4.375 19.6875 4.375C20.2677 4.375 20.8241 4.60547 21.2343 5.0157C21.6445 5.42594 21.875 5.98234 21.875 6.5625V8.75ZM19.6875 35H24.0625C24.6427 35 25.1991 35.2305 25.6093 35.6407C26.0195 36.0509 26.25 36.6073 26.25 37.1875C26.25 37.7677 26.0195 38.3241 25.6093 38.7343C25.1991 39.1445 24.6427 39.375 24.0625 39.375H19.6875C19.1073 39.375 18.5509 39.1445 18.1407 38.7343C17.7305 38.3241 17.5 37.7677 17.5 37.1875C17.5 36.6073 17.7305 36.0509 18.1407 35.6407C18.5509 35.2305 19.1073 35 19.6875 35ZM19.6875 48.125H24.0625C24.6427 48.125 25.1991 48.3555 25.6093 48.7657C26.0195 49.1759 26.25 49.7323 26.25 50.3125C26.25 50.8927 26.0195 51.4491 25.6093 51.8593C25.1991 52.2695 24.6427 52.5 24.0625 52.5H19.6875C19.1073 52.5 18.5509 52.2695 18.1407 51.8593C17.7305 51.4491 17.5 50.8927 17.5 50.3125C17.5 49.7323 17.7305 49.1759 18.1407 48.7657C18.5509 48.3555 19.1073 48.125 19.6875 48.125ZM32.8125 35H37.1875C37.7677 35 38.3241 35.2305 38.7343 35.6407C39.1445 36.0509 39.375 36.6073 39.375 37.1875C39.375 37.7677 39.1445 38.3241 38.7343 38.7343C38.3241 39.1445 37.7677 39.375 37.1875 39.375H32.8125C32.2323 39.375 31.6759 39.1445 31.2657 38.7343C30.8555 38.3241 30.625 37.7677 30.625 37.1875C30.625 36.6073 30.8555 36.0509 31.2657 35.6407C31.6759 35.2305 32.2323 35 32.8125 35ZM32.8125 48.125H37.1875C37.7677 48.125 38.3241 48.3555 38.7343 48.7657C39.1445 49.1759 39.375 49.7323 39.375 50.3125C39.375 50.8927 39.1445 51.4491 38.7343 51.8593C38.3241 52.2695 37.7677 52.5 37.1875 52.5H32.8125C32.2323 52.5 31.6759 52.2695 31.2657 51.8593C30.8555 51.4491 30.625 50.8927 30.625 50.3125C30.625 49.7323 30.8555 49.1759 31.2657 48.7657C31.6759 48.3555 32.2323 48.125 32.8125 48.125ZM45.9375 35H50.3125C50.8927 35 51.4491 35.2305 51.8593 35.6407C52.2695 36.0509 52.5 36.6073 52.5 37.1875C52.5 37.7677 52.2695 38.3241 51.8593 38.7343C51.4491 39.1445 50.8927 39.375 50.3125 39.375H45.9375C45.3573 39.375 44.8009 39.1445 44.3907 38.7343C43.9805 38.3241 43.75 37.7677 43.75 37.1875C43.75 36.6073 43.9805 36.0509 44.3907 35.6407C44.8009 35.2305 45.3573 35 45.9375 35ZM45.9375 48.125H50.3125C50.8927 48.125 51.4491 48.3555 51.8593 48.7657C52.2695 49.1759 52.5 49.7323 52.5 50.3125C52.5 50.8927 52.2695 51.4491 51.8593 51.8593C51.4491 52.2695 50.8927 52.5 50.3125 52.5H45.9375C45.3573 52.5 44.8009 52.2695 44.3907 51.8593C43.9805 51.4491 43.75 50.8927 43.75 50.3125C43.75 49.7323 43.9805 49.1759 44.3907 48.7657C44.8009 48.3555 45.3573 48.125 45.9375 48.125Z" fill="#8B1E1E"/>
</svg>
