<svg width="82" height="57" viewBox="0 0 82 57" fill="none" xmlns="http://www.w3.org/2000/svg">
<path d="M81.4528 19.1875L73.2785 2.83232C72.9773 2.23035 72.5605 1.69359 72.0519 1.25269C71.5434 0.811803 70.9529 0.475416 70.3143 0.262743C69.6757 0.0500701 69.0014 -0.0347226 68.33 0.0132074C67.6586 0.0611374 67.0033 0.240852 66.4013 0.542086L58.4352 4.52357L41.654 0.0840395C41.2234 -0.0280132 40.7713 -0.0280132 40.3407 0.0840395L23.5595 4.52357L15.5934 0.542086C14.9914 0.240852 14.3361 0.0611374 13.6647 0.0132074C12.9933 -0.0347226 12.3191 0.0500701 11.6804 0.262743C11.0418 0.475416 10.4514 0.811803 9.94276 1.25269C9.43417 1.69359 9.0174 2.23035 8.71626 2.83232L0.541889 19.1843C0.240654 19.7862 0.0609404 20.4416 0.0130104 21.113C-0.0349197 21.7843 0.0498729 22.4586 0.262546 23.0972C0.475218 23.7358 0.811606 24.3263 1.2525 24.8349C1.69339 25.3435 2.23015 25.7602 2.83212 26.0614L11.4806 30.3888L29.2547 43.0828C29.5168 43.2689 29.8111 43.4046 30.1227 43.4832L50.6227 48.6082C51.0521 48.7158 51.5019 48.7105 51.9286 48.5926C52.3552 48.4747 52.744 48.2483 53.0571 47.9355L70.6967 30.2927L79.1594 26.0614C80.3743 25.4532 81.298 24.3875 81.7275 23.0985C82.1569 21.8096 82.057 20.4028 81.4496 19.1875H81.4528ZM63.8709 29.8763L52.8489 21.0485C52.3551 20.6531 51.7326 20.4542 51.101 20.4903C50.4694 20.5264 49.8735 20.7948 49.428 21.2439C43.7232 26.9903 37.365 26.2632 33.3099 23.7007L47.1602 10.2476H57.3493L66.065 27.6758L63.8709 29.8763ZM13.2999 5.12255L19.8567 8.39615L11.6663 24.7481L5.12236 21.4777L13.2999 5.12255ZM50.4562 43.2814L31.8428 38.6304L16.0835 27.3747L25.0522 9.43716L40.9974 5.21224L44.1364 6.04185L29.7224 20.0331L29.6967 20.0619C29.1541 20.6045 28.7403 21.262 28.4858 21.9859C28.2313 22.7098 28.1425 23.4816 28.2262 24.2444C28.3098 25.0072 28.5636 25.7414 28.9689 26.393C29.3743 27.0445 29.9207 27.5967 30.568 28.0089C37.1536 32.2146 45.1006 31.5323 51.3595 26.4073L60.2161 33.5215L50.4562 43.2814ZM70.3156 24.7449L62.1412 8.40896L68.6948 5.12255L76.8724 21.4777L70.3156 24.7449ZM42.2081 54.4283C42.0697 54.9821 41.7503 55.4738 41.3006 55.8255C40.8509 56.1771 40.2966 56.3686 39.7257 56.3694C39.5151 56.3695 39.3054 56.3437 39.1011 56.2925L25.7537 52.9548C25.4415 52.8777 25.1469 52.7418 24.8856 52.5544L16.4454 46.5261C15.9264 46.1187 15.5846 45.5267 15.4912 44.8736C15.3978 44.2204 15.5599 43.5564 15.9438 43.0197C16.3277 42.4831 16.9038 42.1152 17.5521 41.9927C18.2005 41.8702 18.8711 42.0025 19.4243 42.3621L27.4674 48.1085L40.3567 51.3244C41.0159 51.4893 41.5826 51.9093 41.9322 52.4919C42.2818 53.0746 42.3857 53.7722 42.221 54.4315L42.2081 54.4283Z" fill="#8B1E1E"/>
</svg>
