<svg width="152" height="152" viewBox="0 0 152 152" fill="none" xmlns="http://www.w3.org/2000/svg">
<path d="M131.14 20.8574C109.661 -0.61977 74.8339 -0.61977 53.3544 20.8574C33.4044 40.8121 32.015 72.2642 49.1293 93.853L44.6334 98.3489L40.8999 94.6154L10.393 125.12C8.60226 123.982 7.22238 123.495 6.65951 124.063L4.98988 125.728C2.27526 128.442 23.5576 149.73 26.2723 147.013L27.9419 145.345C28.5071 144.783 28.0155 143.4 26.8826 141.605L57.3871 111.103L53.6513 107.369L58.1495 102.876C79.7406 119.992 111.186 118.6 131.143 98.6481C152.618 77.1662 152.622 42.3416 131.14 20.8574ZM124.659 92.1644C106.756 110.062 77.7361 110.067 59.8381 92.1644C41.9378 74.2687 41.9378 45.2391 59.8381 27.3435C77.7314 9.44311 106.761 9.44311 124.659 27.3435C142.557 45.2439 142.552 74.264 124.659 92.1644Z" stroke="#8B1E1E" stroke-width="3"/>
<path d="M131.14 20.8574C109.661 -0.61977 74.8339 -0.61977 53.3544 20.8574C33.4044 40.8121 32.015 72.2642 49.1293 93.853L44.6334 98.3489L40.8999 94.6154L10.393 125.12C8.60226 123.982 7.22238 123.495 6.65951 124.063L4.98988 125.728C2.27526 128.442 23.5576 149.73 26.2723 147.013L27.9419 145.345C28.5071 144.783 28.0155 143.4 26.8826 141.605L57.3871 111.103L53.6513 107.369L58.1495 102.876C79.7406 119.992 111.186 118.6 131.143 98.6481C152.618 77.1662 152.622 42.3416 131.14 20.8574ZM124.659 92.1644C106.756 110.062 77.7361 110.067 59.8381 92.1644C41.9378 74.2687 41.9378 45.2391 59.8381 27.3435C77.7314 9.44311 106.761 9.44311 124.659 27.3435C142.557 45.2439 142.552 74.264 124.659 92.1644Z" stroke="black" stroke-opacity="0.2" stroke-width="3"/>
<path d="M131.378 56.7671C129.404 62.0076 126.336 66.7675 122.379 70.7298C106.911 86.2005 81.8234 86.2005 66.3479 70.7226C59.8057 64.2029 55.7601 55.5932 54.917 46.3955C49.559 60.5244 52.542 77.0948 63.9183 88.471C79.3914 103.944 104.479 103.944 119.952 88.471C128.63 79.7999 132.432 68.1006 131.378 56.7671Z" stroke="#8B1E1E" stroke-width="3"/>
<path d="M131.378 56.7671C129.404 62.0076 126.336 66.7675 122.379 70.7298C106.911 86.2005 81.8234 86.2005 66.3479 70.7226C59.8057 64.2029 55.7601 55.5932 54.917 46.3955C49.559 60.5244 52.542 77.0948 63.9183 88.471C79.3914 103.944 104.479 103.944 119.952 88.471C128.63 79.7999 132.432 68.1006 131.378 56.7671Z" stroke="black" stroke-opacity="0.2" stroke-width="3"/>
</svg>
