<svg width="74" height="73" viewBox="0 0 74 73" fill="none" xmlns="http://www.w3.org/2000/svg">
<path fill-rule="evenodd" clip-rule="evenodd" d="M49.104 31.1654C48.9829 29.1587 48.4271 27.2024 47.4753 25.4317C46.5234 23.6611 45.1981 22.1184 43.5911 20.9105C43.4944 20.8153 43.3778 20.7426 43.2497 20.6975C43.1217 20.6524 42.9853 20.6361 42.8502 20.6496C42.7151 20.6632 42.5847 20.7063 42.4681 20.7759C42.3516 20.8456 42.2518 20.94 42.1758 21.0526C42.0999 21.1651 42.0497 21.293 42.0287 21.4271C42.0077 21.5612 42.0165 21.6983 42.0545 21.8287C42.0925 21.959 42.1587 22.0794 42.2484 22.1813C42.3381 22.2832 42.4492 22.3641 42.5737 22.4182C43.9106 23.5085 44.9923 24.8785 45.7429 26.4318C46.4934 27.9851 46.8945 29.684 46.918 31.4089C47.1073 33.08 46.9297 34.7723 46.3977 36.3677C45.8658 37.9631 44.9921 39.4233 43.8378 40.6463C41.1701 42.4445 38.0332 43.4201 34.8162 43.4521C31.512 43.461 28.2858 42.4487 25.5788 40.5538C23.7601 39.3542 22.392 37.5838 21.6898 35.5213C20.9876 33.4589 20.9912 31.2214 21.7001 29.1613C22.2339 27.2676 23.1558 25.5057 24.4072 23.9876C26.8298 21.8504 29.4846 19.9919 32.3219 18.447C33.8702 17.9563 35.5118 17.8343 37.1156 18.0907C38.7195 18.3471 40.2412 18.9749 41.5593 19.9239C41.7315 20.045 41.9445 20.0935 42.1522 20.0589C42.3599 20.0242 42.5456 19.9093 42.6693 19.7389C42.7349 19.657 42.7831 19.5626 42.811 19.4615C42.8389 19.3603 42.8458 19.2546 42.8314 19.1507C42.8169 19.0468 42.7814 18.9469 42.727 18.8572C42.6727 18.7674 42.6005 18.6898 42.5151 18.6289C35.9262 13.4891 27.3949 16.5662 22.4679 22.449C17.5408 28.3288 16.3106 37.1993 23.8245 43.0174C27.0424 45.2479 30.8701 46.4312 34.7854 46.4058C38.7731 46.5438 42.659 45.1303 45.6261 42.4624C47.0005 40.9501 48.0247 39.1535 48.6258 37.2004C49.227 35.2473 49.3902 33.1887 49.104 31.1654Z" fill="#020202"/>
<path fill-rule="evenodd" clip-rule="evenodd" d="M31.9213 25.6838C32.1392 26.5183 32.427 27.3292 32.7846 28.1165L31.6438 27.8698C30.5612 27.6233 29.4596 27.4686 28.3509 27.4073H24.2533C22.4989 27.4073 22.6531 29.3467 24.0991 29.47C25.5452 29.5933 25.4866 29.47 27.1824 29.8092C28.4404 29.9633 29.6798 30.2624 30.8761 30.7033C31.6562 30.7526 32.4177 30.9808 33.093 31.3816C33.4013 31.7968 33.6479 32.248 33.8329 32.7352C34.2646 33.7835 34.6007 34.952 34.9398 35.8122C35.279 36.6755 35.8648 38.0938 36.389 39.2007L37.4342 41.2942C37.9892 42.1576 40.5112 41.8801 39.466 40.6159C38.4177 39.3518 39.0652 39.6293 38.6027 38.2758C38.1402 36.9191 37.8936 36.0897 37.5852 34.952C37.2769 33.8143 37.0642 32.7321 36.6634 31.5944C36.344 30.7033 35.8632 29.8786 35.2451 29.1617C35.2451 27.9592 35.2451 26.7598 35.0292 25.5296C34.7467 23.8162 34.2072 22.1551 33.429 20.6026C32.5041 19.4926 31.243 20.1093 31.2739 21.0959C31.3047 22.0826 31.7055 24.8513 31.9213 25.6838Z" fill="#8B1E1E"/>
<path fill-rule="evenodd" clip-rule="evenodd" d="M18.6822 50.5925C18.0517 50.4651 17.4129 50.3827 16.7706 50.3459H12.3092C12.0974 50.3188 11.8834 50.3741 11.7112 50.5003C11.5391 50.6265 11.422 50.8141 11.3842 51.0242C11.3483 51.2326 11.3962 51.4467 11.5175 51.62C11.6387 51.7932 11.8236 51.9115 12.0317 51.9491C13.635 52.4425 15.1149 53.0283 16.9279 53.3952C17.8837 53.611 18.9011 53.7343 19.857 53.8885C21.3061 54.0694 22.7316 54.3674 24.1334 54.7826C24.3584 54.8751 24.6108 54.8751 24.8359 54.7828C25.061 54.6905 25.2406 54.5132 25.3359 54.2893C25.3863 54.1826 25.4144 54.0667 25.4183 53.9487C25.4221 53.8307 25.4018 53.7131 25.3584 53.6033C25.3151 53.4935 25.2497 53.3938 25.1662 53.3102C25.0828 53.2267 24.9831 53.1612 24.8734 53.1177C23.5266 52.3153 22.0902 51.6737 20.5938 51.2061C19.9751 50.9512 19.3379 50.7467 18.6822 50.5925ZM32.3225 53.5802H37.0954L39.8672 53.8268C41.2855 53.8268 42.6699 54.166 44.0851 54.1968C44.3009 54.1864 44.515 54.2393 44.7012 54.3488C44.8874 54.4583 45.0376 54.6198 45.1334 54.8135C45.1334 55.1835 44.8867 55.4887 44.3934 55.5195C42.9731 55.723 41.5465 55.8464 40.1139 55.8895H38.2639C37.6334 55.8657 37.0057 55.7936 36.3862 55.6737C34.9638 55.4558 33.5579 55.1578 32.1683 54.7796C31.7059 54.7796 31.4284 54.4096 31.4592 54.1012C31.49 53.7929 31.8909 53.5185 32.3225 53.5802ZM50.2423 19.461C49.6078 19.3865 48.98 19.2628 48.3646 19.091C48.6113 18.4744 48.9813 17.7652 49.3204 16.9975C51.0779 13.088 52.1848 8.87007 49.3204 5.72825C49.2556 5.64929 49.1759 5.58387 49.0859 5.53572C48.9958 5.48756 48.8971 5.45762 48.7955 5.4476C48.5902 5.42736 48.3853 5.4895 48.2259 5.62034C48.0664 5.75117 47.9655 5.93999 47.9452 6.14526C47.925 6.35053 47.9871 6.55543 48.118 6.71489C51.1981 10.8094 46.2403 15.3665 45.2567 19.0294C44.2732 22.6923 53.7233 22.7262 57.1087 21.6501L62.1899 20.2318C63.4848 19.646 62.714 18.1352 61.9432 18.2894C55.6627 19.831 55.4777 20.2318 50.2423 19.461Z" fill="#020202"/>
<path fill-rule="evenodd" clip-rule="evenodd" d="M52.7055 3.60123C48.7959 2.80267 50.5811 3.26515 24.3767 0C24.1613 0.00395027 23.9545 0.0855434 23.7945 0.229772C23.6344 0.374001 23.5318 0.571165 23.5056 0.785002C23.4793 0.998839 23.5312 1.21497 23.6515 1.39364C23.7719 1.5723 23.9528 1.70149 24.1608 1.75745C48.5493 5.01952 49.3201 5.05035 52.3972 5.72867C55.4804 6.40698 62.0354 14.7502 63.6078 17.8304C63.9644 18.3791 64.1372 19.027 64.1012 19.6803C63.2687 24.0493 59.8494 36.7368 58.835 39.6289C57.8175 42.5272 56.8925 44.6207 56.0632 47.1767C55.724 48.1633 52.983 60.1695 49.4743 61.3411C44.6397 62.9722 39.7127 60.8786 34.8782 60.6936C31.798 60.6936 25.6408 60.262 21.6973 59.6453C6.30269 57.151 6.981 57.4902 3.03754 54.965C7.47124 50.2538 11.5689 38.4604 13.7857 31.7173C15.7228 24.101 17.2237 16.3803 18.2811 8.593C18.5278 7.23637 20.7138 0.246659 18.5278 0.955805C17.6028 1.2333 17.7261 2.62076 17.6336 3.20349C17.017 7.05138 14.3407 21.9866 13.7857 24.4501C11.4258 33.6724 7.84206 42.5373 3.13003 50.8088C2.55861 51.6104 1.94299 52.3802 1.28317 53.1181C0.789852 53.6114 0.378753 54.1664 0.049874 54.7831C-0.044823 55.2191 -0.0040271 55.6736 0.166797 56.0858C0.337622 56.498 0.630317 56.8481 1.00568 57.0893C2.67371 58.3535 4.53599 59.3432 6.51852 60.0184C15.7682 62.1212 25.1876 63.4192 34.6624 63.8971C39.5585 64.0821 44.7322 66.299 50.3345 64.3904C55.4465 62.633 58.1567 50.0688 58.7117 48.3144C59.5133 45.7584 60.5308 43.2949 61.3602 40.7697C62.1926 38.2445 65.6089 25.3751 66.4722 20.3556C67.3047 15.891 56.649 4.4337 52.7055 3.60431" fill="#020202"/>
<path fill-rule="evenodd" clip-rule="evenodd" d="M71.3375 22.6952C70.4741 27.0672 65.8863 44.4629 64.8688 47.3303C63.8513 50.1915 62.9294 52.3467 62.097 54.9027C61.7578 55.8894 59.0199 67.8678 55.5081 69.0363C50.6736 70.6704 45.7465 68.5738 40.912 68.3888C37.8349 68.3888 31.6746 67.9572 27.7342 67.3436C13.0457 64.9726 12.984 65.5862 9.59859 63.4341C7.59448 62.3241 6.82367 64.2974 8.02614 65.3426C9.38277 66.3909 10.9645 67.1185 12.6448 67.4669C21.8948 69.5848 31.3117 70.8929 40.7887 71.3765C45.6849 71.5615 50.8894 73.7506 56.4639 71.8698C62.0384 69.9921 64.2861 57.5512 64.7146 55.766C65.5163 53.2409 66.5338 50.7773 67.3662 48.2522C68.1956 45.727 73.0302 28.3282 73.9551 23.4012C74.3559 20.91 71.951 20.17 71.3344 22.6921" fill="#8B1E1E"/>
</svg>
