<svg width="140" height="140" viewBox="0 0 140 140" fill="none" xmlns="http://www.w3.org/2000/svg">
<g clip-path="url(#clip0_207_45)">
<path d="M106.674 68.1566C106.091 60.3288 103.466 52.7906 99.0617 46.2932C94.5084 39.5556 87.9669 34.4061 80.3486 31.562C72.7303 28.718 64.4146 28.321 56.56 30.4266C48.7304 32.2122 41.6178 36.3091 36.1446 42.1858C30.6714 48.0626 27.0901 55.4482 25.865 63.3849C25.4267 66.4513 25.4267 69.5644 25.865 72.6307C26.3084 75.8216 27.4867 78.8607 29.295 81.5266C32.4917 86.0591 37.4325 87.3424 39.935 90.8832C40.9034 92.2541 41.335 93.9282 41.1542 95.5966C41.1237 96.0126 41.2594 96.4238 41.5318 96.7399C41.8041 97.0559 42.1907 97.2511 42.6067 97.2824H44.24C48.405 98.4335 52.6284 99.3046 56.91 99.8957C58.7417 100.129 60.5831 100.246 62.4342 100.246H67.9525C72.1992 100.246 76.3875 99.4291 80.6867 98.8457C80.9278 98.8411 81.1656 98.7882 81.386 98.6901C81.6063 98.5919 81.8047 98.4506 81.9694 98.2743C82.1341 98.0981 82.2617 97.8906 82.3448 97.6642C82.4278 97.4377 82.4646 97.1969 82.4529 96.956C82.4412 96.7151 82.3812 96.479 82.2766 96.2617C82.172 96.0443 82.0248 95.8502 81.8438 95.6908C81.6627 95.5314 81.4516 95.4099 81.2228 95.3336C80.994 95.2573 80.7522 95.2277 80.5117 95.2466L67.9525 94.5466H44.3509C44.3509 92.6216 43.7675 90.7316 42.665 89.1449C40.2792 85.7091 35.455 84.1399 32.4334 79.6074C31.1036 77.3728 30.2886 74.8699 30.0475 72.2807C29.6842 69.5578 29.7235 66.7963 30.1642 64.0849C31.463 57.174 34.7967 50.8086 39.7377 45.8052C44.6787 40.8018 51.0018 37.3886 57.8959 36.0032C64.6029 34.2675 71.6832 34.655 78.1608 37.1123C84.6384 39.5696 90.1943 43.9757 94.0625 49.7232C97.8565 55.307 100.14 61.7782 100.689 68.5066C101.046 71.7324 100.712 74.9973 99.7088 78.084C98.7061 81.1707 97.0577 84.0086 94.8734 86.4091C93.9893 87.2924 93.0585 88.1278 92.085 88.9116C89.4659 90.9416 86.8525 92.5749 84.2917 94.7216C83.3467 95.6607 82.6467 96.8216 82.2559 98.0932C81.7067 100.003 81.2799 101.945 80.9784 103.909C80.92 105.251 80.4767 106.534 79.695 107.631C76.0836 110.727 71.4266 112.327 66.675 112.105C59.3992 111.882 52.2259 110.326 45.5117 107.514C46.0367 106.581 45.5117 103.734 45.5117 101.99C45.4802 101.507 45.2625 101.055 44.9044 100.73C44.5464 100.405 44.0761 100.231 43.5925 100.246C43.1147 100.277 42.6688 100.497 42.3528 100.857C42.0367 101.217 41.8763 101.687 41.9067 102.165C41.9067 104.492 41.4984 107.456 41.9067 108.733C41.9859 109.13 42.16 109.502 42.4139 109.816C42.6678 110.131 42.9941 110.38 43.365 110.542C50.82 113.983 58.8817 115.955 67.0834 116.352C72.9958 116.739 78.8285 114.822 83.3584 111.002C84.2917 110.098 84.9917 108.978 85.4 107.747C86.0063 105.845 86.4723 103.902 86.7942 101.932C86.765 100.905 86.9867 99.8899 87.4359 98.9682C89.9909 96.7574 92.5459 95.3049 95.1067 93.1524C96.3122 92.2618 97.4361 91.2741 98.4784 90.1891C101.347 87.321 103.564 83.8684 104.978 80.0664C106.393 76.2644 106.971 72.2022 106.674 68.1566Z" fill="#020202"/>
<path d="M56.5601 81.5266C56.9101 78.1549 57.1434 74.7249 57.4351 71.3532C58.3451 72.2944 59.3717 73.0877 60.515 73.7332C62.37 74.9116 64.5401 75.4949 66.7392 75.4249C68.7809 75.3666 70.7759 74.8066 72.5492 73.7916V78.6157C72.5298 82.4035 72.8409 86.1641 73.4826 89.8974C73.4826 91.1224 76.3876 91.8749 76.9709 89.8974C76.617 86.1369 76.617 82.3782 76.9709 78.6216C77.7798 73.5038 78.9231 68.4638 80.4009 63.5016C80.5833 62.9406 80.5669 62.3338 80.3544 61.7835C80.1419 61.2331 79.7463 60.7728 79.2342 60.4799C78.7075 60.0813 78.0498 59.8959 77.3924 59.9608C76.735 60.0257 76.1262 60.336 75.6876 60.8299C75.4519 61.1133 75.2557 61.4272 75.1042 61.7632L74.4684 63.0349L73.0684 65.3099C72.2841 66.4015 71.2733 67.3109 70.105 67.9757C69.0644 68.6426 67.8584 69.0062 66.6225 69.0257C65.2836 69.0122 63.9902 68.5385 62.9592 67.6841C61.6975 66.7695 60.6619 65.5783 59.9317 64.2016L58.8876 61.5824C58.8876 61.0574 58.4792 59.7799 58.3626 59.4299C58.0914 59.0703 57.7408 58.7784 57.338 58.577C56.9352 58.3756 56.4912 58.2702 56.0409 58.2691C55.5764 58.1499 55.0884 58.1574 54.6278 58.2908C54.1672 58.4241 53.7507 58.6785 53.4217 59.0274C51.5609 61.0049 53.0134 72.1641 52.1967 85.1316C52.3445 86.3877 52.3445 87.6477 52.1967 88.9116C52.1967 91.3499 54.9384 92.0499 55.5742 89.4949C56.1926 86.8816 56.5192 84.2099 56.5601 81.5266ZM18.0717 36.0616C17.357 35.1916 16.56 34.3926 15.6917 33.6757L13.0142 31.6982C10.8617 30.3041 8.59839 29.2016 6.32922 27.9241C5.93266 27.6471 5.44403 27.5348 4.96633 27.611C4.48862 27.6872 4.05914 27.9458 3.76839 28.3324C3.49649 28.7193 3.38696 29.1973 3.46329 29.664C3.53962 30.1307 3.79573 30.549 4.17672 30.8291C5.92672 32.6316 7.60672 34.4341 9.40922 36.1782C10.1676 36.9366 10.9259 37.6891 11.6784 38.3307C12.4367 38.9724 13.2534 39.6666 14.0642 40.3024C16.0787 41.6752 18.0153 43.1491 19.8742 44.7241C20.1689 45.0144 20.566 45.1772 20.9796 45.1772C21.3933 45.1772 21.7904 45.0144 22.0851 44.7241C22.2581 44.5979 22.4035 44.4378 22.5126 44.2535C22.6216 44.0692 22.6919 43.8647 22.7192 43.6523C22.7465 43.4399 22.7302 43.2242 22.6714 43.0183C22.6125 42.8124 22.5122 42.6207 22.3767 42.4549C21.1899 40.1668 19.7456 38.0217 18.0717 36.0616ZM41.2126 10.1324C41.5042 11.2058 41.8737 12.2519 42.3209 13.2708C42.7292 14.2624 43.1317 15.2483 43.6509 16.2341C44.8759 18.5033 46.3284 20.5391 47.6059 22.8608C47.7983 23.1928 48.1015 23.4464 48.4623 23.5772C48.823 23.708 49.2183 23.7076 49.5788 23.5761C49.9393 23.4445 50.242 23.1903 50.4338 22.8579C50.6255 22.5255 50.6941 22.1362 50.6276 21.7583C50.2504 19.1525 49.7265 16.57 49.0584 14.0233C48.7667 12.9791 48.3584 11.9349 47.9559 10.8849C47.616 9.87022 47.2067 8.8801 46.7309 7.92159C45.2317 5.59409 43.8317 3.49992 42.4959 1.23659C42.4181 1.00287 42.2933 0.787511 42.1293 0.603729C41.9653 0.419948 41.7654 0.271617 41.542 0.167835C41.3186 0.0640528 41.0764 0.00700877 40.8301 0.000202227C40.5839 -0.00660432 40.3389 0.0369701 40.1101 0.128252C39.6729 0.310574 39.3247 0.657149 39.1404 1.09347C38.956 1.5298 38.9502 2.02104 39.1242 2.46159C39.8242 5.19159 40.4017 7.68825 41.2126 10.1324ZM84.6417 25.4216C84.8483 25.4451 85.0575 25.4274 85.2572 25.3696C85.457 25.3118 85.6433 25.2151 85.8054 25.0849C85.9676 24.9548 86.1024 24.7938 86.202 24.6113C86.3016 24.4288 86.3641 24.2284 86.3859 24.0216C87.2026 21.9099 87.9201 19.7594 88.5384 17.5699C88.8301 16.2924 88.9467 14.9566 89.1217 13.6791C89.171 11.7261 89.3837 9.78072 89.7576 7.86325C90.012 7.42388 90.0816 6.9014 89.9509 6.41076C89.8201 5.92011 89.4998 5.5015 89.0605 5.247C88.6211 4.9925 88.0986 4.92297 87.608 5.0537C87.1173 5.18443 86.6987 5.50471 86.4442 5.94409C85.2073 7.74535 84.2111 9.70051 83.4809 11.7599C83.1892 12.6349 82.9559 13.5255 82.7809 14.4316C82.7225 15.3455 82.7225 16.2574 82.7809 17.1674C82.7809 19.3724 83.2476 21.3499 83.4225 23.3274C83.1659 24.2433 83.7142 25.1941 84.6417 25.4216ZM134.645 43.7324C131.909 43.7324 129.354 43.3241 126.677 43.3241H123.247C122.138 43.3241 120.978 43.7324 119.875 44.0241C117.273 44.903 114.773 46.0074 112.373 47.3374C112.138 47.3747 111.914 47.463 111.717 47.5962C111.52 47.7294 111.355 47.9042 111.232 48.1083C111.11 48.3124 111.034 48.5408 111.009 48.7775C110.985 49.0142 111.013 49.2533 111.091 49.4781C111.169 49.7029 111.295 49.9079 111.461 50.0786C111.626 50.2493 111.828 50.3815 112.05 50.4661C112.272 50.5506 112.511 50.5854 112.748 50.5679C112.985 50.5504 113.216 50.4811 113.423 50.3649C116.037 49.9566 118.481 49.9566 120.978 49.7816L124.116 49.4316L127.318 48.8482C129.815 48.3232 132.259 47.6874 134.873 47.1624C135.35 47.1044 135.788 46.8699 136.101 46.505C136.414 46.1401 136.579 45.6713 136.564 45.1908C136.479 44.7532 136.236 44.3623 135.881 44.0931C135.526 43.824 135.083 43.6955 134.639 43.7324" fill="#8B1E1E"/>
<path d="M75.3375 122.512C73.4048 122.632 71.4681 122.632 69.5275 122.512C67.6609 122.512 65.8059 122.22 63.7117 122.103L57.8959 121.812C54.0634 121.812 50.2834 121.812 46.2701 121.403C45.8536 121.317 45.4202 121.397 45.0618 121.626C44.7035 121.855 44.4484 122.214 44.3509 122.628C44.2635 123.045 44.3426 123.48 44.5715 123.84C44.8004 124.2 45.1609 124.456 45.5759 124.553C48.8347 125.847 52.1995 126.856 55.6325 127.569C57.1298 127.841 58.6406 127.997 60.1651 128.036C61.6817 128.152 63.1925 128.152 64.6975 128.036C68.4581 127.728 72.1603 127.089 75.8042 126.117C76.2785 126.031 76.7012 125.765 76.9839 125.375C77.2665 124.984 77.3873 124.5 77.3209 124.022C77.2473 123.564 77.0004 123.152 76.6312 122.87C76.262 122.589 75.7989 122.461 75.3375 122.512ZM69.0667 134.26C67.119 134.206 65.1766 134.031 63.2509 133.735C61.9728 133.651 60.6906 133.651 59.4126 133.735C57.0851 133.735 54.9326 134.318 52.6692 134.552C52.4626 134.527 52.2532 134.544 52.0532 134.601C51.8531 134.658 51.6663 134.754 51.5036 134.884C51.3409 135.013 51.2055 135.174 51.1052 135.356C51.0049 135.539 50.9417 135.739 50.9192 135.946C50.9005 136.372 51.0384 136.791 51.307 137.123C51.5757 137.455 51.9564 137.677 52.3776 137.748C54.3376 138.495 56.3326 139.133 58.3626 139.662C59.2298 139.817 60.1028 139.914 60.9817 139.953C61.8723 140.012 62.7628 140.012 63.6534 139.953C65.8573 139.532 67.9928 138.809 70 137.807C70.4704 137.706 70.8815 137.423 71.1429 137.019C71.4044 136.615 71.4948 136.124 71.3942 135.654C71.2937 135.184 71.0104 134.773 70.6067 134.511C70.203 134.25 69.712 134.159 69.2417 134.26H69.0667Z" fill="#020202"/>
</g>
<defs>
<clipPath id="clip0_207_45">
<rect width="140" height="140" fill="white"/>
</clipPath>
</defs>
</svg>
