<svg width="68" height="71" viewBox="0 0 68 71" fill="none" xmlns="http://www.w3.org/2000/svg">
<path d="M53.5069 20.1188C53.5081 22.7127 52.9984 25.2815 52.0068 27.6784C51.0152 30.0753 49.5612 32.2535 47.7277 34.0884C45.8942 35.9233 43.7173 37.3791 41.3212 38.3726C38.925 39.3661 36.3567 39.8779 33.7627 39.8788C28.4989 39.7912 23.4826 37.6283 19.8056 33.8606C16.1287 30.0928 14.0886 25.0254 14.1294 19.7609C14.1315 14.7274 16.1049 9.89479 19.6267 6.29841C23.1485 2.70204 27.9386 0.627892 32.9711 0.520267C33.2582 0.503378 33.5411 0.497044 33.8197 0.501267C36.4035 0.485789 38.9648 0.982134 41.3558 1.96166C43.7468 2.94119 45.9202 4.38451 47.7505 6.20833C49.5808 8.03215 51.0318 10.2004 52.0198 12.5879C53.0078 14.9754 53.5132 17.5349 53.5069 20.1188Z" fill="#C2F3FF"/>
<path d="M33.7658 28.9284C29.4611 28.8761 25.2908 27.4216 21.8872 24.7855C18.4836 22.1494 16.0324 18.4754 14.9051 14.3206C14.3919 16.0917 14.1307 17.9264 14.1293 19.7704C14.091 25.0332 16.1322 30.0982 19.8089 33.8639C23.4856 37.6295 28.5004 39.7912 33.7626 39.8787C36.8255 39.8811 39.8468 39.1704 42.5873 37.8028C45.3278 36.4352 47.7123 34.4483 49.5519 31.9994C51.3914 29.5506 52.6355 26.707 53.1857 23.694C53.7358 20.681 53.5769 17.5813 52.7215 14.6404C51.5406 18.7565 49.0525 22.3767 45.633 24.9543C42.2134 27.5318 38.048 28.9267 33.7658 28.9284Z" fill="#66E1FF"/>
<path d="M53.5069 20.1188C53.5081 22.7127 52.9984 25.2815 52.0068 27.6784C51.0152 30.0753 49.5612 32.2535 47.7277 34.0884C45.8942 35.9233 43.7173 37.3791 41.3212 38.3726C38.925 39.3661 36.3567 39.8779 33.7627 39.8788C28.4989 39.7912 23.4826 37.6283 19.8056 33.8606C16.1287 30.0928 14.0886 25.0254 14.1294 19.7609C14.1315 14.7274 16.1049 9.89479 19.6267 6.29841C23.1485 2.70204 27.9386 0.627892 32.9711 0.520267C33.2582 0.503378 33.5411 0.497044 33.8197 0.501267C36.4035 0.485789 38.9648 0.982134 41.3558 1.96166C43.7468 2.94119 45.9202 4.38451 47.7505 6.20833C49.5808 8.03215 51.0318 10.2004 52.0198 12.5879C53.0078 14.9754 53.5132 17.5349 53.5069 20.1188Z" stroke="#191919" stroke-linecap="round" stroke-linejoin="round"/>
<path d="M32.9678 0.520264C22.6951 11.6479 22.6951 26.1671 32.9678 39.8629M34.6809 0.520264C44.9536 11.6479 44.9536 26.1639 34.6809 39.8566M17.3783 30.7904H50.3749M17.0109 9.5896H50.4604M14.1293 20.1884H53.5068" stroke="#191919" stroke-linecap="round" stroke-linejoin="round"/>
<path d="M34.0762 61.6875C35.011 61.6875 35.9367 61.5034 36.8004 61.1457C37.6641 60.7879 38.4488 60.2635 39.1099 59.6025C39.7709 58.9415 40.2952 58.1567 40.653 57.2931C41.0107 56.4294 41.1949 55.5037 41.1949 54.5689C41.1949 53.634 41.0107 52.7083 40.653 51.8447C40.2952 50.981 39.7709 50.1962 39.1099 49.5352C38.4488 48.8742 37.6641 48.3498 36.8004 47.9921C35.9367 47.6343 35.011 47.4502 34.0762 47.4502C32.1882 47.4502 30.3776 48.2002 29.0425 49.5352C27.7075 50.8702 26.9575 52.6809 26.9575 54.5689C26.9575 56.4568 27.7075 58.2675 29.0425 59.6025C30.3776 60.9375 32.1882 61.6875 34.0762 61.6875ZM11.6847 61.6875C12.6195 61.6875 13.5452 61.5034 14.4089 61.1457C15.2726 60.7879 16.0573 60.2635 16.7184 59.6025C17.3794 58.9415 17.9037 58.1567 18.2615 57.2931C18.6192 56.4294 18.8034 55.5037 18.8034 54.5689C18.8034 53.634 18.6192 52.7083 18.2615 51.8447C17.9037 50.981 17.3794 50.1962 16.7184 49.5352C16.0573 48.8742 15.2726 48.3498 14.4089 47.9921C13.5452 47.6343 12.6195 47.4502 11.6847 47.4502C9.79672 47.4502 7.98606 48.2002 6.65105 49.5352C5.31604 50.8702 4.56604 52.6809 4.56604 54.5689C4.56604 56.4568 5.31604 58.2675 6.65105 59.6025C7.98606 60.9375 9.79672 61.6875 11.6847 61.6875ZM55.9674 61.6875C56.9022 61.6875 57.8279 61.5034 58.6916 61.1457C59.5552 60.7879 60.34 60.2635 61.001 59.6025C61.6621 58.9415 62.1864 58.1567 62.5442 57.2931C62.9019 56.4294 63.086 55.5037 63.086 54.5689C63.086 53.634 62.9019 52.7083 62.5442 51.8447C62.1864 50.981 61.6621 50.1962 61.001 49.5352C60.34 48.8742 59.5552 48.3498 58.6916 47.9921C57.8279 47.6343 56.9022 47.4502 55.9674 47.4502C54.0794 47.4502 52.2687 48.2002 50.9337 49.5352C49.5987 50.8702 48.8487 52.6809 48.8487 54.5689C48.8487 56.4568 49.5987 58.2675 50.9337 59.6025C52.2687 60.9375 54.0794 61.6875 55.9674 61.6875Z" fill="#FFDDA1" stroke="#191919" stroke-linecap="round" stroke-linejoin="round"/>
<path d="M0.5 70.168C1.82971 68.5195 3.51166 67.1897 5.42241 66.276C7.33316 65.3624 9.42422 64.8882 11.5422 64.8882C13.6601 64.8882 15.7512 65.3624 17.6619 66.276C19.5727 67.1897 21.2546 68.5195 22.5843 70.168C23.9542 68.5179 25.6709 67.1899 27.6122 66.2784C29.5535 65.3669 31.6718 64.8944 33.8165 64.8944C35.9612 64.8944 38.0795 65.3669 40.0208 66.2784C41.9621 67.1899 43.6788 68.5179 45.0487 70.168C46.3783 68.5189 48.0605 67.1886 49.9715 66.2746C51.8826 65.3606 53.974 64.8862 56.0924 64.8862C58.2108 64.8862 60.3023 65.3606 62.2133 66.2746C64.1244 67.1886 65.8065 68.5189 67.1362 70.168" fill="#66E1FF"/>
<path d="M0.5 70.168C1.82971 68.5195 3.51166 67.1897 5.42241 66.276C7.33316 65.3624 9.42422 64.8882 11.5422 64.8882C13.6601 64.8882 15.7512 65.3624 17.6619 66.276C19.5727 67.1897 21.2546 68.5195 22.5843 70.168C23.9542 68.5179 25.6709 67.1899 27.6122 66.2784C29.5535 65.3669 31.6718 64.8944 33.8165 64.8944C35.9612 64.8944 38.0795 65.3669 40.0208 66.2784C41.9621 67.1899 43.6788 68.5179 45.0487 70.168C46.3784 68.5189 48.0605 67.1886 49.9715 66.2746C51.8826 65.3606 53.974 64.8862 56.0924 64.8862C58.2108 64.8862 60.3023 65.3606 62.2133 66.2746C64.1244 67.1886 65.8065 68.5189 67.1362 70.168" stroke="#191919" stroke-linecap="round" stroke-linejoin="round"/>
</svg>
