<svg width="164" height="164" viewBox="0 0 164 164" fill="none" xmlns="http://www.w3.org/2000/svg">
<g clip-path="url(#clip0_95_2)" filter="url(#filter0_d_95_2)">
<path d="M88.5326 18.4805C84.7517 21.2881 79.7817 25.1171 75.03 29.2053C70.2782 33.2935 65.7491 37.6624 62.9594 41.308C61.5647 43.13 60.6293 44.7825 60.2653 45.9029C59.9016 47.0216 60.0315 47.2732 60.1718 47.4678L68.305 58.5237C68.3308 58.4699 68.3646 58.4073 68.3611 58.3808C68.3556 58.3497 68.3572 58.3177 68.3657 58.2873C68.3743 58.2569 68.3896 58.2287 68.4105 58.205C68.533 58.0655 68.8477 58.0432 69.1491 58.1903C69.5177 58.3695 69.5554 58.4187 69.5978 58.7608C69.623 58.9688 69.5704 59.3474 69.4801 59.5998C69.4215 59.7649 69.4118 59.8722 69.3887 59.9968L80.3784 74.9356C80.3414 74.5299 80.1599 74.2161 79.7505 73.8767C79.3431 73.5402 79.3082 73.473 79.1729 72.6908C79.0398 71.9274 79.0306 71.3503 79.1391 70.4236C79.1561 70.2052 79.1021 69.9872 78.9853 69.8019C78.8605 69.6322 78.8065 69.316 78.8357 68.9213C78.9191 67.8026 78.6905 67.3636 78.2571 67.8189C77.9877 68.1042 78.0065 68.1238 77.1246 66.9527C76.7584 66.4667 76.6094 66.1813 76.6338 66.021C76.6557 65.877 76.9203 65.5575 77.3194 65.1898L77.968 64.5906L77.6969 64.2221C77.3697 63.7773 76.8502 63.5727 76.63 63.8044C76.4296 64.0157 76.1116 63.8342 76.1788 63.5466C76.2299 63.3943 76.3315 63.2642 76.4668 63.1778C76.6732 63.0478 76.6783 63.0034 76.5018 62.8601C76.329 62.72 76.3318 62.6686 76.5175 62.5537C76.7284 62.4218 76.9359 61.7957 76.7732 61.7818C76.693 61.7754 76.0434 62.705 75.7753 63.2072C75.6295 63.483 75.6244 63.478 75.5881 63.1068C75.5605 62.8206 75.5051 62.7175 75.3579 62.6893C75.2107 62.661 75.178 62.579 75.2184 62.3416C75.2578 62.0991 75.2416 62.0573 75.1399 62.1539C75.0485 62.243 75.0249 62.1557 75.062 61.8626C75.1099 61.4933 75.0888 61.4449 74.8782 61.427C74.6672 61.4108 74.6417 61.4412 74.6489 61.7017C74.6507 61.8442 74.6786 61.9852 74.7311 62.1176C74.771 62.1856 74.8653 62.3356 74.9391 62.4556C75.0351 62.6058 75.003 62.811 74.834 63.1459C74.5157 63.7736 74.478 63.8072 74.2532 63.624C74.1465 63.5383 74.098 63.4288 74.1447 63.3798C74.1925 63.3302 74.1283 63.2075 73.9973 63.1005C73.6808 62.838 73.5869 62.4873 73.8092 62.3906C73.906 62.3485 73.9333 62.3066 73.8704 62.302C73.6845 62.2863 73.7474 61.6808 73.9498 61.561C74.0748 61.4874 74.1005 61.3644 74.0269 61.1919C73.9664 61.0505 73.8844 60.9685 73.8435 61.0117C73.7617 61.098 73.4203 60.466 73.335 60.0698C73.3034 59.926 73.3748 59.7151 73.4963 59.588C73.6688 59.4059 73.7329 59.4082 73.8178 59.6086C73.8952 59.7927 73.9606 59.8144 74.0792 59.6894C74.2588 59.4991 74.3704 59.6015 74.457 60.0331C74.5008 60.2507 74.5754 60.3382 74.7386 60.3706C75.0028 60.4217 75.3922 60.5739 75.7405 60.765C75.8812 60.8417 76.0719 60.8699 76.1677 60.8284C76.297 60.7711 76.3884 60.852 76.5401 61.1529C76.7338 61.5406 76.7433 61.5437 76.8564 61.2354C76.92 61.0593 76.9251 60.7128 76.8635 60.4633C76.7817 60.1269 76.8158 59.9028 76.9968 59.5881C77.208 59.2236 77.2103 59.126 77.03 58.881C76.9143 58.7236 76.7843 58.6319 76.7375 58.6808C76.5541 58.8738 76.2198 58.1785 76.2869 57.7385C76.3228 57.4971 76.3818 57.2692 76.4158 57.2326C76.5394 57.1024 77.043 57.7298 77.0448 58.0146C77.0486 58.5725 77.3646 58.6567 77.7384 58.1972C77.8539 58.0542 78.0064 57.9594 78.0762 57.9851C78.1585 58.016 78.2478 57.9024 78.3288 57.6612C78.5236 57.0749 78.8006 56.6518 78.9018 56.7894C79.1029 57.0627 79.036 56.1939 78.8248 55.8061C78.3881 55.0032 78.2241 54.6125 78.2979 54.535C78.338 54.4909 78.3816 54.2875 78.3915 54.0798C78.4175 53.8122 78.5348 53.5618 78.7238 53.3705C78.8946 53.1882 79.0572 52.9393 79.0876 52.8167C79.1964 52.3663 78.7346 52.7554 78.4763 53.3303C78.2491 53.8388 78.2027 53.8904 77.9074 53.9391C77.7307 53.9674 77.5608 53.9675 77.5352 53.9326L77.0832 53.4169C76.7247 53.0066 76.6834 52.8932 76.6802 52.3044C76.671 50.9473 76.6615 50.8831 76.4429 50.8406C76.3804 50.8316 76.3166 50.8367 76.2564 50.8556C76.1961 50.8746 76.1409 50.9068 76.0948 50.95C75.9384 51.1144 76.0607 51.8 76.2613 51.8733C76.3301 51.8996 76.3543 52.2958 76.3157 52.7527C76.226 53.7918 76.4198 54.3494 76.9034 54.4599C77.3774 54.5672 77.7385 55.1252 77.4982 55.3789C77.4355 55.4439 77.5317 55.7799 77.7375 56.1978C78.0195 56.7747 78.0521 56.9395 77.9212 57.0794C77.8307 57.1736 77.7921 57.2949 77.833 57.3505C77.8739 57.4061 77.83 57.53 77.7383 57.6265C77.6466 57.723 77.6066 57.8483 77.6475 57.9039C77.7702 58.0707 77.4786 58.2824 77.2908 58.1634C77.1871 58.0974 77.1361 57.9431 77.1671 57.778C77.2142 57.5182 77.182 57.4765 76.6379 57.0982L76.059 56.6962L75.9935 57.2193C75.883 58.1155 75.5728 58.2072 74.9249 57.5377C74.5859 57.1875 74.2788 56.8078 74.0073 56.403C73.9596 56.3262 73.9778 56.2504 74.0486 56.236C74.1201 56.2227 74.1356 56.1489 74.0822 56.0763C74.029 56.0021 74.0408 55.6449 74.1045 55.2813C74.204 54.7216 74.1205 53.2259 73.9822 53.0183C73.879 52.8661 73.6402 51.5661 73.7028 51.5012C73.7406 51.4617 73.7286 51.3703 73.6745 51.2968C73.6211 51.2243 73.5792 51.0053 73.5807 50.8139C73.5815 50.6216 73.5466 50.2957 73.5027 50.0899C73.4594 49.8849 73.4892 49.497 73.572 49.2284C73.6547 48.9598 73.6936 48.6988 73.6583 48.6507C73.6229 48.6027 73.7018 48.5025 73.8322 48.4211C74.0546 48.2851 74.1621 47.7383 73.987 47.6405C73.9507 47.6208 73.997 47.5039 74.0917 47.382C74.6507 46.6512 74.7841 46.5501 75.1572 46.5676C75.5289 46.5832 75.5458 46.5984 75.5439 46.9353C75.5428 47.2774 75.5466 47.2747 75.7647 46.9196C75.9578 46.6076 76.0175 46.5782 76.1904 46.7183C76.3223 46.8246 76.4591 46.8111 76.5869 46.6749C76.6954 46.5617 77.0021 46.4654 77.2671 46.4622C77.5322 46.4574 77.9124 46.4232 78.1137 46.3869C78.7642 46.2643 79.1975 46.7545 79.0426 47.4364C78.9702 47.7526 78.8919 47.8436 78.4684 48.0912C78.1983 48.2493 77.8844 48.3873 77.7719 48.4002C77.6256 48.4159 77.6538 48.4411 77.8566 48.4759C78.0146 48.505 78.2554 48.6764 78.3784 48.8633C78.6324 49.2284 79.1305 49.3704 79.3423 49.139C79.4546 49.0172 79.4397 49.0049 79.2491 49.0478C79.1276 49.0762 78.9461 48.9875 78.8463 48.8518C78.6383 48.569 78.6821 48.4903 79.0652 48.4583C79.4535 48.4254 79.577 48.2517 79.3438 48.0631C79.0647 47.8356 79.1196 46.8598 79.4236 46.671C79.6399 46.5366 79.6317 46.5135 79.2017 46.0455C78.9555 45.7779 78.6752 45.541 78.579 45.5189C78.452 45.4903 78.448 45.4336 78.5631 45.3156C79.0609 44.7998 79.6276 44.8811 79.525 45.4504C79.4983 45.6036 79.536 45.7575 79.6153 45.7863C79.8397 45.8682 80.0003 45.6265 79.9001 45.356C79.8138 45.1203 80.006 43.9738 80.1587 43.8121C80.1995 43.7689 80.2302 43.6171 80.2262 43.4734C80.2252 43.3217 80.2751 43.174 80.3679 43.054C80.4813 42.9357 80.547 42.9658 80.6384 43.173C80.7372 43.3981 80.7648 43.404 80.7809 43.2047C80.8051 43.0408 80.8764 42.8873 80.9862 42.7632C81.0897 42.6551 81.1631 42.4922 81.1504 42.3999C81.1376 42.3076 81.2274 42.1689 81.354 42.0903C81.4787 42.0131 81.5851 41.897 81.5871 41.8346C81.5963 41.6535 81.1622 41.5037 81.0324 41.6413C80.897 41.783 80.5261 41.5533 80.4893 41.3059C80.4751 41.1943 80.5745 41.1406 80.7876 41.1446C80.9651 41.149 81.3552 41.0277 81.6514 40.8795C81.9479 40.7296 82.441 40.5964 82.746 40.5826C83.2815 40.5562 83.2925 40.5495 83.0643 40.3775C82.9344 40.2799 82.7289 40.2059 82.6107 40.213C82.4677 40.2213 82.3509 40.1218 82.2603 39.9144C82.1861 39.7425 82.0172 39.5602 81.8824 39.5113C81.6769 39.4373 81.6267 39.3217 81.575 38.7933C81.5405 38.4483 81.4399 38.0706 81.3532 37.9528C81.2665 37.835 81.2022 37.6252 81.208 37.4888C81.2106 37.3256 81.1888 37.1629 81.1434 37.0061C81.102 36.8768 81.1241 36.7153 81.1891 36.6457C81.3706 36.4541 81.6291 36.6851 81.5516 36.9687C81.4944 37.1793 81.5199 37.1823 81.7153 36.9819C81.9175 36.7751 81.9764 36.784 82.174 37.0526C82.2988 37.2223 82.4262 37.4844 82.4576 37.6356C82.4958 37.8297 82.5578 37.9061 82.6631 37.8853C82.7503 37.8676 82.7562 37.8342 82.6819 37.8062C82.6098 37.7793 82.5413 37.5421 82.5281 37.2773C82.5156 37.0134 82.4363 36.7319 82.3532 36.6506C82.2716 36.5712 82.2192 36.4369 82.2408 36.3557C82.2824 36.1871 82.6331 36.3242 82.7913 36.5709C82.938 36.7999 83.1595 36.7358 83.1475 36.4687C83.1262 36.0152 83.3764 35.7512 83.8069 35.7657C84.0357 35.7746 84.2595 35.7392 84.3103 35.6859C84.3608 35.6342 84.2289 35.5831 84.0141 35.5755C83.7577 35.5666 83.4855 35.4255 83.2316 35.1693C82.7851 34.7163 82.7878 34.7042 83.4233 33.8444C83.8238 33.3029 83.8758 33.0773 83.5909 33.1344C83.3855 33.1751 83.0828 32.6846 83.2225 32.5368C83.2962 32.4593 83.2839 32.3696 83.1869 32.3088C83.0778 32.2395 83.0786 32.1517 83.1932 32.0311C83.2849 31.9346 83.3351 31.7698 83.3031 31.667C83.271 31.5642 83.3458 31.271 83.4701 31.0155C83.5941 30.7615 83.6912 30.4592 83.6872 30.3431C83.6768 30.021 84.0289 29.5005 84.2602 29.493C84.3744 29.4904 84.5015 29.3867 84.5525 29.2547C84.6029 29.1277 84.7453 28.9343 84.8696 28.8268C85.052 28.668 85.0572 28.6278 84.8957 28.6116C84.5915 28.5811 84.5574 28.4538 84.7847 28.2139C84.9322 28.0589 84.9452 27.968 84.833 27.8965C84.6383 27.774 84.4878 26.7954 84.6038 26.4181C84.6185 26.3728 84.6399 26.3301 84.6675 26.2913C84.7162 26.2238 84.7802 26.1687 84.8543 26.1307C85.0751 26.0162 85.3619 26.0448 85.4561 26.2675C85.5199 26.4195 85.5984 26.4591 85.6753 26.3779C85.7419 26.3085 85.87 26.2971 85.957 26.3522C86.0577 26.4161 86.2305 26.3369 86.4233 26.137C86.8852 25.6592 87.4913 25.7072 87.9837 26.26C88.3874 26.714 88.4081 26.8527 88.2588 28.1346C88.226 28.4217 88.232 28.4318 88.4138 28.3039C88.5189 28.2295 88.6742 28.1878 88.7547 28.2143C88.859 28.2495 88.8932 28.1953 88.873 28.0256C88.85 27.8247 88.8787 27.8123 89.0564 27.9532C89.2311 28.0919 89.2931 28.0695 89.3959 27.8341C89.5675 27.4435 90.3342 26.9812 90.4097 27.222C90.4466 27.342 90.5796 27.3207 90.8085 27.1581C91.2269 26.8619 91.2855 26.6692 91.0546 26.3553C90.812 26.0255 90.886 25.8418 91.3142 25.717C91.5132 25.6578 91.7476 25.5362 91.8344 25.4448C92.1404 25.1223 92.5152 25.3041 92.9941 26.0063C93.3639 26.5506 93.483 26.6532 93.7084 26.6298C93.959 26.6052 93.9649 26.5718 93.8036 26.1966C93.567 25.6459 93.5924 25.4514 93.8874 25.5859C94.0792 25.6729 94.1798 25.6279 94.3325 25.3892C94.4481 25.2069 94.5874 25.1 94.6737 25.1324C94.7807 25.1713 94.8276 25.1107 94.8465 24.8935C94.862 24.731 94.9193 24.5639 94.9711 24.5258C95.0243 24.4896 95.0203 24.3676 94.9647 24.2545C94.9085 24.1405 94.8219 24.088 94.773 24.14C94.7234 24.191 94.6325 24.1663 94.5722 24.0843C94.5098 23.9995 94.5338 23.8583 94.6225 23.7656C94.7094 23.6725 94.7587 23.5302 94.7307 23.4506C94.6492 23.2215 96.5863 22.0202 96.8461 22.1385C96.9605 22.1894 97.0521 22.2803 97.0487 22.3409C97.0463 22.4008 97.1628 22.3775 97.3097 22.2869C97.3982 22.2334 97.4591 22.2293 97.5225 22.2248L92.6062 15.5418C91.5272 16.3022 90.9485 16.6844 88.5326 18.4805ZM83.7202 26.6483C83.8159 26.5474 83.904 26.5349 83.917 26.6197C83.9449 26.8215 83.7185 27.0607 83.6221 26.9297C83.5812 26.874 83.6257 26.7469 83.7202 26.6483ZM92.8197 20.4482C92.898 20.4007 93.0437 20.3676 93.2982 20.3286C93.6258 20.2764 93.9907 20.1386 94.109 20.0211C94.3414 19.792 94.8289 19.5642 94.7151 19.7393C94.6769 19.798 94.7779 19.7556 94.9411 19.6457C95.2708 19.4265 95.4792 19.5854 95.3826 19.9833C95.305 20.3062 94.5333 20.5979 94.3649 20.3689C94.2031 20.149 94.0995 20.3142 94.0542 20.8647C94.0316 21.1282 93.9142 21.4484 93.7918 21.5762C93.6694 21.704 93.4716 21.9643 93.354 22.1539C93.1714 22.4466 93.0875 22.4807 92.8034 22.3847C92.1877 22.1796 91.9254 21.1714 92.31 20.9321C92.3717 20.894 92.4437 20.8761 92.5161 20.8806C92.763 20.8864 92.7866 20.8632 92.7487 20.6558C92.7305 20.5559 92.7406 20.4947 92.819 20.4472M91.873 21.8229C91.9189 21.7746 92.0584 21.8695 92.1811 22.0363C92.3031 22.2022 92.3647 22.3806 92.3188 22.4289C92.273 22.4771 92.1363 22.3802 92.0136 22.2133C91.8915 22.0475 91.8272 21.8711 91.873 21.8229ZM93.7917 22.198C93.9036 22.1447 94.0892 22.2173 94.1112 22.3696C94.1208 22.4381 94.1987 22.4215 94.2838 22.3298C94.4808 22.1238 94.779 22.1441 94.9517 22.3788C95.0543 22.5183 95.0194 22.6209 94.8038 22.8333C94.6616 22.9734 94.5078 23.1012 94.3439 23.2152C94.1482 23.3301 93.9704 23.1951 94.1169 23.0408C94.1727 22.9824 94.1057 22.8559 93.9382 22.709C93.7736 22.5643 93.6857 22.4052 93.714 22.2958C93.7188 22.2747 93.7283 22.255 93.7419 22.2382C93.7555 22.2214 93.7721 22.207 93.7917 22.198ZM78.4043 34.2206C78.5163 34.0787 78.6608 34.0639 78.8236 34.1983C79.182 34.4939 79.193 34.8939 78.8687 35.7542C78.6931 36.2204 78.5729 36.8171 78.5815 37.2001L78.6086 38.2695C78.614 38.4979 78.7205 39.1008 78.8468 39.6121C79.1069 40.6627 79.4461 41.1118 80.0304 41.1816C80.2151 41.2055 80.359 41.2827 80.3412 41.3553C80.2985 41.5262 79.8058 42.0135 79.6497 42.0383C79.5843 42.0501 79.4136 41.9621 79.2703 41.8424C79.0957 41.6959 78.9537 41.6812 78.8444 41.7984C78.722 41.9263 78.6265 41.905 78.4864 41.7146C78.3789 41.5686 78.3544 41.4443 78.4277 41.4295C78.5517 41.4066 78.4911 41.2333 78.2686 41.0019C78.2058 40.9363 78.1334 40.6918 78.1063 40.4575C78.0792 40.2233 78.0086 39.9891 77.9506 39.9359C77.8923 39.8843 77.8045 39.5931 77.7546 39.2884C77.7042 38.977 77.5814 38.6679 77.4703 38.5782C77.3409 38.472 77.3068 38.3499 77.368 38.2119C77.4198 38.0968 77.4772 37.6043 77.4951 37.1191C77.524 36.3687 77.5769 36.1918 77.8421 35.9284C78.0837 35.6882 78.1624 35.4793 78.1914 35.0033C78.2152 34.6329 78.2923 34.3626 78.405 34.2216M69.1171 42.0157C69.2684 41.871 69.4681 41.7877 69.6774 41.7822L70.0026 41.7958L69.9922 42.2536C69.9828 42.6949 69.774 43.1259 69.7286 42.8034C69.7156 42.7186 69.6345 42.723 69.5478 42.8144C69.4223 42.9459 69.3361 42.9077 69.1382 42.619C68.9102 42.2972 68.9087 42.2359 69.1171 42.0157ZM68.4432 42.7759C68.5629 42.682 68.6438 42.6399 68.6653 42.6691C68.6852 42.6972 68.6951 42.7312 68.6932 42.7655C68.6913 42.7999 68.6778 42.8326 68.6549 42.8583C68.6091 42.9066 68.6198 43.012 68.6794 43.093C68.739 43.1741 68.9096 43.5599 69.0569 43.9497C69.3422 44.7028 69.2652 45.0108 68.8727 44.6866C68.7427 44.5789 68.5888 44.5396 68.53 44.6017C68.3934 44.7458 67.9838 44.4181 68.037 44.2061C68.0623 44.1062 68.037 44.0639 67.9695 44.0946C67.9094 44.1214 67.7575 44.069 67.6341 43.9782C67.4149 43.8185 67.4261 43.7942 67.9985 43.1902L67.9999 43.1921C68.17 43.0146 68.3244 42.8691 68.4432 42.7759ZM88.4239 28.9079C88.4131 28.8801 88.3893 28.9082 88.3525 28.9924C88.2949 29.1176 88.2127 29.2565 88.1708 29.3004C88.1288 29.3458 88.1433 29.4485 88.2043 29.5314C88.3499 29.7293 88.3672 29.7035 88.4154 29.1945C88.4296 29.0999 88.4331 29.0032 88.4239 28.9079ZM84.8178 36.1448C84.8363 36.2246 84.8667 36.3011 84.9079 36.3719C85.0108 36.5868 85.0716 36.6437 85.078 36.5242C85.0674 36.3957 85.0101 36.2757 84.9169 36.1867C84.8536 36.1296 84.8206 36.1156 84.8178 36.1448ZM82.942 37.9881C82.9384 38.0561 83.0765 38.2755 83.3605 38.6635C83.9161 39.4227 84.3298 39.6949 84.2699 39.264C84.2533 39.1426 84.1829 39.1101 84.0833 39.1761C83.951 39.2648 83.8601 39.1748 83.5529 38.6585C83.349 38.3162 83.0956 38.0073 82.9916 37.9705C82.9603 37.9596 82.9438 37.9655 82.942 37.9881ZM84.4131 39.6975C84.3673 39.7458 84.3933 39.8719 84.4723 39.9794C84.5513 40.0868 84.6011 40.2433 84.5802 40.3255C84.5424 40.4754 84.7209 40.803 84.7958 40.7232C84.8178 40.6998 84.7931 40.4885 84.7431 40.2507C84.6377 39.7502 84.5308 39.5732 84.4131 39.6975ZM79.2045 43.6425C79.2442 43.6017 79.3161 43.5967 79.4481 43.5984C79.7148 43.6056 79.7307 43.6272 79.7269 43.938C79.7252 44.2791 79.6098 44.4817 79.4246 44.4668C79.2469 44.4523 79.1309 44.2196 79.1476 43.9008C79.1541 43.7595 79.1642 43.6824 79.2038 43.6416M84.667 40.9647C84.6225 41.003 84.5857 41.0494 84.5583 41.1013C84.4874 41.2261 84.4414 41.3471 84.4566 41.3678C84.4719 41.3886 84.56 41.3267 84.6526 41.2295C84.7452 41.1323 84.7885 41.0133 84.7524 40.9643C84.7322 40.9395 84.7037 40.9396 84.667 40.9647ZM102.168 29.1057C102.111 29.1398 102.041 29.2337 101.934 29.3998C101.79 29.6215 101.477 29.9989 101.237 30.2403C100.806 30.6767 100.804 30.6881 100.825 31.7758C100.835 32.3782 100.82 33.1156 100.788 33.4163C100.747 33.82 100.77 33.9249 100.874 33.8177C100.983 33.7284 101.122 33.6842 101.263 33.6945C101.399 33.706 101.477 33.6651 101.433 33.6057C101.315 33.4455 101.635 33.162 101.882 33.2097C102.166 33.2655 102.396 33.0235 102.185 32.891C102.092 32.8316 102.074 32.7402 102.14 32.6715C102.274 32.5312 102.581 32.7538 102.957 33.2646C103.105 33.4663 103.427 33.7613 103.671 33.9257C104.168 34.2607 104.224 34.404 103.86 34.4156C103.636 34.4224 103.651 34.4607 104.06 34.9021C104.311 35.1731 104.455 35.3925 104.391 35.4052C104.327 35.4173 104.286 35.504 104.3 35.5972C104.339 35.8718 105.048 35.892 105.182 35.622C105.265 35.458 105.309 35.4446 105.328 35.5773C105.343 35.6825 105.434 35.7516 105.53 35.7336C105.66 35.7064 105.666 35.7802 105.557 36.0273C105.478 36.2093 105.426 36.4391 105.44 36.5359C105.455 36.6385 105.358 36.7794 105.212 36.8693C104.983 37.0085 104.982 37.0385 105.196 37.1832C105.527 37.4076 105.822 37.8559 106.109 38.5859C106.311 39.0979 106.324 39.2731 106.175 39.5583C106.062 39.7806 105.959 40.0079 105.867 40.2395C105.798 40.4214 105.707 40.6159 105.669 40.6755C105.44 41.0097 105.279 41.6587 105.352 41.9461C105.448 42.3197 105.258 42.4338 105.037 42.1341C104.958 42.0267 104.855 41.9775 104.809 42.0257C104.642 42.2011 104.57 41.888 104.627 41.2256C104.667 40.743 104.762 40.4645 104.957 40.2599C105.166 40.0374 105.212 39.8894 105.142 39.6185C105.083 39.3912 105.117 39.1964 105.243 39.0648C105.501 38.792 105.396 38.3652 104.907 37.6998C104.598 37.2804 104.509 37.0627 104.531 36.7881C104.556 36.479 104.439 36.2453 103.706 35.1579C103.115 34.2812 102.822 33.9169 102.759 33.9835C102.71 34.0345 102.787 34.2395 102.931 34.4356C103.302 34.9398 103.477 35.7038 103.571 37.2185C103.624 38.071 103.498 38.5355 103.174 38.6762C103.009 38.7498 102.953 39.3037 103.093 39.494C103.139 39.5553 103.147 39.7976 103.112 40.0324L103.046 40.4617L103.439 40.5676C103.702 40.6362 103.907 40.792 104.053 41.0352C104.239 41.343 104.238 41.4626 104.054 41.8538L103.836 42.3144L103.551 41.9547C103.42 41.7948 103.297 41.6281 103.184 41.4552C103.141 41.3776 103.071 41.3987 103.028 41.5001C102.915 41.7574 102.695 41.6393 102.625 41.2855C102.575 41.0302 102.541 41.0133 102.393 41.1699C102.298 41.2691 102.181 41.5234 102.134 41.7354C102.026 42.2111 101.92 42.2117 101.773 41.7424L101.657 41.3816L101.539 42.0105C101.429 42.5921 101.441 42.6416 101.682 42.6759C101.848 42.6995 101.953 42.6452 101.968 42.5253C101.998 42.2997 102.502 41.9204 102.599 42.0514C102.635 42.1013 102.619 42.2453 102.566 42.3661C102.502 42.5419 102.461 42.7254 102.446 42.9118C102.421 43.2252 102.444 43.2514 103.032 43.4857C103.477 43.6623 103.658 43.7952 103.691 43.9769C103.721 44.1346 103.77 44.1931 103.823 44.1368C104.035 43.9138 104.319 45.8927 104.188 46.6719C104.137 46.9688 103.924 47.5254 103.715 47.9103C103.383 48.5218 103.357 48.6451 103.509 48.8882C103.824 49.3957 103.667 50.0153 103.284 49.7738C103.171 49.702 103.126 49.5228 103.162 49.2714C103.191 49.055 103.173 48.8765 103.122 48.872C102.945 48.8568 102.73 49.3856 102.778 49.715C102.821 50.0103 102.891 50.0502 103.491 50.1283C104.065 50.2048 104.203 50.2786 104.494 50.6735C104.791 51.0768 104.813 51.1765 104.69 51.4967C104.611 51.707 104.572 51.9297 104.572 52.1541C104.601 52.5484 104.388 52.747 104.204 52.4972C104.121 52.3842 104.002 52.3552 103.93 52.4304C103.892 52.4672 103.844 52.4907 103.792 52.4972C103.74 52.5038 103.687 52.4931 103.642 52.4668C103.554 52.4107 103.429 52.4201 103.366 52.4876C103.302 52.5556 103.2 52.5392 103.139 52.4563C103.078 52.3733 102.989 52.3482 102.943 52.3964C102.847 52.4964 103.497 53.4197 103.705 53.4773C103.78 53.4996 103.996 53.4856 104.184 53.4516C104.291 53.4384 104.399 53.4471 104.502 53.4774C104.605 53.5076 104.7 53.5586 104.783 53.6273C104.922 53.7572 105.137 53.9364 105.261 54.0265C105.443 54.1596 105.455 54.225 105.322 54.3654C105.072 54.627 104.42 54.5461 103.988 54.2007C103.776 54.0312 103.503 53.8976 103.384 53.9012C103.238 53.9066 103.043 53.7305 102.784 53.3588C102.521 52.9857 102.321 52.8037 102.153 52.7907C101.993 52.7708 101.84 52.7146 101.705 52.6262C101.488 52.4693 101.344 52.5403 101.38 52.7884C101.392 52.874 101.329 53.0217 101.24 53.1152C101.114 53.2484 101.026 53.2141 100.845 52.9672C100.673 52.7628 100.444 52.6143 100.187 52.5406C99.9713 52.4884 99.7631 52.4097 99.567 52.3065C99.42 52.2113 99.3646 52.2346 99.3431 52.4029C99.3277 52.5261 99.2013 52.7629 99.0642 52.932C98.9265 53.1001 98.8606 53.291 98.9126 53.3616C98.9639 53.4314 98.9443 53.6811 98.8698 53.9116C98.7954 54.1422 98.7619 54.3672 98.7966 54.4143C98.8313 54.4614 98.7874 54.8481 98.6998 55.2699C98.5416 56.0224 98.5521 56.0525 98.9193 56.5318C99.1722 56.8658 99.3822 57.0308 99.5756 57.0469C100.116 57.0907 100.47 57.8576 100.121 58.2262C100.001 58.3519 99.5765 57.909 99.5132 57.5939C99.4175 57.1123 99.2857 57.2253 99.2901 57.7842C99.2939 58.2316 99.2686 58.288 99.0683 58.2626C98.6611 58.2106 96.6927 57.0137 96.3906 56.6346C96.1278 56.305 96.0804 56.2919 95.9349 56.5166C95.7699 56.7702 95.2513 56.851 95.0988 56.6437C95.0525 56.5848 94.8347 56.5256 94.6146 56.5147C94.2568 56.4962 94.136 56.5749 93.4594 57.2585C93.0052 57.719 92.6167 58.0281 92.4882 58.0311C92.3117 58.036 92.2934 58.0684 92.3925 58.2031C92.4591 58.2936 92.7009 58.3045 92.9303 58.2273C93.4152 58.0652 93.7001 58.3379 93.6705 58.9334C93.6606 59.1411 93.6761 59.3418 93.7052 59.3814C93.805 59.5171 93.628 60.5856 93.4803 60.7421C93.3988 60.8268 93.3356 61.0548 93.3388 61.2486C93.3419 61.4424 93.3082 61.6415 93.2602 61.6928C93.2125 61.7424 93.1219 61.947 93.0581 62.1465C92.9275 62.4997 92.7758 62.8446 92.6037 63.1794C92.3107 63.7625 92.2941 63.8604 92.4828 63.9293C92.6763 63.9989 92.7407 63.9443 93.0412 63.4386C93.2285 63.1265 93.4395 62.7519 93.5108 62.608C93.8873 61.8561 94.5406 64.1163 94.3811 65.6193L94.2877 66.513L94.2243 66.7586L94.2225 67.2538C94.217 68.1091 94.3396 68.5068 94.7554 68.9693C94.9687 69.206 95.2101 69.4235 95.292 69.4519C95.3739 69.4803 95.6554 69.7801 95.9193 70.119C96.3473 70.6713 96.3884 70.7805 96.3313 71.1609C96.2957 71.3948 96.2273 71.6296 96.1769 71.6855C96.1275 71.7408 96.0776 72.0244 96.0651 72.3154C96.0484 72.7271 96.0917 72.8768 96.2723 72.9938C96.6688 73.2526 96.9444 73.8502 96.8196 74.186C96.7529 74.3658 96.7794 74.6368 96.8818 74.8491C97.0827 75.2605 97.2519 76.9357 97.1535 77.5207C97.0951 77.8717 96.3119 79.1014 95.866 79.5456C95.6558 79.7555 95.2416 79.6564 95.1184 79.3665C95.0224 79.1393 94.2285 78.6761 93.8224 78.6117C93.6934 78.5904 93.3054 78.3137 92.9632 77.9947C92.3491 77.4224 91.7154 77.0389 91.4627 77.0883C91.1788 77.1446 90.6083 76.0058 90.5999 75.3685C90.5994 75.2808 90.5792 75.1943 90.5408 75.1155C90.5024 75.0366 90.4468 74.9674 90.378 74.9129C90.2356 74.8072 90.1015 74.6908 89.9767 74.5648C89.6413 74.2116 89.1721 73.9845 88.5946 73.9024C88.2784 73.8576 87.9693 73.7553 87.9083 73.6723C87.9028 73.6648 87.8872 73.6733 87.8831 73.6676L87.8987 73.6474L87.7882 73.3511L87.5754 72.9237C87.3276 72.4248 87.1097 72.3992 86.8235 72.8334C86.6801 73.0493 86.5613 73.0931 86.3185 73.0117C85.9459 72.8864 85.6894 73.1143 85.4063 73.8251C85.2944 74.1035 84.9898 74.5818 84.7258 74.8864C84.5136 75.1312 84.3029 75.3772 84.0937 75.6245C83.8949 75.8637 82.5409 76.0449 82.2596 75.8698C82.1388 75.7945 81.789 75.7178 81.4828 75.7005C81.1767 75.6831 80.8719 75.5907 80.8005 75.4936C80.7901 75.4795 80.7735 75.4728 80.7613 75.46L100.526 102.327C100.609 102.209 100.693 101.981 100.724 101.775C100.759 101.546 100.847 101.296 100.919 101.218C100.991 101.14 101.016 100.907 100.974 100.695C100.862 100.134 100.99 99.3126 101.211 99.1805C101.314 99.1192 101.39 99.0036 101.378 98.9265C101.366 98.8485 101.478 98.6614 101.624 98.5071C101.772 98.3522 101.964 98.0058 102.054 97.7407C102.188 97.3402 102.175 97.2135 101.987 97.0058C101.806 96.805 101.796 96.7148 101.932 96.5724C102.026 96.4745 102.144 96.4548 102.197 96.5273C102.25 96.5999 102.411 96.6896 102.553 96.7262C102.78 96.7869 102.927 96.6745 103.825 95.7367C104.382 95.1521 104.817 94.6434 104.787 94.6029C104.758 94.5624 104.773 94.3489 104.823 94.128C104.909 93.7511 104.928 93.7297 105.119 93.8115C105.25 93.8675 105.432 93.7873 105.634 93.5795C105.806 93.4032 106.12 93.1749 106.332 93.0741C106.834 92.8359 107.373 92.3363 107.342 92.135C107.331 92.0479 107.404 91.8876 107.508 91.7778C107.614 91.6684 107.703 91.3657 107.709 91.1055C107.718 90.7462 107.785 90.5891 107.991 90.448C108.139 90.345 108.238 90.2303 108.199 90.1976C107.846 89.8417 108.018 89.6395 108.646 89.6799C109.26 89.7181 109.636 89.4307 109.44 89.0728C109.362 88.9312 109.353 88.6454 109.422 88.4323C109.492 88.2145 109.532 87.9878 109.54 87.759C109.529 87.3775 109.912 86.3261 110.074 86.2939C110.144 86.2803 110.18 86.1578 110.154 86.0183C110.127 85.8643 110.178 85.7349 110.293 85.6838C110.427 85.6246 110.439 85.562 110.33 85.4576C110.143 85.2743 110.368 84.5846 110.734 84.2194C111.053 83.9006 111.684 83.7675 111.759 84.0031C111.831 84.2375 112.817 83.6455 113.766 82.795C114.466 82.1685 114.563 82.1172 114.805 82.2486C115.042 82.3767 115.081 82.356 115.148 82.0875C115.216 81.8141 115.287 81.7848 115.798 81.845C116.281 81.9009 116.387 81.8703 116.459 81.636C116.506 81.4834 116.487 81.3339 116.416 81.3073C116.237 81.2415 116.274 80.4605 116.472 80.1142C116.562 79.958 116.592 79.8253 116.54 79.8206C116.487 79.8159 116.441 79.7076 116.437 79.5765C116.431 79.3965 116.359 79.3044 116.141 79.2059C115.912 79.0983 115.853 79.0182 115.847 78.8063C115.841 78.5744 115.875 78.5494 116.122 78.5929C116.484 78.6573 116.735 78.4537 116.951 77.9201C117.113 77.5254 117.146 77.4978 117.402 77.5737C117.645 77.6466 117.732 77.588 118.075 77.1372C118.551 76.5076 118.595 76.2867 118.317 75.9087C118.138 75.6656 118.139 75.5821 118.317 75.3958C118.433 75.2728 118.594 75.217 118.677 75.269C118.922 75.4234 119.178 75.2348 119.211 74.8792C119.235 74.6208 119.287 74.5518 119.452 74.5468C119.616 74.5424 119.651 74.4901 119.618 74.311C119.562 74.0054 119.934 73.7926 120.269 73.9372C120.411 73.9992 120.708 73.99 120.927 73.9146C121.314 73.7843 121.329 73.7615 121.468 73.1232C121.638 72.3373 121.715 72.2412 122.061 72.3675C122.207 72.4198 122.357 72.3817 122.401 72.2829C122.428 72.2319 122.468 72.1895 122.518 72.1607C122.567 72.1318 122.624 72.1176 122.682 72.1198C122.936 72.1401 123.342 71.9015 123.443 71.67C123.485 71.5726 123.423 71.3624 123.305 71.2012C123.05 70.8553 123.13 70.721 123.516 70.8484C123.737 70.9197 123.813 70.8837 123.873 70.6753C123.967 70.3597 124.615 69.9688 124.826 70.1023C125.07 70.2567 125.19 69.9669 125.027 69.6149C124.872 69.2868 124.882 69.259 125.3 68.8999C125.716 68.5415 125.73 68.5061 125.613 68.0999C125.544 67.8601 125.555 67.7086 125.612 67.6647C125.668 67.628 125.774 67.6984 125.882 67.9166C125.994 68.1446 126.083 68.1782 126.317 68.0758C126.648 67.9279 127.323 67.4851 127.874 67.0509C128.338 66.6864 128.454 66.6639 128.532 66.9152C128.575 67.0513 128.703 67.0659 128.929 66.9648C129.112 66.8822 129.29 66.8506 129.322 66.894C129.353 66.9373 129.605 66.7379 129.879 66.4508C129.924 66.4025 129.944 66.3954 129.984 66.3556L120.473 53.426C120.592 53.9338 120.734 54.4057 120.81 54.5084C120.911 54.646 120.912 54.7759 120.81 54.8833C120.724 54.974 120.624 55.2382 120.588 55.4721C120.517 55.9484 120.502 55.9754 120.336 55.9626C120.271 55.9569 120.046 56.1235 119.836 56.3317C119.418 56.7484 118.992 56.8132 118.695 56.5077C118.557 56.3662 118.402 56.3861 118.086 56.5832C117.673 56.8434 117.453 56.8984 117.353 56.7627C117.227 56.5938 116.725 56.5683 116.429 56.7132C115.994 56.9282 115.066 58.3885 115.226 58.6062C115.256 58.6477 115.132 58.8932 114.947 59.1487C114.761 59.4041 114.56 59.7977 114.5 60.0221C114.404 60.3773 114.345 60.447 114.048 60.5449C113.73 60.6505 113.673 60.6142 113.252 60.0613C112.963 59.6826 112.626 59.3802 112.326 59.2307C111.983 59.0588 111.743 58.8314 111.456 58.4003C111.011 57.73 110.953 57.5387 111.166 57.4447C111.246 57.4101 111.307 57.2595 111.303 57.1116C111.298 56.9637 111.353 56.7812 111.423 56.7081C111.492 56.635 111.655 56.3719 111.786 56.1215C111.972 55.7624 111.99 55.5501 111.881 55.1351C111.803 54.8437 111.786 54.5951 111.842 54.5844C111.898 54.5736 111.945 54.3197 111.945 54.0202C111.946 53.4848 112.203 53.0318 112.452 53.1232C112.657 53.1998 112.698 53.0728 112.614 52.5956C112.569 52.3469 112.595 52.0797 112.668 52.0022C112.75 51.9159 112.741 51.841 112.657 51.8088C112.554 51.7714 112.597 51.7018 112.808 51.5725C113.013 51.4424 113.205 51.2945 113.384 51.1304C113.754 50.7793 113.851 50.8099 113.957 51.3098C114.047 51.7318 114.048 51.7337 114.621 51.6133C114.935 51.5474 115.225 51.4593 115.262 51.4189C115.346 51.3306 115.068 50.7334 114.729 50.2716C114.593 50.0878 114.49 49.795 114.498 49.6205C114.5 49.5455 114.507 49.4899 114.518 49.4536C114.526 49.4259 114.54 49.4093 114.558 49.4037C114.614 49.3855 114.729 49.4666 114.968 49.6495C115.234 49.8522 115.472 49.9438 115.542 49.8708C115.649 49.7589 116.246 50.1202 116.481 50.4397C116.529 50.5056 116.741 50.5212 116.951 50.4744C117.161 50.427 117.356 50.419 117.383 50.4567C117.411 50.4944 117.607 50.5334 117.817 50.5444C118.027 50.5539 118.231 50.6033 118.27 50.6554C118.287 50.678 118.409 50.6924 118.479 50.7155L115.504 46.6724C115.442 46.848 115.341 47.0071 115.208 47.1377C114.744 47.5542 114.867 47.7804 115.543 47.7478C115.853 47.7331 116.114 47.7779 116.125 47.8482C116.159 48.0835 115.521 48.4164 115.029 48.4177C114.453 48.4203 114.368 48.486 114.446 48.8787C114.515 49.2247 114.208 49.6057 113.905 49.5453C113.766 49.5202 113.629 49.6109 113.496 49.8177C113.274 50.168 113.222 50.1484 113.158 49.6985C113.122 49.4637 113.071 49.3939 112.925 49.3818C112.722 49.3659 111.98 49.6923 111.798 49.8797C111.67 50.01 111.423 49.9915 111.012 49.8218C110.773 49.7218 110.735 49.67 110.775 49.4995C110.823 49.4466 110.89 49.3454 110.969 49.2462L110.971 49.2449C111.041 49.1473 111.129 49.0641 111.231 48.9999L111.239 48.9911L111.24 48.993C111.309 48.9466 111.486 48.9826 111.634 49.0781L111.906 49.25L111.993 48.8055L112.075 48.3586L112.929 47.9146C113.423 47.6575 113.943 47.4883 114.161 47.5113C114.463 47.5431 114.577 47.4852 114.74 47.2188C114.852 47.035 114.985 46.8277 115.034 46.7582C115.085 46.688 115.132 46.486 115.14 46.3089C115.142 46.2591 115.159 46.2508 115.165 46.2106L102.577 29.0994C102.469 29.2344 102.393 29.2697 102.315 29.1642C102.265 29.0954 102.224 29.0716 102.168 29.1057ZM79.0944 51.7282C79.0167 51.8101 79.0571 51.8689 79.2625 51.9764C79.4995 52.1012 79.7655 51.9157 79.6247 51.7244C79.5415 51.6113 79.2031 51.6133 79.0944 51.7282ZM105.752 33.9113C105.775 33.9014 105.804 33.9082 105.827 33.9403C105.867 33.995 105.862 34.1271 105.814 34.2378C105.759 34.3609 105.706 34.3796 105.672 34.284C105.62 34.1389 105.679 33.9436 105.752 33.9113ZM105.511 34.4854C105.643 34.3458 105.711 34.6665 105.628 35.0413C105.584 35.238 105.521 35.3364 105.476 35.2751C105.376 35.1394 105.4 34.6016 105.511 34.4854ZM78.7169 54.5419C78.6987 54.5456 78.682 54.5547 78.669 54.5679C78.656 54.5811 78.6471 54.5979 78.6437 54.6161C78.6201 54.7105 78.6972 54.7975 78.8558 54.8551C79.1233 54.9503 79.1124 54.7419 78.843 54.5712C78.8063 54.5462 78.7608 54.5352 78.7169 54.5419ZM77.8861 55.5075C78.0357 55.3495 78.2103 55.5493 78.1941 55.8649C78.1784 56.1872 78.0425 56.2887 77.9636 56.0373C77.9263 55.9195 77.867 55.7816 77.8288 55.7297C77.7921 55.6798 77.8167 55.5789 77.8861 55.5075ZM88.9033 51.8648C88.8496 51.9223 88.8113 51.9925 88.7919 52.0687C88.6804 52.4325 88.9097 52.7955 89.1522 52.6374C89.3641 52.499 89.3538 52.5501 89.2766 52.1886C89.2088 51.8594 89.036 51.741 88.9052 51.8634L88.9033 51.8648ZM87.2987 53.125C87.2013 53.1662 87.1157 53.2311 87.0499 53.3139C86.8044 53.5962 86.6171 54.2815 86.7047 54.5802C86.7873 54.8623 87.3385 55.2048 87.9172 55.334C88.2231 55.4023 88.4361 55.4984 88.3874 55.5487C88.3387 55.599 88.3274 55.7831 88.3612 55.9573C88.4153 56.2283 88.4818 56.2694 88.837 56.2565C89.064 56.2493 89.2805 56.1684 89.3237 56.0771C89.3643 55.989 89.4157 55.9063 89.4767 55.8309C89.592 55.7112 89.2525 55.303 88.9599 55.2074C88.8178 55.1623 88.5892 54.9878 88.4499 54.8201C88.2943 54.6324 88.0043 54.487 87.701 54.4458C87.3773 54.4007 87.2296 54.3263 87.2783 54.2266C87.3293 54.092 87.3593 53.9504 87.3673 53.8066C87.3773 53.7222 87.404 53.6406 87.4457 53.5665C87.4874 53.4924 87.5435 53.4273 87.6105 53.375C87.8288 53.2217 87.8264 53.2046 87.567 53.1224C87.4799 53.0922 87.3851 53.0931 87.2987 53.125ZM84.4474 56.1813C84.3909 56.2289 84.3446 56.2875 84.3113 56.3535C84.2779 56.4194 84.2582 56.4914 84.2534 56.5651C84.239 56.8517 84.2544 56.8548 84.4605 56.6394C84.5831 56.5099 84.6725 56.3352 84.6588 56.2495C84.639 56.11 84.5405 56.1084 84.4474 56.1813ZM83.5946 57.3243C83.493 57.4033 83.3984 57.5412 83.4008 57.6629C83.4031 57.7847 83.4736 58.1904 83.5541 58.5625C83.6849 59.1548 83.7325 59.2432 83.9343 59.2589C84.2252 59.2831 84.5083 58.979 84.5777 58.5678C84.6463 58.1556 85.0222 57.7643 85.3239 57.7893C85.5909 57.8107 86.1706 57.2521 86.2487 56.8983C86.2908 56.7047 86.212 56.6668 85.7851 56.6729C84.9644 56.6826 84.6066 56.8282 84.4686 57.2013C84.3741 57.4539 84.2972 57.5133 84.0931 57.4964C83.9526 57.4851 83.828 57.4125 83.8161 57.3371C83.8005 57.2251 83.6953 57.2459 83.5953 57.3252M88.5587 54.5396C88.5503 54.5651 88.5566 54.5934 88.5776 54.6245C88.6212 54.6838 88.693 54.6906 88.7389 54.6424C88.7847 54.5941 88.8086 54.5358 88.7906 54.5113C88.7726 54.4868 88.6987 54.4772 88.6279 54.4916C88.591 54.4993 88.568 54.5153 88.5587 54.5396ZM80.207 61.1265C80.1945 61.143 80.2084 61.2053 80.243 61.3295C80.2912 61.5042 80.3819 61.5866 80.515 61.5767C80.6258 61.5693 80.875 61.6199 81.0705 61.6881C81.2659 61.7564 81.4429 61.7482 81.4626 61.6684C81.483 61.5894 81.5714 61.5694 81.6601 61.6248C81.7501 61.682 81.9116 61.6823 82.0181 61.6258C82.2151 61.5244 82.5579 61.6586 82.5488 61.8338C82.5466 61.8862 82.436 61.9313 82.304 61.9354C82.087 61.9425 82.0831 61.957 82.2798 62.0999C82.435 62.2123 82.4953 62.3771 82.4806 62.6494C82.4707 62.8629 82.4947 63.0792 82.5328 63.131C82.6728 63.3214 82.5198 63.5182 82.1517 63.6278C81.7094 63.7571 81.5715 63.5302 81.8829 63.1893C82.2568 62.7835 82.1884 62.4911 81.7173 62.4745C81.4927 62.4654 81.2745 62.4966 81.2308 62.5419C81.141 62.637 80.2176 62.5072 80.0074 62.3714C79.8955 62.2983 79.8288 62.4011 79.699 62.8408C79.5783 63.2492 79.473 63.4181 79.3173 63.4572C79.0501 63.5244 78.9855 63.7506 79.1637 63.9928C79.2379 64.0936 79.2556 64.4336 79.2037 64.7521C79.1433 65.1161 79.1728 65.4168 79.2809 65.5639C79.5326 65.906 79.4789 66.6761 79.1768 67.061C79.0354 67.242 78.9524 67.4352 78.9933 67.4909C79.1264 67.6718 79.6477 67.0516 79.7827 66.5499C79.9118 66.07 81.2488 64.2426 81.5754 64.0982C81.7464 64.0247 82.2274 64.6469 82.1718 64.8694C82.1115 65.1113 82.5974 65.0254 82.8688 64.7488C83.0192 64.6086 83.218 64.5321 83.4235 64.5353C83.9492 64.5786 84.5491 64.2607 84.3785 64.0289C84.1269 63.6868 84.4208 62.8721 84.7959 62.8765C84.8745 62.8767 85.2128 62.7325 85.5431 62.5534C85.9988 62.3082 86.1961 62.1282 86.3623 61.823C86.4844 61.598 86.6435 61.4273 86.7188 61.4329C86.9526 61.4526 87.1559 60.9312 87.0481 60.5893C86.9917 60.41 86.8109 60.0812 86.6479 59.8597C86.3734 59.4865 86.3405 59.4773 86.219 59.7308C86.1451 59.881 86.005 60.0756 85.9057 60.1617C85.8063 60.2478 85.6271 60.4247 85.5044 60.5542C85.176 60.8975 84.72 61.0674 84.591 60.8921C84.5286 60.8072 84.4371 60.7816 84.3844 60.8363C84.3355 60.8883 84.2448 60.8243 84.1872 60.6866C84.1292 60.5506 84.0501 60.4708 84.0123 60.5102C83.9745 60.5496 83.899 60.4687 83.8417 60.3336C83.7614 60.1414 83.6955 60.1289 83.554 60.278C83.4533 60.384 83.4282 60.4882 83.4986 60.5148C83.5684 60.5405 83.5868 60.6504 83.5399 60.7604C83.4373 60.9942 83.5915 61.2511 83.7782 61.1574C83.9541 61.0687 84.1472 61.894 83.9894 62.0565C83.8523 62.198 83.3933 62.0913 83.2352 61.8764C83.1712 61.7913 82.9608 61.6831 82.7684 61.6388C82.5767 61.5954 82.3454 61.4605 82.2552 61.338C82.1447 61.1917 81.8874 61.1467 81.4833 61.2029C81.1499 61.2492 80.83 61.223 80.7724 61.1448C80.7121 61.0628 80.6357 61.0754 80.5908 61.1782C80.5453 61.2843 80.442 61.2978 80.3403 61.2129C80.2611 61.1448 80.2214 61.1144 80.207 61.1265ZM80.0594 62.7384C80.2112 62.5004 81.0968 63.6746 80.9758 63.9525C80.9304 64.0585 80.8298 64.1035 80.7535 64.055C80.461 63.8707 79.9528 62.9054 80.0594 62.7384ZM104.563 45.3759C104.591 45.3408 104.635 45.3583 104.711 45.4068C104.904 45.529 105.245 46.3969 105.141 46.505C105.103 46.5444 104.999 46.5294 104.907 46.471C104.606 46.2803 104.477 46.0147 104.509 45.6539C104.523 45.4953 104.536 45.4093 104.563 45.3759ZM79.6171 64.6862C79.6474 64.6581 79.6782 64.6427 79.7066 64.6538C79.857 64.7101 79.8584 65.0141 79.7082 65.0883C79.6325 65.1237 79.5441 65.1161 79.5109 65.0708C79.4485 64.986 79.5263 64.7719 79.6171 64.6862ZM105.611 47.1355C105.638 47.1117 105.678 47.0863 105.73 47.0592C106.018 46.9055 105.966 46.9008 106.221 47.0904C106.285 47.1378 106.335 47.2014 106.366 47.2747C106.397 47.348 106.408 47.4283 106.397 47.5071C106.348 47.8947 106.448 47.9518 106.782 47.7323C107.011 47.5814 107.121 47.5906 107.255 47.7734C107.422 47.9996 107.415 48.0162 107.101 48.108C106.92 48.1609 106.772 48.2512 106.771 48.3114C106.77 48.3699 106.832 48.3901 106.909 48.355C106.974 48.3204 107.046 48.2999 107.12 48.295C107.194 48.2901 107.268 48.3008 107.338 48.3265C107.407 48.3521 107.47 48.3922 107.523 48.4439C107.576 48.4957 107.618 48.5581 107.645 48.627C107.791 48.9639 107.94 48.8852 107.96 48.4633C107.983 48.0165 108.407 48.1924 108.772 48.7953C108.897 49.0001 108.816 49.2263 108.56 49.3948C108.464 49.458 108.333 49.4364 108.271 49.3516C108.186 49.2366 108.115 49.2718 107.995 49.482C107.874 49.6919 107.801 49.7236 107.716 49.6076C107.652 49.5209 107.64 49.3668 107.685 49.2641C107.757 49.0976 107.733 49.0647 107.484 48.9908C107.325 48.942 107.182 48.8517 107.07 48.7293C106.997 48.6303 106.905 48.5845 106.863 48.6284C106.748 48.749 105.802 48.0609 105.875 47.9114C105.908 47.8436 105.837 47.6536 105.715 47.4877C105.568 47.2889 105.531 47.2104 105.611 47.1355ZM90.2535 58.6205C90.2212 58.642 90.1963 58.673 90.1823 58.7092C90.1662 58.7545 90.1723 58.8081 90.2118 58.8618C90.2672 58.9372 90.4605 59.0202 90.6395 59.0425C90.8185 59.0647 90.9991 59.1265 91.0407 59.1831C91.0823 59.2396 91.1531 59.1977 91.2 59.0935C91.2595 58.9553 91.3342 58.9759 91.4756 59.1681C91.7446 59.5338 92.0516 59.1889 92.0739 58.4927L92.0892 57.9586L91.8988 58.2526C91.6685 58.6109 91.0306 58.8041 90.6945 58.6157C90.6273 58.5769 90.5509 58.5569 90.4733 58.5577C90.3958 58.5586 90.3199 58.5803 90.2535 58.6205ZM87.8983 62.0017C87.8903 62.0075 87.8836 62.015 87.8787 62.0236C87.8738 62.0323 87.8707 62.0418 87.8698 62.0517C87.8628 62.1745 88.4419 62.4878 89.4419 62.9054C89.5876 62.9653 89.7797 63.1159 89.8701 63.2368C89.9603 63.3593 90.0922 63.4438 90.1646 63.4297C90.237 63.4157 90.4611 63.4992 90.6608 63.6166C90.8612 63.735 91.1203 63.7812 91.2384 63.7205C91.3566 63.6582 91.5224 63.6524 91.608 63.7057C91.8918 63.892 91.8685 63.6985 91.567 63.4308C91.1875 63.0926 90.2942 62.7273 90.0806 62.8219C89.9911 62.8602 89.8343 62.7794 89.731 62.639C89.6091 62.4876 89.4345 62.3878 89.2422 62.3595C89.0701 62.3438 88.9037 62.2901 88.7548 62.2024C88.4916 62.0184 88.0166 61.9176 87.8983 62.0017ZM106.632 49.0542C106.76 48.919 106.917 49.3831 106.884 49.7965C106.84 50.3479 106.702 50.5521 106.637 50.1656C106.575 49.7946 106.572 49.1171 106.632 49.0542ZM78.6505 71.1593C78.6963 71.111 78.7679 71.1136 78.8067 71.1664C78.8449 71.2182 78.8574 71.3281 78.8365 71.4102C78.8154 71.4941 78.7473 71.4904 78.6836 71.4037C78.6205 71.3179 78.6046 71.2075 78.6505 71.1593ZM106.766 50.5157L107.249 50.493L107.735 50.4666L107.691 50.8474C107.65 51.2128 107.663 51.2314 108.007 51.3734C108.231 51.4653 108.332 51.5552 108.273 51.6173C108.239 51.6524 108.238 51.6839 108.252 51.7028C108.252 51.7086 108.224 52.0542 108.22 52.0795C108.264 52.2173 108.321 52.3507 108.391 52.4779C108.397 52.5215 108.396 52.5557 108.403 52.5995C108.526 53.2601 108.526 53.2568 107.837 53.8046C107.709 53.9063 107.532 54.051 107.445 54.1264C107.424 54.1447 107.4 54.1584 107.374 54.1666C107.348 54.1748 107.32 54.1774 107.293 54.1742C107.265 54.171 107.239 54.162 107.215 54.1479C107.192 54.1338 107.171 54.1149 107.156 54.0924C106.896 53.8956 106.635 53.7494 106.338 53.4549C106.334 53.4343 106.33 53.4228 106.328 53.3998C106.275 53.1934 106.303 53.0219 106.393 52.9829C106.478 52.9456 106.543 52.7957 106.539 52.6487C106.536 52.5017 106.58 52.3252 106.642 52.261C106.704 52.1951 106.729 52.0081 106.697 51.8459C106.665 51.6837 106.688 51.4981 106.751 51.4315C106.812 51.3672 106.841 51.133 106.815 50.914L106.766 50.5157ZM78.3235 71.5756C78.3635 71.551 78.4136 71.533 78.474 71.5215C78.6289 71.4933 78.6655 71.5331 78.6556 71.7191C78.6479 71.8903 78.6212 71.9231 78.5581 71.8373C78.5082 71.7694 78.4346 71.8076 78.3822 71.926C78.322 72.0652 78.2713 72.0754 78.2303 71.9564C78.1894 71.8403 78.1902 71.7439 78.2325 71.6672C78.2538 71.6284 78.2847 71.5971 78.3235 71.5756ZM107.816 49.9519C107.866 49.9008 107.938 49.906 107.979 49.9616C108.02 50.0172 108.036 50.0791 108.016 50.1011C107.996 50.1216 107.924 50.1181 107.854 50.0924C107.786 50.066 107.768 50.0022 107.816 49.9519ZM109.669 49.5052C109.722 49.4378 109.839 49.4389 110.004 49.5277L110.288 49.6822C110.288 49.8212 110.274 49.9496 110.286 50.0753C110.271 50.0738 110.058 50.2866 109.777 50.0547C109.772 49.9944 109.756 49.9356 109.728 49.8816C109.632 49.7045 109.617 49.5726 109.669 49.5052ZM114.588 46.045C114.633 45.9974 114.706 46.0051 114.746 46.0598C114.766 46.0875 114.776 46.1213 114.775 46.1555C114.773 46.1898 114.76 46.2226 114.738 46.2486C114.691 46.2975 114.621 46.291 114.581 46.2363C114.54 46.1807 114.542 46.0932 114.588 46.045ZM113.893 46.6011C113.965 46.5267 114.035 46.5332 114.047 46.6187C114.06 46.7035 114.035 46.8126 113.992 46.8587C113.948 46.9049 113.879 46.8935 113.838 46.8379C113.797 46.7823 113.821 46.6763 113.893 46.6011ZM109.298 50.1156C109.366 50.0874 109.424 50.1633 109.43 50.345C109.431 50.3969 109.443 50.4272 109.448 50.4539L109.249 50.7467C109.088 51.0017 108.846 51.2494 108.846 51.5405C108.883 51.5914 108.97 51.5292 109.04 51.4035C109.06 51.3665 109.056 51.3566 109.071 51.3221L109.145 51.2245L109.438 50.9946L109.439 51.0326C109.428 51.0818 109.404 51.1326 109.399 51.1813C109.371 51.4389 109.414 51.6354 109.5 51.6577C109.581 51.6793 109.708 51.7907 109.789 51.9009C109.972 52.1657 109.755 52.5126 109.526 52.3253C109.416 52.2349 109.428 52.2886 109.553 52.4784C109.703 52.6995 109.712 52.803 109.582 52.8929C109.488 52.9589 109.343 52.9234 109.263 52.8141C109.186 52.708 109.085 52.6218 108.969 52.5626C108.887 52.5342 108.766 52.3501 108.704 52.1542C108.656 52.0021 108.632 51.9607 108.603 51.8977C108.572 51.801 108.446 51.3884 108.432 51.3696L108.425 51.3852C108.429 51.2737 108.462 51.1652 108.52 51.0699C108.578 50.9746 108.659 50.8957 108.756 50.8407C108.922 50.7304 109.094 50.5181 109.141 50.3678C109.16 50.3007 109.19 50.2369 109.228 50.1786C109.245 50.1516 109.269 50.1298 109.298 50.1156ZM103.266 55.0072L103.27 55.0044C103.435 54.8831 103.735 54.7832 104.087 54.7523C104.592 54.7087 104.947 54.6523 105.235 54.5757C105.6 54.6881 105.763 54.8585 106.024 54.6288C106.109 54.4342 106.5 54.4018 106.633 54.5818C106.675 54.6393 106.747 54.6025 106.792 54.4981C106.838 54.393 106.913 54.3609 106.964 54.4297C107.022 54.5089 106.967 54.606 106.799 54.7076C106.57 54.8485 106.567 54.8973 106.76 55.1603C107.003 55.4901 107.25 55.404 107.933 54.7506C108.147 54.5471 108.371 54.4182 108.437 54.4625C108.501 54.5074 108.625 54.4685 108.713 54.3757C108.815 54.269 108.927 54.2768 109.017 54.3993C109.14 54.5661 109.107 54.6307 108.763 54.9088C108.545 55.0848 108.273 55.2585 108.162 55.2926C108.001 55.3572 107.856 55.4569 107.738 55.5845C107.6 55.7217 107.432 55.8258 107.249 55.8891C106.86 55.9973 105.461 55.9029 105.114 55.7455L104.819 55.612L104.536 55.491L104.53 55.4834C104.525 55.4801 104.506 55.4865 104.503 55.4818L104.499 55.4761C104.402 55.4413 104.216 55.4531 104.047 55.5211C103.696 55.6627 103.369 55.5827 103.165 55.3056C103.123 55.249 103.122 55.1887 103.152 55.1304C103.179 55.0808 103.218 55.0385 103.265 55.007M111.031 50.1159C111.121 50.0827 111.191 50.0996 111.242 50.1666C111.322 50.2749 110.49 51.2721 110.331 51.258C110.146 51.2432 110.187 51.0652 110.471 50.6616C110.556 50.5407 110.638 50.4388 110.716 50.3559C110.803 50.2544 110.91 50.1726 111.031 50.1159ZM111.104 51.9346L111.106 51.9332C111.193 51.8545 111.294 51.8531 111.378 51.9681C111.429 52.0411 111.386 52.3308 111.283 52.6114C111.054 53.2334 111.014 53.2817 110.872 53.0885C110.811 53.0056 110.793 52.9041 110.83 52.8653C110.867 52.8266 110.912 52.6101 110.93 52.3851C110.947 52.1777 111.016 52.0166 111.104 51.9346ZM110.436 52.879C110.76 52.6379 110.665 52.949 110.083 53.6136C109.631 54.1289 109.484 54.2429 109.438 54.1128C109.396 53.9968 109.563 53.7494 109.976 53.3102C110.175 53.1029 110.328 52.9591 110.436 52.879ZM92.3638 68.7155C92.2391 68.848 92.3075 69.2116 92.4605 69.224C92.572 69.2335 92.64 68.8087 92.5478 68.6833C92.5118 68.6343 92.4276 68.6483 92.3638 68.7155ZM97.2171 68.2739C97.293 68.2093 97.4236 68.1874 97.559 68.249C97.843 68.3785 98.1346 68.761 98.2585 69.1723C98.3101 69.345 98.545 69.9566 98.7804 70.5314C99.1251 71.373 99.1793 71.6323 99.0751 71.8717C98.8829 72.3094 98.7372 72.4253 98.5093 72.3169C98.0622 72.1041 97.7821 71.7727 97.6924 71.3506C97.641 71.1169 97.5269 70.8769 97.4353 70.8194C97.1054 70.6118 96.9996 70.1087 97.188 69.6461C97.2879 69.3969 97.3188 69.1229 97.2557 69.0372C97.1926 68.9514 97.1765 68.8427 97.2223 68.7944C97.2682 68.7462 97.2573 68.6365 97.1955 68.5527C97.1158 68.4443 97.1402 68.3392 97.2171 68.2739ZM96.1163 69.1607C96.1453 69.1607 96.1758 69.1823 96.2077 69.2257C96.338 69.4028 96.3066 69.4826 96.1315 69.4183C96.0683 69.3936 96.0323 69.3053 96.0528 69.2205C96.0652 69.1794 96.0868 69.1601 96.1163 69.1607ZM96.4427 69.1108L96.4446 69.1094C96.4847 69.0873 96.5305 69.0774 96.5761 69.081C96.8142 69.1005 96.8066 69.26 96.5642 69.3076C96.4604 69.3303 96.3805 69.283 96.3847 69.2058C96.3849 69.1665 96.409 69.1342 96.4427 69.1108ZM99.9046 69.013C99.9148 69.0015 99.9276 68.9924 99.9418 68.9866C99.9561 68.9807 99.9715 68.9782 99.9868 68.9793C100.002 68.9803 100.017 68.9849 100.03 68.9926C100.044 69.0003 100.055 69.011 100.064 69.0238C100.084 69.052 100.093 69.0862 100.091 69.1208C100.089 69.1553 100.076 69.1881 100.052 69.2137C100.006 69.262 99.9363 69.2555 99.8961 69.2008C99.8763 69.1731 99.8663 69.1395 99.8679 69.1054C99.8694 69.0714 99.8824 69.0388 99.9046 69.013ZM117.724 56.3447C117.7 56.371 117.686 56.4043 117.684 56.4394C117.681 56.4746 117.691 56.5095 117.711 56.5386C117.751 56.5932 117.802 56.6227 117.822 56.6023C117.842 56.5803 117.847 56.489 117.835 56.4035C117.822 56.3187 117.771 56.2934 117.724 56.3447ZM121.029 56.0062C121.199 55.859 121.253 55.914 121.42 56.1411C121.649 56.4521 121.683 57.008 121.487 57.2149C121.431 57.2743 121.214 57.2236 121.006 57.1007C120.41 56.7505 120.389 56.6602 120.809 56.2214C120.879 56.1465 120.953 56.0747 121.029 56.0062ZM102.705 105.285L104.323 107.485C105.036 106.11 105.867 104.8 106.805 103.568C110.064 99.2821 114.806 94.7915 119.724 90.5897C125.471 85.6949 131.457 81.0884 137.661 76.7871L135.859 74.3367C124.088 82.593 109.332 94.0908 102.705 105.285ZM19.3433 69.3794C16.91 71.1519 16.3729 71.5907 15.3258 72.3944L60.38 133.639C66.3332 128.997 72.513 124.653 78.8968 120.624C84.3722 117.18 90.0709 113.99 95.1315 112.154C96.5873 111.625 98.086 111.223 99.611 110.952L55.4602 50.9353C55.3155 50.7425 55.114 50.5436 53.9377 50.5578C52.7598 50.5717 50.9044 50.9737 48.7484 51.7608C44.4383 53.3396 38.9191 56.3627 33.6016 59.6819C28.2841 63.001 23.1492 66.6057 19.3433 69.3794ZM43.7713 55.2958C44.3042 54.8849 44.9397 54.4378 45.6939 53.9526C47.508 52.7837 49.1743 52.4918 50.3586 52.0462C53.1117 51.0086 54.1023 51.054 54.3429 51.0513C54.7597 51.0454 54.9817 51.2306 54.8266 51.4522C54.7749 51.528 54.8445 51.5219 54.9807 51.4405C55.1887 51.3166 55.271 51.3534 55.4928 51.6549C55.6766 51.9047 55.7083 52.0426 55.596 52.115C55.4846 52.1868 55.5123 52.3291 55.6912 52.5722C55.8327 52.7645 55.9065 52.9833 55.8538 53.0598C55.7777 53.1695 55.7853 53.1799 55.8968 53.1182C56.1026 53.0031 56.5775 53.6981 56.4322 53.8994C56.2668 54.1286 56.4062 54.2628 56.7059 54.1628C56.9702 54.0759 57.2366 54.2997 57.1329 54.5241C57.1002 54.5961 56.9449 54.6653 56.7861 54.6805C56.5823 54.6997 56.4975 54.7562 56.5045 54.8644C56.5098 54.9506 56.6333 54.9802 56.7805 54.9315C56.9523 54.8749 57.1077 54.9261 57.2186 55.0769C57.4439 55.3832 57.0654 55.8243 56.6267 55.7651C56.3521 55.7274 56.3196 55.7543 56.2803 56.0562C56.2379 56.3837 56.2426 56.3861 56.5075 56.1302C56.8792 55.7725 57.3371 55.7988 57.4454 56.1868L57.5265 56.4787L57.0301 56.4081C56.2411 56.2913 56.4142 56.5009 57.2307 56.6512C57.6353 56.7254 57.9558 56.7918 57.9419 56.8005C57.929 56.8086 58.1087 57.0075 58.3408 57.2421L58.7625 57.6653L58.3098 57.8792C58.0546 58.0002 57.9131 58.1159 57.9844 58.1477C58.0553 58.1769 58.2332 58.1245 58.3786 58.032C58.5208 57.939 58.6789 57.9229 58.7274 57.9947C58.8983 58.2467 58.4242 59.6122 57.9692 60.1764C57.3163 60.9849 57.2907 61.043 57.3852 61.5762C57.4911 62.1781 57.3113 62.7592 56.8996 63.1492C56.7204 63.3202 56.63 63.5132 56.6896 63.5942C56.7471 63.6724 56.758 63.7603 56.7145 63.788C56.6709 63.8156 56.7458 64.0162 56.8812 64.2318C57.0179 64.4493 57.1236 64.7114 57.1145 64.8155C57.1063 64.9188 57.1529 65.0138 57.2188 65.0263C57.2856 65.0382 57.2579 65.0992 57.1623 65.1608C57.051 65.2326 57.0509 65.3154 57.1607 65.3857C57.2565 65.4488 57.4473 65.7674 57.5831 66.0961C57.8092 66.6385 57.8032 66.7112 57.5275 66.8893C57.3159 67.0261 57.1588 67.0357 57.0007 66.9196C56.8447 66.8063 56.7052 66.8101 56.5543 66.9386C56.4861 66.9911 56.4081 67.0294 56.3248 67.0512C56.2416 67.073 56.1548 67.0779 56.0696 67.0656C55.6922 66.983 54.4451 66.3144 54.0915 66.0036C53.9039 65.8439 53.6943 65.7119 53.4692 65.6118C52.6944 65.303 51.8377 63.8678 52.1925 63.4775C52.2838 63.3784 52.2553 63.1699 52.1153 62.9243C51.9264 62.5926 51.8534 62.5505 51.6305 62.6404C51.4289 62.7218 51.4099 62.7809 51.5544 62.8983C51.8245 63.1193 51.3892 63.5543 50.974 63.4777C50.6808 63.4247 50.6589 63.3929 50.6018 62.9323C50.5442 62.4808 50.5721 62.4298 50.9768 62.2396L51.4135 62.0316L50.9845 61.9696C50.748 61.9344 50.5549 61.8615 50.5549 61.8063C50.5559 61.7503 50.5352 61.7874 50.5062 61.8901C50.4341 62.1494 50.0896 62.3505 49.9611 62.2054C49.7445 61.9623 49.598 61.6387 49.6132 61.4402C49.6241 61.2971 49.545 61.1897 49.3497 61.0821C48.9884 60.8831 47.9733 60.1193 47.8526 59.9553C47.8013 59.8855 47.6268 59.8004 47.4659 59.7633C47.2782 59.7132 47.1042 59.6212 46.9571 59.4942C46.6954 59.251 46.783 59.2635 46.0142 59.3556L45.388 59.4284L45.1749 59.8713C44.9979 60.2368 44.8882 60.3306 44.5523 60.415C44.1287 60.5204 43.6434 60.3661 43.6279 60.1219C43.6223 60.0432 43.4625 60.0155 43.2712 60.0575C42.8345 60.155 42.6706 59.9401 42.8202 59.4742L42.9359 59.116L42.4412 59.1604C41.3522 59.2615 40.0401 58.1729 43.7713 55.2958ZM32.067 65.1915C32.4609 64.9293 32.7453 64.7709 32.6988 64.84C32.6526 64.9074 32.7207 65.0592 32.8497 65.1793C33.0357 65.3533 33.0409 65.457 32.8745 65.6869C32.6057 66.056 32.6289 66.0462 32.3031 65.9329C32.1379 65.8797 31.9626 65.8659 31.7912 65.8926C31.661 65.923 31.5081 65.883 31.4527 65.8076C31.3778 65.7058 31.5403 65.5397 32.067 65.1915ZM34.8446 63.3835C35.2738 63.0765 35.5071 63.0994 35.3577 63.4374C35.2347 63.7124 34.7374 64.0157 34.5084 63.9532C34.237 63.8784 34.3018 63.7711 34.8446 63.3835ZM35.8248 62.7336C36.1831 62.502 36.2893 62.4805 36.3295 62.6339C36.3642 62.7614 36.4453 62.784 36.5727 62.7019C36.8232 62.5409 36.9729 62.5745 37.0333 62.7988C37.0994 63.0465 36.691 63.2772 36.2716 63.2284C36.0616 63.2026 35.8535 63.1625 35.6489 63.1085C35.3942 63.0329 35.4093 63 35.8232 62.7333M33.6729 64.4996C33.7005 64.3515 34.267 64.478 34.4479 64.6746C34.7795 65.0306 34.4947 65.1587 34.0626 64.8477C33.8415 64.6893 33.6663 64.5321 33.6729 64.4996ZM31.3692 66.2844C31.4227 66.2683 31.5072 66.2904 31.6532 66.3427C31.8603 66.417 31.9615 66.5052 31.9087 66.5716C31.8611 66.6313 31.9262 66.7751 32.0494 66.8893C32.174 67.0054 32.2432 67.1665 32.206 67.2462C32.1687 67.3259 32.199 67.4678 32.2709 67.5616C32.3909 67.7188 32.3987 67.7116 32.3784 67.4825C32.3534 67.2176 32.7229 66.8906 32.8505 67.064C32.8921 67.1206 32.9995 67.1185 33.092 67.0607C33.1822 67.0016 33.4402 67.0384 33.6653 67.143C33.9076 67.2552 34.1606 67.2753 34.2868 67.1941C34.4502 67.0884 34.4503 67.055 34.288 67.0596C34.1696 67.0624 34.0698 66.9979 34.065 66.9143C34.0618 66.8733 34.0428 66.8351 34.0119 66.8079C33.9811 66.7807 33.9408 66.7666 33.8997 66.7686C33.6565 66.7776 33.5476 66.5526 33.6073 66.15C33.6628 65.7693 33.9355 65.6326 34.0178 65.9439C34.0431 66.0415 34.136 66.1184 34.2219 66.1147C34.3095 66.1113 34.4044 66.191 34.4311 66.2905C34.4641 66.4144 34.5601 66.4164 34.7399 66.3016C35.0506 66.102 35.4392 66.265 35.6064 66.662C35.7218 66.9373 35.7302 66.9369 35.7441 66.6478C35.7597 66.3531 35.7635 66.3503 36.0484 66.4908C36.2079 66.5695 36.3146 66.6552 36.2886 66.683C36.185 66.7767 36.0791 66.8677 35.9708 66.956C35.2351 67.567 34.9317 67.9049 34.8008 68.2482C34.6206 68.722 34.3002 68.9301 33.945 68.8065C33.7924 68.7532 33.4454 68.7238 33.1752 68.7395C32.8018 68.763 32.6607 68.7114 32.5906 68.5233C32.5272 68.3568 32.4962 68.339 32.4975 68.4698C32.4976 68.6614 32.0958 68.832 31.9877 68.685C31.8975 68.5625 32.0637 68.0263 32.2224 67.9241C32.3347 67.8516 32.3189 67.8183 32.1551 67.7891C31.9916 67.7584 31.9355 67.8519 31.9175 68.1789C31.9005 68.4717 31.8203 68.6193 31.6663 68.6469C31.5231 68.6759 31.3866 68.7315 31.2639 68.8108C30.9801 69.0094 30.7536 68.7489 30.8193 68.2953C30.8574 67.9814 30.8743 67.6652 30.8698 67.349C30.8628 67.0433 30.9366 66.8002 31.0498 66.7605C31.1549 66.7238 31.2568 66.5878 31.2768 66.457C31.2922 66.3556 31.3163 66.3015 31.3692 66.2844ZM38.9154 60.8042C39.1797 60.5909 39.4862 60.3698 39.7777 60.1757L39.7796 60.1743C40.3645 59.7847 40.8929 59.5078 40.932 59.6301C40.959 59.7162 40.885 59.8723 40.7654 59.9763C40.6242 60.1015 40.6088 60.201 40.7191 60.2747C40.8113 60.3348 40.8655 60.5229 40.8382 60.6912C40.7783 61.0679 40.8751 61.306 41.0257 61.1574C41.0876 61.0974 41.2267 61.1345 41.335 61.2422C41.4764 61.3851 41.4715 61.5659 41.3229 61.8931C41.0848 62.4125 40.8984 62.5758 40.8312 62.3245C40.7975 62.1997 40.6829 62.2216 40.4121 62.4063C40.2067 62.5457 40.0666 62.6968 40.0991 62.7411C40.1324 62.7863 39.9 62.9442 39.5792 63.0945C39.138 63.3043 38.9868 63.4344 38.9508 63.6323C38.9077 63.8659 38.9557 63.8858 39.4056 63.8221C39.8745 63.7546 39.935 63.7144 40.3197 63.2324C40.655 62.8115 40.8039 62.7019 41.1288 62.6401C41.5918 62.5508 41.8925 62.7029 41.8653 63.0134C41.8553 63.1341 41.9393 63.3075 42.0494 63.3979C42.1595 63.4884 42.2046 63.6208 42.1515 63.6947C42.0251 63.8704 39.999 65.1678 39.6774 65.2794L39.6755 65.2808C39.24 65.4312 39.0145 65.3459 38.6909 64.9099C38.1795 64.2186 37.9414 64.0786 37.7105 64.3254C37.5582 64.4897 37.4036 64.5047 37.058 64.3842C36.3813 64.1456 36.2929 63.9405 36.7383 63.6535C36.9944 63.4883 37.2028 63.4498 37.3942 63.5283C37.5808 63.6069 37.7351 63.5796 37.8569 63.4465C37.9147 63.3867 37.9873 63.3434 38.0673 63.3211C38.1474 63.2987 38.2319 63.298 38.3123 63.3192C38.5492 63.3845 38.5691 63.3524 38.4859 62.9924C38.4351 62.7713 38.4638 62.5439 38.5509 62.4885C38.6912 62.3969 38.6649 62.3611 38.3488 62.2C38.1499 62.0994 37.9661 61.9877 37.9395 61.9535C37.9132 61.9177 38.0754 61.6604 38.3002 61.3817C38.486 61.1696 38.692 60.9762 38.9154 60.8042ZM32.3771 66.6555C32.489 66.5805 32.6569 66.5877 32.736 66.6951C32.8233 66.8139 32.7086 66.891 32.4322 66.8982C32.2852 66.9018 32.2433 66.8586 32.2898 66.756C32.3086 66.7148 32.3389 66.6799 32.3771 66.6555ZM43.4468 58.5804C43.355 58.6393 43.3122 58.7332 43.3538 58.7897C43.3954 58.8463 43.4767 58.862 43.5315 58.826C43.5864 58.79 43.6263 58.6982 43.6226 58.6181C43.6173 58.5378 43.5388 58.52 43.4468 58.5804ZM36.2643 64.419C36.3001 64.3985 36.3689 64.3973 36.4835 64.4089C36.7089 64.429 36.8803 64.589 37.2694 65.1495L37.7664 65.8646L37.3425 66.1373C36.9352 66.3991 36.9081 66.3958 36.7466 66.0934C36.595 65.8083 36.5546 65.7988 36.3502 65.9928C36.1433 66.1915 36.1114 66.1816 35.9904 65.8828C35.9034 65.6659 35.8385 65.6033 35.7955 65.6949C35.6775 65.9531 35.2791 65.9644 35.0713 65.7135C34.8367 65.4301 35.004 65.2547 35.4371 65.3341C35.595 65.3631 35.6976 65.3486 35.663 65.3015C35.5319 65.1234 35.839 64.6622 36.0733 64.6845C36.24 64.6998 36.285 64.6623 36.2473 64.5419C36.2271 64.4769 36.2295 64.4388 36.2643 64.419ZM37.8099 64.9306C38.2144 64.6708 39.1117 65.318 38.8497 65.6806C38.6864 65.9068 38.7331 65.8972 38.2347 65.7903C37.857 65.7093 37.785 65.649 37.7287 65.3592C37.6916 65.1745 37.7292 64.9827 37.8099 64.9306ZM31.9048 70.1578C32.0695 70.0105 32.1953 69.9209 32.3111 69.869C32.42 69.8197 32.5414 69.8049 32.659 69.8266C32.8404 69.8501 33.0777 69.7917 33.1863 69.6944C33.322 69.5728 33.6269 69.5707 34.1463 69.6883C34.5645 69.7829 34.9352 69.9038 34.974 69.9566C35.0129 70.0094 35.0736 69.9952 35.1054 69.9239C35.1379 69.8535 35.3423 69.7918 35.5594 69.7889C35.9309 69.7844 35.9476 69.7735 35.8256 69.6076C35.7035 69.4418 35.7205 69.4293 36.0861 69.4247C36.4675 69.42 36.4732 69.4159 36.2874 69.1633C36.1751 69.0106 36.1589 68.8642 36.2472 68.8065C36.3289 68.7537 36.3712 68.6238 36.3439 68.5175C36.2898 68.3176 36.7388 67.9467 36.9346 68.0292C36.9952 68.0543 37.1298 68.3025 37.2361 68.5772C37.3483 68.9054 37.5604 69.1902 37.8426 69.3918C38.0701 69.5629 38.3619 69.7898 38.4909 69.8939C38.6198 69.9981 38.7819 70.0487 38.853 70.0051C39.0568 69.8814 39.7382 69.9843 39.8665 70.1587C39.9303 70.2454 39.931 70.4162 39.8684 70.5364C39.8057 70.6565 39.8157 70.7669 39.8881 70.7804C40.1194 70.8223 40.0003 71.2251 39.6997 71.4187C39.5685 71.4615 39.1789 71.5795 39.1448 71.6003C39.142 71.6024 38.4126 72.4294 38.2756 72.5709C38.1471 72.628 38.0241 72.6967 37.908 72.776C37.6656 72.8453 37.5121 73.1718 37.171 72.939C37.1238 72.875 36.8832 72.8776 36.6355 72.9437C36.2306 73.0527 35.9399 72.9867 35.7635 72.7456C35.7289 72.6985 35.8002 72.5269 35.9201 72.3661L36.1376 72.0753L35.7964 72.2828C35.4478 72.4942 35.2193 72.4343 34.9406 72.0554C34.8609 71.947 34.7465 71.8903 34.6872 71.9281C34.536 72.0247 34.3013 71.6701 34.3426 71.4045C34.3712 71.2222 34.3489 71.2313 34.2216 71.4572C34.1369 71.6066 34.1373 71.8242 34.2205 71.9373C34.3037 72.0504 34.3077 72.2218 34.2293 72.3245C34.1351 72.4614 34.064 72.6128 34.0187 72.7728C33.9553 73.0083 33.9065 73.0151 33.5585 72.8382C33.345 72.7296 33.0673 72.6622 32.9435 72.6893C32.786 72.7239 32.6916 72.6568 32.6222 72.4638C32.5684 72.3117 32.4491 72.0508 32.3611 71.8818C32.273 71.7127 32.1827 71.4537 32.164 71.3078C32.1433 71.1414 32.0053 70.948 31.8018 70.7898C31.4773 70.5362 31.4806 70.5309 31.9038 70.1585M39.0831 65.9998C39.2114 65.8978 39.4006 65.8094 39.6507 65.7348C40.1641 65.5837 40.2469 65.6172 40.3048 66.006C40.3233 66.1377 40.3793 66.4073 40.4296 66.6041C40.48 66.8009 40.4531 67.0052 40.3695 67.0594C40.1692 67.1879 40.3952 67.7261 40.7157 67.8854C40.8559 67.9536 41.0271 68.0876 41.0958 68.1809C41.1644 68.2743 41.4061 68.4073 41.6301 68.4749C41.9405 68.569 42.0331 68.6476 42.0178 68.8143C42.0041 68.9812 42.038 69.0057 42.1717 68.9189C42.2774 68.8513 42.4083 68.893 42.5054 69.025C42.642 69.2106 42.6783 69.2086 42.7377 69.0051C42.8373 68.6588 43.2999 68.7702 43.6326 69.2226C43.7769 69.4186 43.9835 69.6166 44.0938 69.6619C44.208 69.7086 44.2587 69.6945 44.2118 69.6288C44.1647 69.5647 44.0765 69.281 44.015 68.998C43.8439 68.2204 43.2786 67.7561 42.8433 68.0371C42.4805 68.2705 41.5099 67.7369 41.1621 67.114C40.6252 66.1552 40.6357 65.5258 41.1941 65.1673C41.4632 64.9941 41.558 64.9868 41.5983 65.1343C41.6426 65.3051 41.6723 65.2862 41.8438 64.9784C42.1477 64.4339 43.185 63.9584 43.7474 64.1068C43.9887 64.1703 44.2233 64.268 44.2667 64.3231C44.4148 64.5105 45.4695 64.7833 45.568 64.6586C45.622 64.5898 45.8278 64.5793 46.0243 64.6352C46.2208 64.6911 46.4855 64.7448 46.6108 64.7571C47.3851 64.8324 47.9182 65.0082 47.9854 65.21C48.0309 65.345 48.1152 65.3963 48.202 65.3426C48.298 65.2836 48.317 65.3403 48.2589 65.5128C48.1444 65.8527 48.274 66.0072 48.5964 65.9182C48.7407 65.8774 48.8904 65.8835 48.9285 65.9353C48.9653 65.9852 49.0583 65.9459 49.1358 65.8438C49.213 65.7435 49.2677 65.7192 49.2579 65.7947C49.2483 65.8685 49.5576 65.975 49.9458 66.0308C50.7425 66.1463 50.8685 66.2584 50.8378 66.8169C50.826 67.0319 50.8571 67.2676 50.9074 67.338C50.9578 67.4084 50.9497 67.5001 50.8875 67.54C50.7456 67.6314 49.8796 67.4434 49.7647 67.297C49.717 67.2362 49.6868 67.2918 49.6971 67.4223C49.7241 67.7118 50.0356 67.9358 50.234 67.8087C50.5829 67.584 51.7308 68.6191 51.4822 68.9327C51.4263 69.0029 51.345 69.0089 51.3 68.9476C51.2549 68.8864 51.1762 68.8644 51.1261 68.8969C51.0759 68.9294 51.1477 69.0625 51.2846 69.1913C51.5507 69.4386 51.5765 69.4124 50.7593 69.662C50.5995 69.7113 50.4406 69.7164 50.4066 69.6702C50.3719 69.6231 50.2048 69.6328 50.0343 69.6913C49.8334 69.7485 49.6189 69.7351 49.4267 69.6532C48.7894 69.3377 48.3813 69.3852 48.1193 69.803C47.9224 70.1178 47.4427 70.0205 47.2862 69.636C47.1699 69.3496 47.2005 69.2865 47.4891 69.1714C47.8767 69.0171 48.0613 68.7171 47.8287 68.6181C47.7415 68.5806 47.6796 68.3661 47.6922 68.1404C47.7051 67.9131 47.6408 67.6263 47.5507 67.5038C47.3246 67.1965 46.4091 67.0596 46.2301 67.306C46.1206 67.4592 46.0646 67.4423 45.9451 67.2266C45.784 66.9326 45.0982 66.6223 45.112 66.8503C45.1169 66.928 44.948 67.1032 44.7373 67.2393C44.2773 67.5341 44.2181 67.7142 44.5741 67.7283C44.7722 67.735 44.9497 67.8993 45.2907 68.3805C45.84 69.1588 45.8616 69.8575 45.3449 70.0851C45.0667 70.2084 45.099 70.2267 45.7406 70.311C46.1253 70.3621 46.4766 70.3796 46.5228 70.3515C46.5666 70.3222 46.6465 70.3578 46.6985 70.4285C46.7512 70.5001 46.9349 70.5524 47.1088 70.5479C47.2813 70.5415 47.4256 70.5995 47.4308 70.6756C47.4428 70.8657 46.965 71.162 46.7748 71.0811C46.6774 71.0395 46.5975 71.1462 46.5451 71.3809C46.4747 71.6999 46.4174 71.7523 46.0841 71.8028C45.709 71.8594 45.5148 71.7554 45.5572 71.5208C45.5697 71.4549 45.5177 71.2914 45.4422 71.1552L45.3069 70.9061L45.342 71.2303C45.3617 71.409 45.2872 71.7441 45.1802 71.9739C45.0723 72.2043 45.027 72.4527 45.0796 72.5243C45.1323 72.5959 45.1245 72.8893 45.0624 73.1761C44.8615 74.0995 45.2915 75.1717 45.7948 75.0049C45.9535 74.952 46.1566 75.0248 46.3464 75.2018C46.5946 75.4346 46.6984 75.4513 46.9551 75.2987C47.1264 75.196 47.5076 75.1218 47.8042 75.1302C48.6385 75.1526 49.0172 75.089 49.3541 74.8716C49.6507 74.6825 49.6806 74.6954 49.9995 75.1289C50.2491 75.4682 50.4576 75.6155 50.8135 75.7023C51.4338 75.8545 51.445 75.5834 50.8439 75.019C50.439 74.6385 50.4202 74.5813 50.5229 74.1207C50.5844 73.8489 50.6032 73.5882 50.5678 73.5401C50.3628 73.2654 49.7056 72.8498 49.5342 72.8873C49.2711 72.9443 49.0534 72.6483 49.2629 72.5145C49.3947 72.4292 49.3129 72.2686 48.8129 71.6342C48.3019 70.9832 48.2316 70.8461 48.3917 70.7952C48.4973 70.761 48.7814 70.6102 49.0259 70.4608C49.3652 70.2547 49.5863 70.2156 49.9644 70.2991C50.2364 70.359 50.549 70.3672 50.6594 70.3179C50.8042 70.2521 50.9513 70.3356 51.1888 70.6228C51.391 70.8662 51.6622 71.0473 51.8869 71.0882C52.2336 71.1527 52.2551 71.1384 52.2823 70.8773C52.298 70.7248 52.2525 70.4576 52.1813 70.2819C52.0555 69.9707 52.2837 69.6372 52.4591 69.8757C52.5076 69.9417 52.6695 70.0274 52.8173 70.0625C52.9667 70.0978 53.408 70.3541 53.799 70.6329C54.5713 71.1832 54.8076 71.2636 55.2595 71.1374C55.4228 71.0928 55.6927 71.1339 55.8573 71.2293C56.0221 71.323 56.2155 71.3608 56.2887 71.3142C56.4558 71.2058 56.9731 71.7214 56.93 71.955C56.9065 72.0731 56.9401 72.103 57.031 72.0449C57.1294 71.9812 57.1706 72.0293 57.1977 72.2418C57.2403 72.5663 57.6448 72.7074 57.9555 72.5079C58.0706 72.4334 58.1548 72.4629 58.1878 72.5868C58.2152 72.6931 58.2799 72.7515 58.3298 72.7206C58.48 72.6246 58.8647 73.0054 58.9017 73.2847C58.9278 73.492 58.8782 73.5489 58.644 73.5701C58.4826 73.5857 58.3263 73.6556 58.2953 73.722C58.2642 73.7884 58.176 73.8127 58.0972 73.7806C58.018 73.7459 57.7865 73.8261 57.5808 73.9572C57.255 74.1678 57.1916 74.1665 57.0766 73.9431C57.0042 73.8032 56.9079 73.4572 56.8612 73.1764C56.7689 72.6067 56.5705 72.4693 56.4649 72.9043C56.399 73.1064 56.2914 73.2924 56.1491 73.4504C55.9529 73.6615 55.9481 73.7261 56.1314 73.7757C56.3144 73.827 56.3086 73.8705 56.1024 73.9989C55.9262 74.0956 55.7282 74.1453 55.5273 74.1432C55.1635 74.1246 54.7821 74.3268 54.8937 74.4785C54.9353 74.535 55.1211 74.4855 55.3057 74.3672C55.623 74.1628 55.6496 74.1693 55.8073 74.508C55.9899 74.9024 56.2552 75.0064 56.7024 74.8561C56.8759 74.7996 56.9634 74.6975 56.9329 74.5849C56.8637 74.3249 57.057 74.2481 57.3105 74.4348C57.5755 74.6292 57.5369 74.9103 57.1706 75.4253C57.0221 75.6362 56.8698 75.9167 56.8325 76.0516C56.7236 76.4368 56.5306 76.4844 56.2954 76.1824C56.177 76.0313 56.0972 75.9782 56.1184 76.0642C56.1386 76.151 56.0289 76.377 55.876 76.5679C55.5966 76.9187 55.6302 77.4895 55.9257 77.4115C56.1289 77.3579 56.2447 77.5371 56.0776 77.6455C55.8306 77.8054 55.2821 78.4834 55.383 78.5021C55.4384 78.5122 55.5289 78.8248 55.5858 79.1983C55.6454 79.5815 55.7797 79.9417 55.8948 80.027C56.043 80.1358 56.045 80.326 55.9061 80.7275C55.5724 81.6876 55.4815 82.1524 55.598 82.3108C55.6604 82.3956 55.9713 82.6563 56.2895 82.8914C56.7634 83.2414 56.8622 83.3619 56.8444 83.5668C56.8338 83.7024 56.7916 83.8366 56.7509 83.8621C56.6433 83.9311 55.6446 83.4443 55.5052 83.2548C55.3437 83.0352 55.2211 83.0542 54.4468 83.4351C53.8497 83.7291 53.7946 83.7826 53.9651 83.8939C54.1761 84.0307 53.9208 84.2345 53.1891 84.5113C52.9228 84.6114 52.7662 84.7716 52.6337 85.0753C52.4663 85.4599 52.4864 85.5701 52.8637 86.2133C53.312 86.9787 53.6891 87.2998 54.2624 87.4038C54.7313 87.4903 55.4002 86.9168 55.2314 86.5748C55.1673 86.4278 55.1554 86.2632 55.1978 86.1086C55.2792 85.8599 55.9467 85.3615 56.0362 85.4831C56.0937 85.5613 56.3439 86.2923 56.4632 86.7289C56.5358 86.9994 56.569 87.0011 56.9586 86.7508C57.6453 86.3081 57.762 86.3225 58.2043 86.9238C58.7208 87.6259 59.2817 87.8118 59.5588 87.3711C59.6173 87.2735 59.6964 87.1898 59.7906 87.1258C59.8847 87.0618 59.9917 87.0191 60.104 87.0006C60.4165 86.9319 60.4745 86.8645 60.508 86.529C60.5478 86.125 61.2438 85.2586 61.379 85.4424C61.4185 85.4961 61.5243 85.4503 61.614 85.3393C61.7034 85.2299 61.9293 85.1262 62.1127 85.1089C62.297 85.091 62.7238 84.8932 63.064 84.6705C63.5876 84.326 63.7601 84.2761 64.1927 84.337C65.4159 84.5091 65.8432 84.5055 66.1347 84.3173C66.6589 83.9795 67.3218 83.9625 67.8494 84.273C68.1176 84.4302 68.3393 84.6229 68.3437 84.7039C68.3438 84.7082 68.4109 84.669 68.4193 84.6686L68.4102 84.6957L69.2481 84.4308L69.757 84.4079C70.0358 84.396 70.512 84.2693 70.814 84.127C71.1161 83.9847 71.5839 83.8802 71.8541 83.8921C72.1242 83.904 72.4536 83.8679 72.5868 83.8121C72.7735 83.7342 72.9033 83.8 73.1663 84.1062C73.4631 84.4543 73.4964 84.6142 73.4343 85.3847C73.3757 86.1047 73.4194 86.3398 73.6662 86.6753C74.0247 87.1626 74.2188 87.7503 74.2606 88.4705C74.2848 88.8885 74.2125 89.0666 73.9109 89.3378C73.4001 89.7964 73.1938 90.5466 73.4752 90.9293C73.6902 91.2214 73.7941 92.0281 73.6955 92.67C73.6617 92.949 73.6446 93.2298 73.6444 93.5108C73.647 93.9388 73.5911 94.0424 73.2718 94.1988C72.8964 94.3835 72.8965 94.4982 73.2758 94.6564C73.7415 94.8512 73.5355 95.7202 72.9343 96.1074C72.733 96.2365 72.7087 96.3634 72.8271 96.6685C72.9537 96.9965 72.9299 97.0866 72.6803 97.2252C72.5143 97.3154 72.4121 97.4312 72.451 97.484C72.4898 97.5368 72.5876 97.5375 72.6693 97.4846C72.9179 97.325 73.1791 97.5932 73.0365 97.8594C72.9634 97.993 72.9626 98.1795 73.032 98.2738C73.1013 98.368 73.104 98.6362 73.0358 98.8694L72.9125 99.2941L73.3111 99.3364C73.76 99.3839 73.9143 99.6509 73.7897 100.167C73.7469 100.343 73.7486 100.535 73.7889 100.59C73.8304 100.647 73.8218 100.803 73.7718 100.938C73.6964 101.147 73.7351 101.212 74.0145 101.373C74.1963 101.476 74.4041 101.644 74.4776 101.743C74.6295 101.95 75.3669 102.097 75.5738 101.964C75.6489 101.916 75.7326 101.949 75.7597 102.035C75.8083 102.188 75.0879 102.731 74.484 102.998C74.3016 103.079 74.1796 103.055 74.1182 102.927C74.0685 102.82 73.899 102.746 73.7442 102.762C73.5826 102.778 73.4196 102.754 73.2696 102.692C72.8764 102.487 71.9657 101.599 71.7097 101.17C71.5161 100.847 71.4207 100.765 71.3474 100.867C71.286 100.951 71.1848 100.918 71.0815 100.778C70.9789 100.638 70.9813 100.48 71.0898 100.361C71.1863 100.255 71.2051 100.087 71.1302 99.9851C71.0554 99.8833 70.9692 99.707 70.9403 99.5946C70.9038 99.4568 70.8242 99.4282 70.7015 99.5089C70.5605 99.5995 70.4909 99.5621 70.4137 99.3546C70.358 99.2038 70.1199 98.7617 69.8834 98.375C69.6471 97.9867 69.386 97.3929 69.3045 97.055C69.2229 96.717 69.0101 96.2461 68.8312 96.0029C68.6516 95.7588 68.3135 95.1492 68.0773 94.6504C67.8411 94.1517 67.4077 93.4203 67.1172 93.0255C66.6617 92.4063 66.5351 92.3033 66.2059 92.2724C65.9941 92.251 65.782 92.2589 65.7298 92.2886C65.4197 92.4732 64.5921 92.2584 63.6432 91.7465C63.0576 91.4322 62.4242 91.1516 62.2365 91.1255C61.8936 91.08 61.5445 90.7457 61.5889 90.5039C61.6022 90.4331 61.5067 90.2303 61.375 90.0512L61.1372 89.7279L61.1255 89.3923C61.0943 89.3498 61.1016 89.0932 61.1411 88.8231C61.1799 88.552 61.127 88.2452 61.0267 88.1403C60.4223 87.5043 60.2312 87.3631 60.0883 87.4551C60.068 87.4684 60.0507 87.4858 60.0375 87.5061C60.0243 87.5264 60.0154 87.5493 60.0114 87.5732C60.0075 87.5972 60.0085 87.6217 60.0145 87.6452C60.0205 87.6687 60.0313 87.6907 60.0462 87.7098C60.173 87.8823 59.9265 88.0941 59.7088 88.0015C59.661 87.9866 59.6104 87.9822 59.5607 87.9885C59.5109 87.9948 59.4631 88.0116 59.4204 88.0379C59.222 88.165 58.1969 88.1813 58.0908 88.0589C57.9051 87.844 57.3032 87.7958 56.7465 87.9512C56.4213 88.0423 55.9399 88.0987 55.6741 88.0749C55.3049 88.0429 55.1223 88.0988 54.8964 88.313C54.6742 88.5243 54.3214 88.6371 53.4759 88.7711C52.122 88.9842 51.7678 88.9528 51.6273 88.6059C51.5514 88.4177 51.3135 88.3037 50.7207 88.1791C49.4584 87.9123 48.4529 87.6077 48.1242 87.392C47.9577 87.2821 47.7696 87.2258 47.7109 87.2646C47.5365 87.3769 47.6952 87.4998 48.1686 87.6222C48.4103 87.6841 48.8903 87.8785 49.2359 88.0542C49.5816 88.2299 49.9538 88.3686 50.0612 88.3665C50.1188 88.3679 50.1755 88.3814 50.2275 88.4062C50.2796 88.431 50.3258 88.4665 50.3632 88.5104C50.4235 88.5924 50.4127 88.6962 50.3371 88.7416C50.1359 88.8649 49.225 88.7304 49.2161 88.5742C49.2114 88.5007 48.9752 88.4363 48.6895 88.4329C48.4895 88.432 48.2895 88.428 48.0896 88.4211C48.0466 88.4178 48.0509 88.329 48.0994 88.225C48.173 88.0605 48.1378 88.0225 47.8579 87.9698C47.678 87.9366 47.2665 87.776 46.9444 87.6106C46.6106 87.4393 46.1771 87.3297 45.9423 87.3601C45.4424 87.4228 45.2711 87.3717 44.2195 86.8307C43.4379 86.4297 43.3662 86.3618 42.4423 85.1315C41.5893 83.9957 41.4437 83.8472 41.1698 83.8381C40.2219 83.8033 39.8449 83.6957 39.8655 83.467C39.8794 83.2884 39.7975 83.2048 39.4854 83.0786C39.2667 82.9925 38.9982 82.9257 38.886 82.9312C38.7739 82.9367 38.5977 82.8296 38.4951 82.6901C38.3932 82.5515 38.1529 82.4204 37.9642 82.4009C37.7756 82.3813 37.5783 82.3027 37.5263 82.2321C37.396 82.0549 36.7868 81.906 36.7269 82.0358C36.7004 82.0945 36.5602 82.0422 36.4167 81.9241C36.2542 81.7881 36.0848 81.7573 35.9584 81.8401C35.8463 81.9109 35.4144 81.9497 34.9979 81.9265C34.4726 81.8975 34.1297 81.9566 33.8735 82.1218C33.6638 82.2572 33.238 82.3656 32.8883 82.3759C32.5489 82.3845 32.3025 82.4365 32.3406 82.4883C32.3795 82.5411 32.4871 82.565 32.5786 82.5413C32.7086 82.5067 32.7395 82.5507 32.7222 82.7523C32.7109 82.8928 32.6174 83.0284 32.5135 83.0511C32.4096 83.0737 32.2687 83.2355 32.2008 83.4118C32.0005 83.932 31.8036 83.9815 31.61 83.5603L31.4397 83.1946L31.4157 83.5943C31.4038 83.8151 31.4716 84.0456 31.5668 84.1078C31.6619 84.1699 31.7123 84.2839 31.6763 84.3613C31.6587 84.4042 31.652 84.4508 31.6568 84.497C31.6616 84.5431 31.6777 84.5873 31.7038 84.6257C31.7549 84.6912 31.7866 84.6316 31.774 84.4941C31.7622 84.3576 31.8186 84.2013 31.9003 84.1485C32.1685 83.976 32.3689 84.5446 32.2226 85.0604L32.0827 85.5613L31.8463 85.1788C31.583 84.7538 31.6041 84.7252 31.3286 85.8967C31.2424 86.2651 31.1151 86.5679 31.0463 86.5692C30.977 86.5737 30.9772 86.649 31.0438 86.7395C31.111 86.8309 31.0974 86.9092 31.0167 86.912C30.9359 86.9147 30.7507 87.0974 30.6027 87.3167C30.281 87.7916 30.2036 87.8543 30.1114 87.7289C30.0386 87.63 30.4065 86.6215 30.5484 86.5302C30.6948 86.437 30.8393 85.4447 30.7437 85.1983C30.666 84.9999 30.6314 84.9963 30.5302 85.1826C30.4417 85.3465 30.3621 85.3745 30.2372 85.2936C30.1162 85.2141 29.9861 85.2604 29.7916 85.45C29.5398 85.6962 29.5057 85.6952 29.3826 85.4429C29.2666 85.2043 29.207 85.1944 28.957 85.358C28.7298 85.5092 28.6313 85.5017 28.4982 85.3266C28.4054 85.2046 28.1438 85.0819 27.9184 85.0559C27.5484 85.0129 27.5022 84.9758 27.4629 84.6677C27.4179 84.3261 27.7595 83.3413 27.9674 83.2072C28.1049 83.1177 27.9104 82.8395 27.7168 82.8469C27.6978 82.8476 27.6791 82.8522 27.6619 82.8603C27.6447 82.8685 27.6293 82.8801 27.6167 82.8944C27.6042 82.9086 27.5946 82.9253 27.5887 82.9434C27.5827 82.9615 27.5806 82.9806 27.5822 82.9996C27.588 83.0825 27.5087 83.1524 27.4065 83.1536C27.2842 83.1618 27.1647 83.1939 27.0548 83.2482C26.9384 83.3121 26.8212 83.3746 26.7032 83.4356C26.5104 83.5368 25.9738 83.2852 25.7575 82.9911C25.6181 82.8017 25.8764 82.1339 26.1612 81.9505C26.2558 81.8896 26.3841 81.91 26.4458 81.9938C26.5082 82.0787 26.6309 82.1032 26.7191 82.0455C26.8081 81.9888 26.816 81.8494 26.7321 81.7353C26.6489 81.6222 26.5343 81.5613 26.4771 81.5961C26.4204 81.6335 26.0095 81.6002 25.5649 81.5249C24.9514 81.4214 24.7306 81.3267 24.6533 81.1308C24.5815 80.9484 24.6349 80.8176 24.8393 80.6847C25.0721 80.5352 25.1087 80.3993 25.0204 79.9792C24.9141 79.4793 25.1969 78.5508 25.4939 78.4253C25.5655 78.3943 25.6444 78.2231 25.6682 78.0443C25.7055 77.7554 25.7546 77.7135 26.0922 77.6729C26.3019 77.6479 26.6281 77.572 26.8173 77.5055C27.0075 77.4382 27.1973 77.4278 27.2376 77.4824C27.2785 77.538 27.4584 77.4885 27.6366 77.3733C27.8148 77.2582 28.1837 77.1219 28.4578 77.0699C28.7318 77.0179 29.1412 76.8577 29.3664 76.7137C29.5917 76.5698 29.8315 76.4733 29.9008 76.5022C29.97 76.5312 30.2129 76.4803 30.4379 76.3874C30.663 76.2945 30.9994 76.2561 31.1869 76.2998C31.6775 76.4138 31.8581 76.2447 32.2487 75.3008C32.4919 74.7093 32.6727 74.4398 32.8607 74.3872C33.0355 74.3385 33.0891 74.2773 33.0109 74.2084C32.9443 74.1514 32.9361 74.0456 32.9911 73.9703C33.0499 73.8922 33.2833 73.9529 33.5582 74.1152L34.0255 74.3931L33.9293 74.0412C33.8154 73.6297 33.898 73.5268 34.1726 73.7519C34.314 73.8671 34.429 73.8537 34.5898 73.6991C34.7183 73.5756 35.1266 73.4495 35.5572 73.3971C35.9655 73.3479 36.4162 73.23 36.5588 73.1395C36.6965 73.0538 36.8565 73.0109 37.0186 73.0163L37.4318 73.1771C37.4648 73.1964 37.4591 73.3051 37.4139 73.4372C37.3377 73.6632 37.377 73.6633 37.7392 73.4331C37.9668 73.2904 38.2067 73.0675 38.2764 72.9392C38.3602 72.7846 38.4492 72.7279 38.5434 72.769C38.6222 72.8011 38.7564 72.7822 38.8426 72.7275C38.9583 72.4071 38.9882 71.8593 39.9217 71.7303C40.0295 71.6597 40.1758 71.6276 40.2458 71.6575C40.3166 71.6867 40.5372 71.6015 40.7352 71.4659C41.023 71.2687 41.0679 71.166 40.9667 70.9514C40.8841 70.7798 40.7882 70.7166 40.6936 70.7775C40.5025 70.9007 40.4889 70.8744 40.4354 70.2529L40.3921 69.7241L41.0152 69.8641C41.4101 69.9527 41.6355 69.9452 41.6292 69.8438C41.6237 69.7535 41.4156 69.6582 41.1687 69.6306C40.8115 69.5913 40.6608 69.493 40.4048 69.1352C40.2297 68.8892 40.0787 68.5399 40.072 68.3589C40.0637 68.1166 39.9335 67.8943 39.5776 67.5171C38.8638 66.764 38.6974 66.3068 39.0831 65.9998ZM37.7554 67.2889C37.8554 67.1998 38.0021 67.0919 38.1955 66.9651L38.5995 66.6969L38.8064 67.0967C38.9425 67.3626 39.1 67.5155 39.2677 67.546C39.6258 67.6123 39.95 68.1931 39.8572 68.6041C39.7505 69.0849 39.5626 69.1651 39.1322 68.9137C38.9293 68.7958 38.7132 68.7311 38.6501 68.7717C38.4923 68.8732 38.0158 68.7052 37.8516 68.4919C37.6953 68.2873 37.8923 68.1148 38.2138 68.1747C38.4955 68.2259 38.4005 68.0968 38.0238 67.9164C37.556 67.6912 37.4524 67.5582 37.7554 67.2889ZM46.3088 67.5037C46.3484 67.453 46.4012 67.4141 46.4615 67.3914C46.6238 67.3258 46.7573 67.3888 46.9181 67.6074C47.1074 67.8647 47.097 67.9493 46.8695 68.1356C46.6429 68.3212 46.5713 68.3186 46.4259 68.1191C46.242 67.8651 46.2038 67.6434 46.3088 67.5037ZM36.6013 75.4482C36.5824 75.4553 36.565 75.466 36.5502 75.4799C36.5355 75.4937 36.5236 75.5104 36.5154 75.5289C36.4762 75.6177 36.5253 75.662 36.6625 75.6617C36.7969 75.6588 36.8577 75.7099 36.826 75.8029C36.7279 76.0843 36.7437 76.4967 36.8513 76.4277C36.9116 76.3892 36.9398 76.2755 36.9124 76.1751C36.885 76.0747 36.9892 75.8688 37.1406 75.7153C37.4925 75.3605 37.4871 75.1103 37.1329 75.3375C36.9852 75.433 36.8018 75.4838 36.7223 75.4507C36.6838 75.4345 36.6405 75.4336 36.6013 75.4482ZM47.847 70.4042C47.9296 70.3507 48.0763 70.3605 48.1723 70.422C48.3482 70.5367 48.1814 70.7364 47.9468 70.6939C47.7417 70.656 47.6893 70.5058 47.847 70.4042ZM47.1138 71.3504C47.3091 71.2763 47.3244 71.2971 47.3252 71.6102C47.3248 71.9373 47.0791 72.2372 46.9529 72.0656C46.8157 71.879 46.9181 71.426 47.1138 71.3504ZM27.9851 85.4644C28.1845 85.3366 28.2853 85.3394 28.351 85.48C28.4508 85.6927 28.3567 85.8432 28.0925 85.8967C27.7765 85.9607 27.6984 85.6492 27.9851 85.4644ZM40.1487 76.6906C40.0719 76.6948 39.9728 76.8839 39.9255 77.1119C39.8229 77.5984 40.0307 77.5313 40.1828 77.0272C40.2418 76.837 40.2255 76.6864 40.1487 76.6906ZM47.9252 71.2589C48.0773 71.1615 48.1561 71.1878 48.2289 71.3696C48.3361 71.6436 48.2893 71.819 48.1157 71.7883C47.8559 71.7412 47.7277 71.3853 47.9252 71.2589ZM29.9256 88.037C29.9733 88.0019 30.0256 87.9828 30.0824 87.9798C30.1648 87.9772 30.19 88.0924 30.1399 88.2396C30.0233 88.5825 29.9199 88.6513 29.7889 88.4731C29.6987 88.3506 29.7838 88.1385 29.9256 88.037ZM37.946 82.8282C38.1066 82.7246 38.2203 82.747 38.3473 82.9078C38.4456 83.0315 38.6231 83.2234 38.7416 83.3352C39.0001 83.5779 38.9748 83.6067 38.582 83.5151C38.3708 83.45 38.1737 83.3456 38.0013 83.2074C37.7607 83.0067 37.7537 82.9537 37.946 82.8282ZM46.3868 77.9972C46.2916 78.0614 46.3185 78.0881 46.4814 78.0845C46.6106 78.0824 46.6796 78.1071 46.6321 78.1392C46.5855 78.1706 46.6142 78.2235 46.6977 78.258C46.9131 78.3494 46.9169 78.165 46.7012 78.0259C46.6024 77.9606 46.4618 77.9493 46.3874 77.9982M50.234 78.1606C50.1188 78.241 50.0375 78.3574 49.9495 78.5399C49.7567 78.9373 49.8263 79.2057 50.0405 78.8927C50.3031 78.5092 50.4803 78.3454 50.5295 78.4458C50.636 78.6695 50.7392 78.6953 50.8568 78.5333C50.9197 78.4451 50.9945 78.3661 51.0791 78.2985C51.2536 78.1862 50.975 77.9496 50.722 77.9947C50.4952 78.0338 50.3492 78.0802 50.234 78.1606ZM51.8532 78.3595C51.8538 78.3939 51.9701 78.4652 52.2296 78.6244C52.49 78.7829 52.7156 78.9059 52.7304 78.8965C52.7452 78.887 52.6629 78.7515 52.5485 78.596C52.4258 78.4291 52.2219 78.3177 52.0477 78.3239C51.9954 78.3239 51.9431 78.3274 51.8913 78.3343C51.866 78.3394 51.8529 78.348 51.8522 78.3602M51.321 78.8149C51.3 78.8307 51.2818 78.85 51.2671 78.8719C51.1429 79.0447 51.2591 79.4138 51.5713 79.8422C51.6947 80.0099 51.8078 80.0748 51.8429 79.9982C51.8759 79.9245 51.7921 79.7712 51.6546 79.6574L51.6528 79.6587C51.5728 79.5851 51.5082 79.4962 51.463 79.3974C51.4177 79.2985 51.3925 79.1917 51.389 79.083C51.382 78.8702 51.3648 78.7914 51.321 78.8149ZM52.4318 78.0326C52.3725 78.0704 52.3876 78.1304 52.4655 78.1632C52.5434 78.196 52.6571 78.1907 52.7165 78.1529C52.7758 78.1151 52.7595 78.0574 52.6816 78.0246C52.6037 77.9918 52.4912 77.9947 52.4318 78.0326ZM56.9541 82.8905C57.0944 82.7772 57.3508 82.7585 57.4548 82.8999C57.5123 82.9781 57.5352 83.0586 57.5056 83.0775C57.4759 83.0964 57.417 83.0657 57.3754 83.0091C57.3338 82.9526 57.1948 82.9749 57.0658 83.0582C56.9033 83.1632 56.8391 83.1567 56.8601 83.0352C56.8738 82.9776 56.907 82.9265 56.9541 82.8905ZM38.5401 96.4992C38.5987 96.4604 38.6791 96.4769 38.7207 96.5334C38.7305 96.5464 38.7375 96.5613 38.7412 96.5771C38.745 96.593 38.7453 96.6094 38.7423 96.6254C38.7394 96.6415 38.7331 96.6567 38.7239 96.6701C38.7147 96.6835 38.7027 96.6949 38.6889 96.7035C38.6597 96.7211 38.6251 96.7275 38.5915 96.7215C38.5579 96.7154 38.5277 96.6974 38.5064 96.6707C38.4648 96.6141 38.4808 96.537 38.5401 96.4992ZM38.8878 96.425C39.078 96.3025 40.1598 96.3375 40.2568 96.4694C40.2846 96.5071 40.2508 96.6133 40.1852 96.7037C40.1054 96.8138 39.9726 96.8083 39.7868 96.6874C39.6337 96.5879 39.3868 96.5386 39.24 96.5799C39.0014 96.6464 38.7291 96.5272 38.8878 96.425ZM57.2926 83.2777C57.3049 83.2626 57.3205 83.2506 57.3381 83.2424C57.3557 83.2342 57.375 83.2301 57.3944 83.2304C57.5802 83.2244 57.7838 83.5031 57.6539 83.5871C57.5974 83.6229 57.4869 83.6228 57.4098 83.5909C57.269 83.5318 57.2268 83.3639 57.2914 83.28L57.2926 83.2777ZM56.6914 84.3736C56.8159 84.2922 56.998 84.2178 57.2978 84.112C57.6861 83.9745 58.025 83.8922 58.0507 83.9271C58.0763 83.9619 58.4466 83.9321 58.8727 83.8598C59.5163 83.7494 59.6745 83.771 59.8346 83.9887C59.9983 84.2111 59.9777 84.28 59.6948 84.462C59.5137 84.5792 59.3301 84.6692 59.2895 84.6614C59.1169 84.6301 59.0987 84.4691 59.2555 84.3683C59.3473 84.3095 59.3571 84.234 59.2792 84.2012C59.2014 84.1684 58.9751 84.2478 58.7757 84.3756C58.5429 84.5251 58.3105 84.5725 58.1314 84.5067C57.7561 84.3718 57.0134 84.6494 57.0259 84.9191C57.0321 85.0816 56.9975 85.1056 56.8478 85.0443C56.7373 85.0007 56.6032 85.0514 56.5195 85.1667C56.304 85.4661 56.2304 85.0758 56.4297 84.6852C56.4842 84.5578 56.5753 84.4494 56.6914 84.3736ZM58.7097 83.2098C58.7987 83.1531 58.9024 83.148 58.9412 83.2007C59.0362 83.3299 58.9368 83.5323 58.7903 83.505C58.5842 83.4677 58.5435 83.3176 58.7097 83.2098ZM59.1953 83.4888C59.3324 83.4185 59.4114 83.5753 59.3058 83.7082C59.2511 83.776 59.185 83.7651 59.1591 83.6825C59.1332 83.5999 59.1492 83.5111 59.1953 83.4888ZM59.9615 83.4582C60.2277 83.2871 60.876 83.2561 60.9897 83.4106C61.0292 83.4644 60.9257 83.5942 60.7614 83.7006C60.5962 83.8076 60.446 83.9747 60.429 84.07C60.411 84.1661 60.3388 84.2337 60.2696 84.2207C60.2021 84.2079 60.0494 84.0675 59.9323 83.9082C59.7596 83.6735 59.764 83.5846 59.9615 83.4582ZM58.6562 84.7699C58.7139 84.7315 58.7779 84.7035 58.8453 84.6875C58.9579 84.6628 59.0859 84.6906 59.1289 84.749C59.2287 84.8848 58.7277 85.2068 58.5399 85.1271C58.4054 85.0707 58.4897 84.8852 58.6562 84.7699ZM61.2734 83.0973C61.4184 83.0299 61.5713 83.0205 61.6129 83.0771C61.6545 83.1336 61.591 83.2646 61.4724 83.3678C61.3221 83.4973 61.2161 83.5012 61.1315 83.3862C61.0462 83.2703 61.0899 83.1815 61.2734 83.0973ZM80.4221 104.588C80.6495 104.441 80.8566 104.724 80.6601 104.915C80.5151 105.054 80.6952 105.871 81.0886 106.86C82.1376 108.89 83.1073 109.93 84.3424 110.387C86.2505 110.799 92.6925 107.838 95.7221 109.024C91.2507 110.502 79.3997 116.63 75.377 119.02L74.9556 118.584C74.6605 118.279 74.5545 118.096 74.6059 117.978C74.6571 117.866 74.6019 117.861 74.4406 117.964C74.3065 118.049 74.165 118.087 74.1281 118.049C73.4944 117.397 73.4351 117.231 73.6996 116.841C73.8443 116.627 74.1506 116.358 74.3805 116.244C74.6104 116.13 74.8205 115.959 74.8483 115.865C74.8815 115.75 75.0233 115.769 75.2736 115.924C75.6324 116.145 75.6615 116.141 76.091 115.771C76.8176 115.144 77.2476 114.897 77.9131 114.726C78.8312 114.489 79.9598 113.711 79.6043 113.562C79.5344 113.532 79.6013 113.427 79.7534 113.33C79.9074 113.231 80.1031 113.193 80.1852 113.248C80.2673 113.302 80.4448 113.285 80.5827 113.209C80.7331 113.134 80.9055 113.116 81.0685 113.157C81.4394 113.282 81.4388 113.198 81.0624 112.829C80.8143 112.584 80.6483 112.515 80.4766 112.587C80.2188 112.697 79.7816 112.606 79.6402 112.414C79.5917 112.348 79.626 112.177 79.7142 112.033L79.8767 111.768L79.5325 111.841C79.2347 111.9 79.207 111.884 79.3221 111.717C79.4183 111.579 79.3878 111.467 79.2125 111.321C79.0327 111.172 79.007 111.066 79.1156 110.919C79.2103 110.777 79.2728 110.616 79.2987 110.447C79.3184 110.296 79.3964 110.059 79.4721 109.919C79.5847 109.712 79.6605 109.687 79.888 109.781C80.1617 109.897 80.1638 109.894 80.2412 109.55C80.3088 109.249 80.2574 109.136 79.8727 108.734C79.4796 108.326 79.4429 108.236 79.562 108.015C79.6349 107.877 79.6542 107.706 79.6015 107.635C79.5482 107.562 79.5273 107.342 79.5565 107.145C79.5864 106.949 79.5916 106.76 79.5687 106.729C79.5008 106.637 79.6464 105.994 79.7521 105.926C79.8061 105.891 79.8402 105.815 79.8272 105.758C79.7881 105.586 80.2328 104.71 80.4221 104.588ZM68.7703 121.282L70.0197 120.952C70.9536 120.705 71.3583 120.543 71.6057 120.309C71.8063 120.117 71.97 120.032 72.0158 120.094C72.0574 120.151 72.32 120.091 72.6013 119.964C72.9077 119.826 73.2602 119.77 73.4869 119.825L73.7321 119.677C73.6518 119.528 73.6875 119.344 73.8224 119.199C74.1016 118.899 74.3375 118.889 74.4501 119.172C74.4967 119.294 74.6729 119.467 74.7585 119.449C71.4057 121.363 69.2177 122.63 66.5092 124.907C66.5573 124.795 66.8607 124.204 67.0911 124.054C67.3372 123.895 67.6175 123.565 67.7709 123.25C67.9133 122.958 68.1864 122.571 68.3772 122.39C68.5807 122.197 68.7342 121.898 68.748 121.67L68.7703 121.282Z" fill="#8B1E1E"/>
<path d="M15.8546 64.6805C11.9639 67.5165 9.44729 69.4956 9.44729 69.4956C8.84995 69.9649 8.45857 70.6481 8.35596 71.4007C8.25336 72.1534 8.44757 72.9164 8.8975 73.5284L12.4362 78.3387L10.9942 79.3995C10.3768 79.8536 9.96515 80.5345 9.84975 81.2922C9.73434 82.0499 9.92466 82.8224 10.3788 83.4398L58.9523 149.468C59.4065 150.085 60.0873 150.497 60.845 150.613C61.6027 150.728 62.3753 150.538 62.9927 150.083L103.923 119.973C107.623 119.818 110.529 117.092 111.652 114.288L152.582 84.1771C153.2 83.723 153.611 83.0421 153.727 82.2844C153.842 81.5267 153.652 80.7542 153.198 80.1368L104.624 14.1085C104.17 13.4912 103.489 13.0795 102.731 12.9641C101.974 12.8487 101.201 13.039 100.584 13.4932L99.1418 14.5539L95.6032 9.74366C95.1527 9.13177 94.4819 8.71916 93.7326 8.59317C92.9833 8.46718 92.2144 8.63768 91.5887 9.06861C91.5887 9.06861 88.951 10.8812 85.0843 13.7518C81.2196 16.6211 76.127 20.5461 71.2172 24.7709C66.3061 28.9938 61.5721 33.4931 58.3151 37.7512C56.6854 39.8796 55.402 41.9378 54.7015 44.0973C54.635 44.3031 54.5799 44.5165 54.5258 44.7292C54.3076 44.7156 54.0889 44.7088 53.8703 44.7088C51.6001 44.7346 49.2539 45.348 46.7361 46.2692C41.7021 48.1118 35.9975 51.2917 30.5033 54.722C25.009 58.1523 19.7452 61.8445 15.8546 64.6805ZM86.8072 16.1156C90.6305 13.2768 93.247 11.4769 93.247 11.4769L141.779 77.4486C141.779 77.4486 105.015 102.353 105.656 113.153C105.689 113.887 105.384 114.159 104.725 113.951C94.7345 109.903 59.7855 137.767 59.7855 137.767L11.2536 71.7951C11.2536 71.7951 13.7523 69.835 17.6005 67.0302C29.1453 58.6157 52.8521 42.6081 57.7968 49.1757C52.9991 42.4999 75.3373 24.6318 86.8072 16.1156ZM59.67 140.69C60.3718 140.718 61.0602 140.492 61.6095 140.055C61.6095 140.055 71.4251 132.236 82.0113 125.576C87.3036 122.247 92.8081 119.221 97.1249 117.654C97.246 117.611 97.3551 117.582 97.4743 117.54L61.8958 143.714L59.67 140.69ZM144.602 78.21L146.827 81.2343L111.248 107.408C111.323 107.306 111.384 107.211 111.461 107.109C114.242 103.453 118.769 99.0991 123.524 95.0381C133.031 86.9151 143.42 79.8711 143.42 79.8711C144.001 79.477 144.42 78.8879 144.602 78.21Z" fill="#757575"/>
</g>
<defs>
<filter id="filter0_d_95_2" x="-1" y="0" width="171.577" height="171.577" filterUnits="userSpaceOnUse" color-interpolation-filters="sRGB">
<feFlood flood-opacity="0" result="BackgroundImageFix"/>
<feColorMatrix in="SourceAlpha" type="matrix" values="0 0 0 0 0 0 0 0 0 0 0 0 0 0 0 0 0 0 127 0" result="hardAlpha"/>
<feOffset dx="3" dy="4"/>
<feGaussianBlur stdDeviation="2"/>
<feComposite in2="hardAlpha" operator="out"/>
<feColorMatrix type="matrix" values="0 0 0 0 0 0 0 0 0 0 0 0 0 0 0 0 0 0 0.25 0"/>
<feBlend mode="normal" in2="BackgroundImageFix" result="effect1_dropShadow_95_2"/>
<feBlend mode="normal" in="SourceGraphic" in2="effect1_dropShadow_95_2" result="shape"/>
</filter>
<clipPath id="clip0_95_2">
<rect width="117" height="117" fill="white" transform="translate(0 69.3313) rotate(-36.3399)"/>
</clipPath>
</defs>
</svg>
