<svg width="155" height="146" viewBox="0 0 155 146" fill="none" xmlns="http://www.w3.org/2000/svg">
<g filter="url(#filter0_d_95_6)">
<path d="M148.825 84.9046C149.42 67.0553 148.498 49.1877 146.069 31.4944C146.167 30.2304 146.167 28.9608 146.069 27.6968C145.217 23.5992 132.918 21.5779 127.718 21.0879C127.24 21.0359 126.76 21.1736 126.382 21.4713C126.004 21.7691 125.758 22.2032 125.697 22.6805C125.391 26.723 131.822 22.6804 141.671 28.8055C141.557 33.1524 141.906 37.4991 142.712 41.7722C144.182 55.4739 143.386 64.9615 142.712 101.363C135.441 99.7774 127.991 99.1595 120.558 99.525C106.702 99.43 93.1692 103.713 81.8906 111.763C86.0557 95.6112 96.211 91.2685 110.525 86.1296C112.148 85.6212 113.845 85.3946 115.548 85.4559C115.885 86.1988 116.472 86.8001 117.206 87.1555C117.94 87.5109 118.776 87.5979 119.568 87.4014C120.36 87.2049 121.058 86.7373 121.541 86.0798C122.023 85.4223 122.261 84.6165 122.212 83.8021C119.884 21.9455 122.212 13.2602 121.232 7.50876C120.252 1.75735 116.093 1.07748 110.28 0.219972C103.141 -0.530157 95.9305 0.646213 89.3996 3.62674C82.8687 6.60727 77.2556 11.2831 73.1441 17.1679C72.6541 18.2092 69.7753 24.5731 69.5303 25.2468C65.3526 22.061 60.5305 19.8245 55.3999 18.6931C42.2199 15.7708 28.4221 17.9598 16.7938 24.8181C14.5285 26.2919 12.5891 28.2142 11.0953 30.4664C9.60152 32.7187 8.58504 35.2531 8.10856 37.9134C2.71853 59.694 -0.521607 66.1253 4.49479 112.437C4.49479 114.335 4.49479 117.275 6.3323 119.046C6.74413 119.389 7.22622 119.639 7.74471 119.776C8.26319 119.914 8.8055 119.936 9.33356 119.842V124.552C10.1298 135.565 24.7503 128.839 40.8407 127.492C54.1749 126.451 55.6449 129.323 67.454 136.177C72.3145 138.004 77.5812 138.469 82.6869 137.525C86.872 136.894 90.8408 135.254 94.251 132.747C134.572 103.078 133.163 137.77 142.59 112.865C143.018 111.722 143.284 110.538 143.386 109.313C143.861 109.622 144.408 109.801 144.973 109.833C145.538 109.865 146.102 109.749 146.609 109.496C147.115 109.243 147.547 108.861 147.86 108.39C148.174 107.918 148.359 107.373 148.396 106.808C148.964 99.5108 149.107 92.2097 148.825 84.9046ZM74.6754 28.4931C93.0198 -6.01531 115.787 9.16251 116.767 10.1425C117.257 11.98 114.5 53.4648 114.378 57.2562L114.929 78.3631C108.143 79.0956 101.585 81.2375 95.6757 84.6518C89.7659 88.066 84.6346 92.6772 80.6105 98.1898C77.548 103.451 78.5893 104.002 78.038 100.517C77.9155 99.9048 74.4242 28.9892 74.6692 28.4992M8.59856 55.0451C10.3748 48.2586 12.5737 31.0044 18.4476 29.0444C35.5793 23.293 52.711 21.8842 68.6116 30.5756C70.5042 35.8248 71.3556 41.3924 71.1228 46.9723C71.1228 59.5102 71.4903 97.3813 72.9604 108.768C63.2206 104.33 52.5774 102.232 41.882 102.643C33.4212 103.403 25.1478 105.577 17.4064 109.074C16.6713 109.074 13.2413 112.559 10.7974 113.907C10.7974 113.049 10.1237 112.069 10.0624 111.579C8.10243 94.9374 5.22979 73.0343 8.59243 55.0451M134.382 115.193C116.76 108.149 102.752 118.127 90.2697 127.057C87.6017 128.841 84.5967 130.061 81.4398 130.64C78.2828 131.219 75.0407 131.147 71.913 130.426C48.2336 113.662 39.0583 121.673 17.6452 124.913C16.5427 124.913 15.6852 125.465 15.134 124.913C14.5827 124.362 13.9702 120.822 12.5615 118.801C15.1952 117.453 18.6865 115.309 19.544 115.064C28.5355 112.253 38.6908 105.644 60.7164 111.763C76.9906 115.989 76.1331 123.082 81.6395 120.087C89.8409 115.677 101.65 102.465 138.602 106.93C138.236 107.379 138.041 107.943 138.051 108.523C134.437 115.009 134.621 114.58 134.376 115.187" fill="#020202"/>
<path d="M24.3216 50.5801C30.4405 49.7226 29.9505 46.7213 38.0233 46.7213C42.5265 47.0494 46.9689 47.9552 51.2411 49.4163C52.4048 48.9876 53.2624 48.4976 53.2624 47.3338C53.2624 44.7062 49.5873 42.0173 44.0197 41.221C27.9292 38.2198 26.398 45.9312 23.3416 47.3399C23.0618 47.5704 22.8564 47.8784 22.7512 48.2253C22.6461 48.5721 22.6459 48.9424 22.7506 49.2894C22.8554 49.6364 23.0604 49.9447 23.34 50.1754C23.6195 50.4062 23.961 50.5491 24.3216 50.5862M24.3216 72.1769C30.4405 71.3194 29.9505 68.3243 38.0233 68.3243C42.5252 68.6489 46.9658 69.5554 51.2411 71.0193C52.4048 70.6518 53.2624 70.1005 53.2624 68.9368C53.2624 66.303 49.5873 63.6692 44.0197 62.8179C27.9292 59.8166 26.398 67.4729 23.3416 68.9368C23.0405 68.9058 22.7365 68.9496 22.4564 69.0644C22.1764 69.1793 21.9291 69.3615 21.7364 69.5949C21.5437 69.8283 21.4117 70.1056 21.352 70.4024C21.2923 70.6991 21.3069 71.0059 21.3944 71.2957C21.4818 71.5854 21.6395 71.8491 21.8534 72.0632C22.0673 72.2773 22.3307 72.4353 22.6204 72.5231C22.91 72.6109 23.2169 72.6258 23.5137 72.5665C23.8104 72.5072 24.088 72.3754 24.3216 72.183M24.3216 94.0188C30.4405 93.1613 29.9505 90.1661 38.0233 90.1661C42.5229 90.5199 46.9621 91.4251 51.2411 92.8611C52.4048 92.4936 53.2624 91.9424 53.2624 90.8399C53.2624 88.1449 49.5873 85.5111 44.0197 84.721C27.9292 81.7197 26.4041 89.4372 23.3416 90.8399C22.8656 90.7424 22.3704 90.838 21.965 91.1056C21.7642 91.2382 21.5915 91.4089 21.4567 91.6082C21.3219 91.8075 21.2277 92.0313 21.1795 92.267C21.1312 92.5027 21.1298 92.7456 21.1754 92.9818C21.221 93.218 21.3127 93.4429 21.4452 93.6436C21.7129 94.0491 22.1306 94.3317 22.6066 94.4291C22.9039 94.51 23.2168 94.5148 23.5165 94.4431C23.8162 94.3714 24.0931 94.2255 24.3216 94.0188Z" fill="#8B1E1E"/>
</g>
<defs>
<filter id="filter0_d_95_6" x="0" y="0" width="155" height="146.001" filterUnits="userSpaceOnUse" color-interpolation-filters="sRGB">
<feFlood flood-opacity="0" result="BackgroundImageFix"/>
<feColorMatrix in="SourceAlpha" type="matrix" values="0 0 0 0 0 0 0 0 0 0 0 0 0 0 0 0 0 0 127 0" result="hardAlpha"/>
<feOffset dx="2" dy="4"/>
<feGaussianBlur stdDeviation="2"/>
<feComposite in2="hardAlpha" operator="out"/>
<feColorMatrix type="matrix" values="0 0 0 0 0 0 0 0 0 0 0 0 0 0 0 0 0 0 0.25 0"/>
<feBlend mode="normal" in2="BackgroundImageFix" result="effect1_dropShadow_95_6"/>
<feBlend mode="normal" in="SourceGraphic" in2="effect1_dropShadow_95_6" result="shape"/>
</filter>
</defs>
</svg>
