<svg width="157" height="156" viewBox="0 0 157 156" fill="none" xmlns="http://www.w3.org/2000/svg">
<g filter="url(#filter0_d_292_54)">
<path d="M85.605 122.838L144.775 128.468C150.345 129.005 151.771 125.897 151.771 123.264L151.71 120.071L78.9385 109.809C78.9385 113.453 81.9 122.838 85.605 122.838Z" fill="#C62828"/>
<path d="M87.7622 120.059L97.0734 120.876L146.932 125.69C149.614 125.69 151.771 123.557 151.771 120.924L149.126 40.1701C149.126 37.5376 146.957 35.4048 144.288 35.4048L87.7622 30.0667C84.0572 30.0667 81.0469 33.0282 81.0469 36.6723V113.454C81.0469 117.098 84.045 120.059 87.7622 120.059Z" fill="#F44336"/>
<path d="M70.3949 122.838L11.2246 128.468C5.65494 129.005 4.229 125.897 4.229 123.264L4.28994 120.071L77.0615 109.797C77.0615 113.453 74.0999 122.838 70.3949 122.838Z" fill="#C62828"/>
<path d="M68.2378 120.059L58.9996 120.876L9.06744 125.702C6.38619 125.702 4.229 123.569 4.229 120.937L6.87369 40.1823C6.87369 37.5498 9.04307 35.417 11.7121 35.417L68.2378 30.0789C71.9428 30.0789 74.9531 33.0404 74.9531 36.6845V113.466C74.9531 117.098 71.9549 120.059 68.2378 120.059Z" fill="#F44336"/>
<path d="M95.9766 101.985H60.0478L58.9509 120.912L70.1634 121.96C70.1634 121.96 72.5644 127.957 78 127.957C83.4356 127.957 85.8366 121.96 85.8366 121.96L97.049 120.912L95.9766 101.985Z" fill="#424242"/>
<path d="M96.9394 122.399L86.4947 121.497M59.0607 122.399L69.5054 121.497" stroke="#616161" stroke-width="0.3125" stroke-miterlimit="10"/>
<path d="M145.823 39.9993L140.948 33.2961L78 104.837L15.0515 33.2961L10.1765 39.9993L9.49402 119.645C9.49402 119.645 22.4371 121.266 39.7312 119.511C54.795 117.987 61.8881 114.087 66.9215 115.099C72.9665 116.317 74.0634 120.035 74.2584 120.668C74.8068 122.423 75.8915 123.788 78 123.788C80.1084 123.788 81.0468 123.057 81.6928 120.888C81.8878 120.254 83.0334 116.33 89.0784 115.111C94.1118 114.099 101.205 117.999 116.269 119.523C133.563 121.278 146.506 119.657 146.506 119.657L145.823 39.9993Z" fill="#94C6D6"/>
<path d="M139.303 111.967L139.498 79.8037H146.165L146.506 119.645C146.506 119.645 141.204 117.585 139.303 111.967Z" fill="url(#paint0_linear_292_54)"/>
<path d="M139.608 93.2222L139.303 111.979C139.303 111.979 124.727 111.223 101.51 107.201C86.3241 104.569 78 113.002 78 113.002L77.866 93.2222H139.608Z" fill="url(#paint1_linear_292_54)"/>
<path d="M16.3922 93.2222L16.6969 111.979C16.6969 111.979 31.2731 111.223 54.4903 107.201C69.676 104.569 78 113.002 78 113.002L77.866 93.2222H16.3922Z" fill="url(#paint2_linear_292_54)"/>
<path d="M16.6968 111.967L16.5018 79.8037H9.82308L9.49402 119.645C9.49402 119.645 14.7834 117.585 16.6968 111.967Z" fill="url(#paint3_linear_292_54)"/>
<path d="M140.948 33.2962C140.948 33.2962 108.603 27.2146 94.4044 26.4224C81.0469 25.679 78.3047 32.4796 78.0365 33.2962H77.9878C77.7075 32.4796 74.9653 25.6912 61.6078 26.4224C47.4094 27.2146 15.0637 33.2962 15.0637 33.2962L13.6256 111.784C13.6256 111.784 52.1381 103.716 61.4615 104.764C70.785 105.812 78 113.002 78 113.002C78 113.002 85.2272 105.812 94.5506 104.764C103.874 103.716 142.387 111.784 142.387 111.784L140.948 33.2962Z" fill="#F5F5F5"/>
<path opacity="0.26" d="M65.3493 26.4346L58.7681 104.678C59.804 104.654 60.7181 104.678 61.4493 104.764C70.7606 105.8 77.9999 113.002 77.9999 113.002L77.7928 33.2961C77.7928 33.2961 76.2084 27.0561 65.3493 26.4346Z" fill="#94C6D6"/>
<path opacity="0.5" d="M30.8466 36.7819C27.5559 37.3547 24.8625 37.8422 23.3269 38.1103C23.3269 38.8659 23.3269 39.6947 23.3147 40.5844C24.6675 40.3406 27.4219 39.8409 30.8466 39.2437V36.7819ZM60.5109 32.8575V35.2828C67.0069 35.2706 70.6022 36.9037 71.7844 37.5619C71.7844 36.5503 71.7966 35.6484 71.7966 34.8562C69.7856 33.9544 66.105 32.8453 60.5109 32.8575ZM55.2216 33.1622C49.9444 33.6984 42.5953 34.8197 36.1359 35.8922V38.3662C42.5466 37.3059 49.9078 36.1725 55.2216 35.6119V33.1622ZM42.2419 43.68C34.3687 44.8987 26.4712 46.3125 23.3025 46.8853V49.3594C26.0569 48.8597 34.1372 47.3972 42.2419 46.1419V43.68ZM56.9034 41.7787C54.3319 41.9859 51.0534 42.4003 47.5312 42.8878V45.3497C51.1266 44.8378 54.4903 44.4234 57.0984 44.204C65.849 43.485 70.4681 45.63 71.76 46.3612V43.6434C69.3712 42.5831 64.5816 41.145 56.9034 41.7787ZM32.1506 54.1003C28.2994 54.7584 25.0819 55.3312 23.3025 55.6603V58.1343C24.8991 57.8419 28.1653 57.2568 32.1506 56.5743V54.1003ZM71.76 52.455C69.3834 51.3825 64.5816 49.92 56.8303 50.5659C51.87 50.9681 44.2772 52.1015 37.44 53.2228V55.6968C44.3381 54.5634 52.0406 53.4178 57.0375 53.0034C65.9344 52.2722 70.5656 54.5025 71.76 55.1972V52.455ZM71.7722 61.2665C69.42 60.194 64.5937 58.695 56.7816 59.3409C55.9894 59.4018 55.1362 59.4872 54.2344 59.5847V62.0343C55.2216 61.9247 56.1356 61.8393 56.9887 61.7662C66.0562 61.0228 70.6875 63.3506 71.7844 64.0087C71.7722 63.0947 71.7722 62.1806 71.7722 61.2665ZM48.9328 60.2428C39.4022 61.5468 27.5316 63.6553 23.3147 64.4231V66.8972C27.0319 66.2147 39.1828 64.0331 48.9328 62.6925V60.2428ZM34.4297 71.2603C29.64 72.0647 25.4962 72.8081 23.3147 73.1981V75.6722C25.2891 75.3065 29.4937 74.5509 34.4297 73.7222V71.2603ZM71.7844 70.0903C69.4566 69.0178 64.6059 67.4822 56.7206 68.1281C52.3331 68.4937 45.8981 69.4078 39.7312 70.395V72.8568C45.959 71.8575 52.5037 70.919 56.9156 70.5534C66.2147 69.7856 70.8581 72.2718 71.7844 72.8325V70.0903ZM71.8087 87.7256C69.5906 86.6653 64.7887 85.0687 56.8669 85.6659V88.1156C66.9703 87.299 71.5528 90.3215 71.8087 90.5043V87.7256ZM32.1506 89.1881C28.3969 89.834 25.2037 90.3947 23.3391 90.7359V93.21C25.0575 92.8931 28.275 92.3203 32.1506 91.65V89.1881ZM37.44 88.3106V90.7847C42.1687 90.0168 47.2509 89.2368 51.5775 88.6884V86.2265C47.2753 86.7628 42.1931 87.5306 37.44 88.3106ZM45.9103 95.7693C37.184 97.0368 27.3731 98.7797 23.3512 99.5109V101.985C26.9953 101.315 36.989 99.5353 45.9103 98.2312V95.7693ZM71.8209 96.5493C69.615 95.4768 64.7034 93.8072 56.5134 94.4775C54.9656 94.5993 53.1619 94.8065 51.1997 95.0503V97.5C53.235 97.244 55.1119 97.0368 56.7084 96.9028C67.1409 96.0375 71.7234 99.2794 71.7722 99.3037L71.8331 99.2306C71.8331 98.3897 71.8331 97.5 71.8209 96.5493ZM44.0944 78.4875C35.7825 79.7306 26.9709 81.3028 23.3269 81.9731V84.4472C26.5931 83.85 35.5753 82.2412 44.0944 80.9493V78.4875ZM71.7966 78.9018C69.5053 77.8293 64.6425 76.245 56.6475 76.9031C54.6 77.0737 52.1016 77.3662 49.3959 77.7318V80.1937C52.1869 79.8159 54.7584 79.5112 56.8547 79.3406C66.4584 78.5484 71.1019 81.2175 71.8087 81.6684C71.7965 80.7665 71.7966 79.8403 71.7966 78.9018ZM107.75 36.209C117.841 37.5497 131.028 39.9384 134.611 40.5844C134.611 39.6825 134.611 38.8659 134.599 38.1103C130.406 37.3425 117.573 35.0512 107.737 33.7472V36.209H107.75ZM102.448 33.1378C101.924 33.089 101.424 33.0403 100.949 33.0037C93.3075 32.37 88.53 33.7959 86.129 34.8562C86.129 35.6484 86.1412 36.5625 86.1412 37.5619C87.5062 36.8062 92.1253 34.7222 100.754 35.429C101.29 35.4778 101.863 35.5265 102.448 35.5875V33.1378ZM124.751 47.6287C128.045 48.1896 131.336 48.7705 134.623 49.3715V46.8975C132.71 46.544 129.078 45.8981 124.751 45.1669V47.6287ZM119.462 44.2772C112.868 43.2169 105.751 42.1687 101.022 41.7787C93.344 41.145 88.5544 42.5831 86.1534 43.6434V46.3612C87.4453 45.63 92.0644 43.485 100.815 44.204C105.58 44.594 112.807 45.6665 119.45 46.739V44.2772H119.462ZM118.438 52.8815V55.3434C125.519 56.4768 132.112 57.6712 134.623 58.1343V55.6603C131.783 55.1484 125.312 53.9906 118.438 52.8815ZM107.737 60.0843C105.288 59.7675 103.021 59.4993 101.144 59.3531C93.3319 58.7072 88.5056 60.2062 86.1534 61.2787V64.0209C87.2503 63.375 91.8937 61.035 100.949 61.7784C102.875 61.9368 105.215 62.205 107.737 62.5462V60.0843ZM113.039 60.8278V63.2897C121.875 64.6059 131.393 66.3243 134.611 66.9094V64.4353C130.979 63.765 121.656 62.1075 113.039 60.8278ZM114.112 69.7612C109.297 69.03 104.63 68.4084 101.217 68.1281C93.3197 67.4822 88.4691 69.0178 86.1534 70.0903V72.8447C87.0797 72.2718 91.7231 69.7978 101.022 70.5656C104.471 70.8459 109.237 71.4918 114.124 72.2353V69.7612H114.112ZM119.401 70.59V73.064C126.031 74.1365 132.1 75.2334 134.599 75.6843V73.2103C131.82 72.6984 125.848 71.6259 119.401 70.59ZM128.017 80.8031V83.2772C130.894 83.7768 133.246 84.2034 134.587 84.4472V81.9731C133.124 81.705 130.808 81.2906 128.017 80.8031ZM108.822 86.5434C106.031 86.1656 103.447 85.8609 101.351 85.6903C93.2587 85.02 88.3715 86.6531 86.129 87.7256V90.5043C86.385 90.3215 90.9919 87.2747 101.168 88.1156C103.313 88.2862 105.97 88.6031 108.847 88.9931V86.5434H108.822ZM114.112 87.299V89.7609C122.497 91.0284 131.296 92.6128 134.587 93.21V90.7359C130.93 90.0778 122.302 88.5422 114.112 87.299ZM118.438 96.7443C112.259 95.7572 105.8 94.8309 101.412 94.4653C93.21 93.795 88.3106 95.4768 86.1047 96.5372V99.2184L86.1656 99.2915C86.2022 99.2672 90.7847 96.0253 101.229 96.8906C105.653 97.2562 112.222 98.2068 118.462 99.2062V96.7443H118.438ZM123.74 97.6218V100.096C128.481 100.888 132.527 101.619 134.574 101.997V99.5231C132.344 99.1087 128.347 98.3897 123.74 97.6218ZM101.071 76.8909C93.1978 76.2693 88.3959 77.8415 86.129 78.9018V81.6684C86.8359 81.2175 91.4672 78.5484 101.071 79.3406V76.8909ZM106.372 77.4515V79.9012C111.394 80.535 117.427 81.4856 122.728 82.3631V79.889C117.39 79.0115 111.357 78.0731 106.372 77.4515ZM97.1587 50.4197C91.6987 50.4562 88.1034 51.5775 86.1656 52.455V55.185C87.1894 54.6 90.6872 52.9059 97.1587 52.845V50.4197ZM102.448 50.6878V53.1375C105.483 53.4422 109.249 53.954 113.137 54.5269V52.065C109.237 51.48 105.483 50.9803 102.448 50.6878Z" fill="#757575"/>
<path d="M86.7262 119.986C85.3612 119.864 84.1059 120.705 83.6672 122.009C83.009 123.996 81.4734 126.591 78 126.591C74.49 126.591 72.9422 123.983 72.2719 121.997C72.0632 121.374 71.6523 120.839 71.1047 120.477C70.557 120.115 69.9039 119.946 69.2494 119.998L68.774 120.035L68.7862 120.425C68.7862 122.865 69.7557 125.205 71.4813 126.931C73.2069 128.657 75.5474 129.626 77.9878 129.626C80.4282 129.626 82.7687 128.657 84.4943 126.931C86.2199 125.205 87.1894 122.865 87.1894 120.425C87.1894 120.303 87.1772 120.022 87.1772 120.022L86.7262 119.986Z" fill="#616161"/>
</g>
<defs>
<filter id="filter0_d_292_54" x="-3" y="0" width="164" height="164" filterUnits="userSpaceOnUse" color-interpolation-filters="sRGB">
<feFlood flood-opacity="0" result="BackgroundImageFix"/>
<feColorMatrix in="SourceAlpha" type="matrix" values="0 0 0 0 0 0 0 0 0 0 0 0 0 0 0 0 0 0 127 0" result="hardAlpha"/>
<feOffset dx="1" dy="4"/>
<feGaussianBlur stdDeviation="2"/>
<feComposite in2="hardAlpha" operator="out"/>
<feColorMatrix type="matrix" values="0 0 0 0 0 0 0 0 0 0 0 0 0 0 0 0 0 0 0.25 0"/>
<feBlend mode="normal" in2="BackgroundImageFix" result="effect1_dropShadow_292_54"/>
<feBlend mode="normal" in="SourceGraphic" in2="effect1_dropShadow_292_54" result="shape"/>
</filter>
<linearGradient id="paint0_linear_292_54" x1="142.89" y1="107.495" x2="143.191" y2="86.4069" gradientUnits="userSpaceOnUse">
<stop offset="0.267" stop-color="#82AEC0"/>
<stop offset="1" stop-color="#82AEC0" stop-opacity="0"/>
</linearGradient>
<linearGradient id="paint1_linear_292_54" x1="85.2114" y1="103.107" x2="137.387" y2="103.107" gradientUnits="userSpaceOnUse">
<stop stop-color="#2F7889"/>
<stop offset="1" stop-color="#82AEC0"/>
</linearGradient>
<linearGradient id="paint2_linear_292_54" x1="70.6619" y1="103.107" x2="18.6018" y2="103.107" gradientUnits="userSpaceOnUse">
<stop stop-color="#2F7889"/>
<stop offset="1" stop-color="#82AEC0"/>
</linearGradient>
<linearGradient id="paint3_linear_292_54" x1="13.1052" y1="107.495" x2="12.8029" y2="86.4069" gradientUnits="userSpaceOnUse">
<stop offset="0.267" stop-color="#82AEC0"/>
<stop offset="1" stop-color="#82AEC0" stop-opacity="0"/>
</linearGradient>
</defs>
</svg>
