<svg width="120" height="135" viewBox="0 0 120 135" fill="none" xmlns="http://www.w3.org/2000/svg">
<g filter="url(#filter0_d_95_15)">
<path fill-rule="evenodd" clip-rule="evenodd" d="M113.072 58.3748C111.81 56.3762 109.285 56.3236 106.919 56.6392C97.1255 58.2094 87.9889 62.5577 80.5943 69.1675C75.6446 72.5734 71.6417 77.1816 68.9617 82.5591C66.2816 87.9366 65.0124 93.9071 65.2731 99.9098C65.1924 103.85 65.8894 107.768 67.3244 111.439C63.9009 115.609 60.7877 120.025 58.0096 124.651C58.0096 125.861 59.5349 126.86 61.2706 125.755C67.4365 119.35 73.2365 112.601 78.643 105.543C83.2979 98.6412 87.5682 91.4878 91.4344 84.1153C91.5502 83.8577 91.5947 83.5738 91.5633 83.2931C91.532 83.0124 91.4259 82.7453 91.2561 82.5197C91.0863 82.294 90.859 82.118 90.5981 82.0101C90.3371 81.9022 90.0519 81.8664 89.7723 81.9062C89.397 81.9596 89.0535 82.1463 88.8046 82.4322C68.4289 109.33 71.3269 105.595 69.0653 108.751C69.0105 107.875 69.0105 106.997 69.0653 106.121C68.1382 101.14 68.4241 96.0088 69.8989 91.1613C71.3738 86.3138 73.9942 81.8927 77.5385 78.2719C88.0682 67.7422 103.384 62.0039 107.702 62.4773C107.702 79.0608 107.702 77.4829 107.334 80.1127L99.2291 85.3776C98.2824 85.9035 95.9155 86.5347 95.2318 88.5333C94.0694 92.0099 98.3349 92.3308 101.123 95.1184C94.4376 99.0104 93.5961 97.7481 91.5396 99.2208C91.1857 99.4133 90.8735 99.6739 90.6208 99.9877C90.3683 100.301 90.1803 100.662 90.0678 101.049C89.9554 101.436 89.9206 101.841 89.9656 102.241C90.0106 102.642 90.1344 103.029 90.3298 103.381C91.9989 104.991 93.7538 106.5 95.5947 107.91C81.4885 119.754 77.5385 115.652 75.1717 117.23C74.8558 117.445 74.6145 117.753 74.4811 118.111C74.3476 118.469 74.3287 118.86 74.4268 119.229C74.5249 119.599 74.7353 119.929 75.0289 120.173C75.3225 120.418 75.6848 120.566 76.0658 120.596C86.5955 122.279 100.281 110.071 100.754 108.856C101.596 106.647 99.0187 104.912 96.5993 102.703C100.092 101.342 103.501 99.7757 106.808 98.0111C107.236 97.8 107.606 97.4866 107.884 97.0986C108.162 96.7106 108.34 96.26 108.403 95.7867C108.465 95.3134 108.41 94.832 108.242 94.3851C108.074 93.9383 107.798 93.5398 107.439 93.2249L103.126 89.3801C109.07 86.1192 112.073 84.5413 113.125 81.6433C113.756 80.0654 114.755 60.952 113.072 58.3748Z" fill="#020202"/>
<path fill-rule="evenodd" clip-rule="evenodd" d="M53.0601 99.9095C13.7867 100.488 30.4754 100.541 13.3134 98.4894C10.7362 98.2264 9.57907 96.2803 8.84273 94.0135C7.47524 89.5376 7.84341 88.7486 8.47456 44.8941C7.72149 36.1099 8.09266 27.2654 9.57907 18.5751C10.894 13.3103 9.57907 11.3116 17.0477 11.4168C17.0477 13.2051 16.3639 19.9952 16.5217 21.1523C16.9951 25.1549 20.9503 24.571 22.4756 24.9918C30.4754 26.8905 33.4787 20.8893 33.0053 12.5213C35.5089 13.2734 38.1807 13.2734 40.6843 12.5213C40.6843 13.0999 40.1583 19.7848 40.3161 20.7315C40.7895 24.7288 44.6921 24.0977 46.27 24.5184C54.1647 26.4172 57.1679 20.6264 56.7997 12.4161C60.3762 13.468 60.6392 13.3103 65.9041 12.1006C65.9041 12.6265 65.4833 19.364 65.5885 19.9952C65.6322 20.7668 65.921 21.5042 66.4129 22.1002C66.9049 22.6962 67.5742 23.1196 68.3235 23.3087C76.7493 25.5756 81.6986 23.3087 81.9616 14.2096C83.7288 14.2517 85.482 14.4095 87.2212 14.683C88.4888 14.683 89.5407 15.1038 89.6459 16.1557L91.5919 52.6362C91.531 52.9796 91.5851 53.3334 91.7459 53.6428C91.9067 53.9522 92.1651 54.1998 92.4811 54.3473C92.797 54.4948 93.1528 54.5339 93.4932 54.4584C93.8337 54.383 94.1397 54.1973 94.3637 53.9301C94.5111 53.7522 94.6177 53.5442 94.6758 53.3206C94.734 53.097 94.7424 52.8634 94.7003 52.6362C97.0146 40.2657 97.0146 27.5743 94.7003 15.2037C93.438 9.94412 87.7524 9.94412 82.172 10.4175C81.6704 7.46121 80.7122 4.60089 79.3318 1.93902C78.5826 1.2625 77.7049 0.743717 76.7509 0.413587C75.797 0.0834568 74.7863 -0.0512666 73.7792 0.0174446C72.7721 0.0861557 71.7892 0.356895 70.8889 0.813531C69.9886 1.27017 69.1895 1.90335 68.5391 2.67536C67.515 4.28341 66.8014 6.0692 66.4353 7.94021C62.9286 7.10325 59.2484 7.37899 55.9056 8.72915C55.7354 6.60731 55.1643 4.537 54.2225 2.62802C53.4613 1.91871 52.5622 1.37383 51.5811 1.02738C50.6 0.68093 49.5581 0.540332 48.5203 0.614355C47.4825 0.688379 46.471 0.975436 45.5491 1.45763C44.6271 1.93981 43.8144 2.60679 43.1616 3.41696C42.3059 4.79559 41.6839 6.30616 41.3207 7.88762C38.2992 7.29069 35.1732 7.50853 32.2637 8.51877C32.0369 6.55869 31.4672 4.65376 30.5806 2.891C29.8353 1.99857 28.8485 1.33988 27.7385 0.993804C26.6284 0.647731 25.4422 0.628945 24.3217 0.939694C20.1035 1.57085 18.5256 4.46362 17.5789 8.57136C14.7726 8.03947 11.8686 8.50455 9.36869 9.88626C6.6863 11.6745 6.52851 15.4667 5.78691 17.8914C3.74026 26.7938 2.83884 35.9211 3.10451 45.0519C2.10519 69.7457 2.36817 61.8458 2 80.2701C2 90.2739 2 103.065 12.84 103.854C30.4228 105.169 13.4712 105.8 53.1127 103.591C53.3545 103.588 53.5932 103.537 53.8152 103.441C54.0372 103.345 54.2382 103.207 54.4067 103.033C54.5752 102.86 54.7079 102.655 54.7972 102.43C54.8866 102.206 54.9307 101.966 54.9273 101.724C54.9238 101.482 54.8728 101.244 54.7771 101.022C54.6814 100.8 54.5429 100.599 54.3695 100.43C54.1961 100.262 53.9913 100.129 53.7666 100.04C53.5419 99.9502 53.3019 99.906 53.0601 99.9095ZM70.8533 9.14992C71.2741 1.30787 76.1182 3.25917 76.4338 4.78446C77.0491 8.66078 76.9597 12.6213 76.1708 16.466C75.3293 19.364 73.8566 18.675 70.9112 18.6224C71.0515 15.4667 71.0339 12.3109 70.8586 9.15518M46.6382 5.42087C47.6901 3.31703 50.7407 4.73712 51.1614 4.57933C51.985 8.75025 51.985 13.042 51.1614 17.2129C50.6881 18.7908 49.7413 19.8953 47.7427 19.3167H45.8492C45.8492 18.6856 46.1648 18.0018 46.1648 17.7388C45.452 13.6454 45.6133 9.44751 46.6382 5.42087ZM23.0016 5.68385C24.0535 3.58001 27.104 5.0001 27.5248 4.84231C28.319 8.99739 28.319 13.2629 27.5248 17.4233C27.0514 19.0011 26.1047 20.1582 24.1061 19.5271H22.2126C22.2126 18.8959 22.5282 18.2122 22.5282 17.9492C21.8229 13.8729 21.9842 9.69369 23.0016 5.68385Z" fill="#020202"/>
<path fill-rule="evenodd" clip-rule="evenodd" d="M74.4876 43.3689C74.6973 43.2049 74.8721 43.0007 75.0018 42.7683C75.1315 42.5358 75.2135 42.2798 75.2429 42.0152C75.2722 41.7506 75.2485 41.4829 75.173 41.2276C75.0975 40.9723 74.9718 40.7347 74.8032 40.5287C73.8039 38.8983 44.9497 36.7366 30.9487 37.3151C15.1541 38.367 17.421 40.9968 19.9456 41.5754C25.4209 43.2637 74.3824 43.4741 74.4876 43.3689ZM58.0093 59.6894C56.3788 59.2687 43.5822 58.5849 41.1628 58.5849C38.7434 58.5849 20.9502 59.1109 20.1034 61.1095C20.0558 61.33 20.0595 61.5585 20.1142 61.7774C20.1689 61.9963 20.2732 62.1996 20.419 62.3718C23.6116 63.5289 26.9777 64.1338 30.3701 64.1601C39.5849 64.807 48.8366 64.5809 58.0093 63.4763C60.1657 63.4763 60.8495 60.3732 58.0093 59.6894ZM21.5813 84.115C29.5083 85.872 37.7079 86.0151 45.6913 84.5358C46.0254 84.2006 46.2129 83.7467 46.2129 83.2734C46.2129 82.8002 46.0254 82.3463 45.6913 82.0111C40.7658 80.4059 35.6012 79.6587 30.4227 79.8021C18.3677 80.5385 15.8957 83.1683 21.5813 84.115Z" fill="#8B1E1E"/>
</g>
<defs>
<filter id="filter0_d_95_15" x="0" y="0" width="120" height="134.233" filterUnits="userSpaceOnUse" color-interpolation-filters="sRGB">
<feFlood flood-opacity="0" result="BackgroundImageFix"/>
<feColorMatrix in="SourceAlpha" type="matrix" values="0 0 0 0 0 0 0 0 0 0 0 0 0 0 0 0 0 0 127 0" result="hardAlpha"/>
<feOffset dx="2" dy="4"/>
<feGaussianBlur stdDeviation="2"/>
<feComposite in2="hardAlpha" operator="out"/>
<feColorMatrix type="matrix" values="0 0 0 0 0 0 0 0 0 0 0 0 0 0 0 0 0 0 0.25 0"/>
<feBlend mode="normal" in2="BackgroundImageFix" result="effect1_dropShadow_95_15"/>
<feBlend mode="normal" in="SourceGraphic" in2="effect1_dropShadow_95_15" result="shape"/>
</filter>
</defs>
</svg>
