<svg width="276" height="284" viewBox="0 0 276 284" fill="none" xmlns="http://www.w3.org/2000/svg">
<g clip-path="url(#clip0_102_2)" filter="url(#filter0_d_102_2)">
<path d="M138 0C123.769 0 112.125 11.6438 112.125 25.875C112.125 40.1063 123.769 51.75 138 51.75C152.231 51.75 163.875 40.1063 163.875 25.875C163.875 11.6438 152.231 0 138 0ZM138 44.4188C127.65 44.4188 119.456 36.225 119.456 25.875C119.456 15.525 127.65 7.33125 138 7.33125C148.35 7.33125 156.544 15.525 156.544 25.875C156.544 36.225 148.35 44.4188 138 44.4188Z" fill="#D0D0D0"/>
<path d="M131.531 37.0874H144.469V65.1187H131.531V37.0874Z" fill="#4E5C66"/>
<path d="M148.781 50.0251H127.219V25.4438C127.219 18.9751 148.781 18.9751 148.781 25.4438V50.0251Z" fill="#647A87"/>
<path d="M46.3033 89.2083L59.1072 76.4001L71.9153 89.204L59.1158 102.012L46.3033 89.2083Z" fill="#4E5C66"/>
<path d="M67.275 75.9L45.7125 97.4625L32.3437 84.0937C29.7562 81.5062 29.7562 77.1937 32.3437 74.6062L44.4187 62.5312C47.0062 59.9437 51.3187 59.9437 53.9062 62.5312L67.275 75.9Z" fill="#647A87"/>
<path d="M204.171 89.2903L216.979 76.4822L229.787 89.2903L216.979 102.098L204.171 89.2903Z" fill="#4E5C66"/>
<path d="M230.288 97.4625L208.725 75.9L222.094 62.5312C224.681 59.9437 228.994 59.9437 231.581 62.5312L243.656 74.6062C246.244 77.1937 246.244 81.5062 243.656 84.0937L230.288 97.4625Z" fill="#647A87"/>
<path d="M138 276C197.543 276 245.812 227.731 245.812 168.188C245.812 108.644 197.543 60.375 138 60.375C78.4568 60.375 30.1875 108.644 30.1875 168.188C30.1875 227.731 78.4568 276 138 276Z" fill="#647A87"/>
<path d="M138 261.769C189.683 261.769 231.581 219.871 231.581 168.187C231.581 116.504 189.683 74.6062 138 74.6062C86.3165 74.6062 44.4187 116.504 44.4187 168.187C44.4187 219.871 86.3165 261.769 138 261.769Z" fill="#D2D3D5"/>
<path d="M138 254.438C185.635 254.438 224.25 215.822 224.25 168.188C224.25 120.553 185.635 81.9375 138 81.9375C90.3654 81.9375 51.75 120.553 51.75 168.188C51.75 215.822 90.3654 254.438 138 254.438Z" fill="white"/>
<path d="M224.25 168.188C224.25 191.906 214.763 213.469 199.238 228.994L138 168.188V81.9375C185.438 81.9375 224.25 120.75 224.25 168.188Z" fill="#ED4C5C"/>
<path d="M187.594 217.35L143.606 165.169L134.981 173.794L187.594 217.35ZM134.981 89.2688H141.019V113.419H134.981V89.2688ZM134.981 222.956H141.019V247.106H134.981V222.956ZM59.0813 165.169H83.2313V171.206H59.0813V165.169ZM192.769 165.169H216.919V171.206H192.769V165.169ZM95.6427 101.184L100.874 98.1655L106.911 108.623L101.68 111.642L95.6427 101.184ZM67.827 131.372L70.8458 126.145L81.3036 132.182L78.2849 137.414L67.827 131.372ZM67.9694 205.327L78.4229 199.281L81.4416 204.507L70.9924 210.554L67.9694 205.327ZM95.9618 235.359L101.999 224.901L107.226 227.92L101.189 238.378L95.9618 235.359ZM168.869 227.381L174.096 224.362L180.133 234.82L174.911 237.839L168.869 227.381ZM194.494 204.542L197.513 199.311L207.97 205.353L204.952 210.584L194.494 204.542ZM194.175 132.083L204.628 126.046L207.647 131.273L197.193 137.31L194.175 132.083ZM168.774 108.459L174.816 98.0059L180.043 101.025L174.005 111.482L168.774 108.459Z" fill="#3E4347"/>
<path d="M138 180.263C144.669 180.263 150.075 174.856 150.075 168.188C150.075 161.519 144.669 156.113 138 156.113C131.331 156.113 125.925 161.519 125.925 168.188C125.925 174.856 131.331 180.263 138 180.263Z" fill="#3E4347"/>
</g>
<defs>
<filter id="filter0_d_102_2" x="-2" y="0" width="284" height="284" filterUnits="userSpaceOnUse" color-interpolation-filters="sRGB">
<feFlood flood-opacity="0" result="BackgroundImageFix"/>
<feColorMatrix in="SourceAlpha" type="matrix" values="0 0 0 0 0 0 0 0 0 0 0 0 0 0 0 0 0 0 127 0" result="hardAlpha"/>
<feOffset dx="2" dy="4"/>
<feGaussianBlur stdDeviation="2"/>
<feComposite in2="hardAlpha" operator="out"/>
<feColorMatrix type="matrix" values="0 0 0 0 0 0 0 0 0 0 0 0 0 0 0 0 0 0 0.25 0"/>
<feBlend mode="normal" in2="BackgroundImageFix" result="effect1_dropShadow_102_2"/>
<feBlend mode="normal" in="SourceGraphic" in2="effect1_dropShadow_102_2" result="shape"/>
</filter>
<clipPath id="clip0_102_2">
<rect width="276" height="276" fill="white"/>
</clipPath>
</defs>
</svg>
