<svg width="176" height="176" viewBox="0 0 176 176" fill="none" xmlns="http://www.w3.org/2000/svg">
<g clip-path="url(#clip0_292_82)">
<path d="M27.146 115.137L39.0092 93.0286L66.4806 78.877L68.318 94.979L32.763 119.225L29.8845 118.914L27.146 115.137Z" fill="#CA2C31"/>
<path d="M43.3023 96.4282L29.9829 119.01L45.6753 121.433L63.1019 104.461L61.5586 99.4769L62.2571 86.7573L43.3023 96.4282ZM96.3483 112.508L88.5979 119.168L85.6941 139.703C85.6941 139.703 98.2352 153.876 98.5696 153.773C98.9039 153.669 103.239 152.693 103.239 152.693L113.075 131.213L107.981 101.303L96.3483 112.508Z" fill="#A02422"/>
<path d="M91.6568 128.491C91.6568 128.491 96.3266 125.934 99.3548 123.141C102.383 120.349 105.988 116.462 105.988 116.462L108.724 130.992L98.5422 153.758C98.5422 153.758 97.6896 153.186 93.3176 148.311C89.8343 144.421 88.6119 143.025 88.6119 143.025L91.6568 128.491Z" fill="#CA2C31"/>
<path d="M59.0913 115.469C59.0913 115.469 52.9389 116.825 48.9392 127.166C45.2909 136.608 46.3045 149.828 46.2015 153.341C46.0984 156.854 43.6975 158.307 45.0144 159.491C46.3313 160.674 50.0562 159.429 54.5068 157.421C58.9573 155.413 62.4778 152.732 62.4778 152.732C62.4778 152.732 62.4346 153.295 62.1024 154.588C61.9818 155.049 61.3174 155.862 61.5581 156.417C62.1282 157.741 73.8606 154.142 80.239 141.61C87.1335 128.082 79.5829 121.077 79.5829 121.077L59.0913 115.469Z" fill="#F7D74D"/>
<path d="M62.3966 119.747C62.3966 119.747 56.0361 122.094 53.2588 132.057C50.4815 142.02 50.9746 152.412 51.6872 152.902C52.3893 153.394 61.2405 146.703 63.8563 146.683C65.652 146.677 65.3201 148.6 65.8948 148.903C66.3737 149.155 70.8901 148.432 75.5414 138.679C80.2032 128.923 75.2419 118.78 75.2419 118.78L62.3966 119.747Z" fill="#FBF0B4"/>
<path d="M62.0626 107.427C62.0626 107.427 59.7095 111.328 59.0642 113.348C58.4188 115.368 58.4641 115.515 58.6926 115.993C58.921 116.472 61.8276 121.606 68.3269 124.884C76.3048 128.905 82.0359 128.001 82.8299 127.755C83.624 127.509 87.0658 119.951 87.0658 119.951L62.0626 107.427Z" fill="#858585"/>
<path d="M81.8639 120.531C81.8639 120.531 88.2006 122.359 96.1104 116.658C106.923 108.867 112.964 97.0581 120.378 82.2132C127.528 67.885 132.151 51.4199 132.151 51.4199L119.486 32.522L81.8639 120.531Z" fill="#437687"/>
<path d="M97.0258 103.345L97.0804 98.3813L100.875 97.7674C100.875 97.7674 104.048 98.216 106.38 98.5359C108.712 98.8558 111.557 98.7646 111.557 98.7646L107.738 104.733C107.738 104.733 104.587 104.541 102.25 104.28C99.6171 103.985 97.0258 103.345 97.0258 103.345Z" fill="#3F545F"/>
<path d="M93.3197 30.9952C93.3197 30.9952 85.074 39.9376 74.8883 58.0339C65.7062 74.3423 59.526 88.4388 60.124 98.6157C60.6331 107.137 63.1557 111.623 69.1832 115.447C75.5553 119.496 81.8745 120.528 81.8745 120.528C81.8745 120.528 86.0104 119.316 99.0943 100.78C115.415 77.6472 124.026 44.7069 124.026 44.7069L93.3197 30.9952Z" fill="#8DAFBF"/>
<path d="M122.384 51.4213C122.384 51.4213 112.484 50.3993 103.552 43.6276C94.6804 36.9056 93.3629 30.9131 93.3629 30.9131C93.3629 30.9131 97.2866 25.2441 107.496 16.9873C114.365 11.4368 124.537 6.53499 128.854 8.04948C133.17 9.56396 131.297 24.4448 131.297 24.4448L126.983 48.6347L122.384 51.4213Z" fill="#D83F22"/>
<path d="M97.2366 103.359C97.2366 103.359 88.4888 101.843 81.9842 97.8463C69.6881 90.307 64.2874 79.5219 64.2874 79.5219L67.1935 72.7483C67.1935 72.7483 72.0724 84.4735 85.0525 91.8925C93.5111 96.7271 101.11 97.7862 101.11 97.7862C101.11 97.7862 100.129 99.315 99.0446 100.842C98.3524 101.823 97.2366 103.359 97.2366 103.359Z" fill="#6896A5"/>
<path d="M132.151 51.4197C132.151 51.4197 134.993 44.5513 135.473 30.9033C136.151 11.8697 129.316 8.28421 129.316 8.28421C129.316 8.28421 130.08 17.0014 127.464 30.2575C125.361 40.8816 122.088 51.3872 122.088 51.3872C122.088 51.3872 125.824 51.8444 127.759 51.8064C130.196 51.7618 132.151 51.4197 132.151 51.4197Z" fill="#A02422"/>
<path d="M64.1311 101.314C65.8905 102.189 67.5282 100.193 67.8924 96.5995C68.2671 93.0027 67.6962 91.233 66.4185 90.8043C64.8317 90.2651 63.2959 92.9964 62.9113 95.1192C62.4942 97.4696 62.8031 100.649 64.1311 101.314ZM95.2688 34.9602C95.2688 34.9602 89.0876 43.1374 83.0109 53.5378C77.4369 63.0842 74.0032 70.2617 73.6939 71.7773C73.372 73.3998 73.9698 75.3673 74.8654 76.1891C75.7611 77.0109 77.2185 77.1321 78.1273 75.8889C79.0329 74.6352 84.5641 62.732 90.1022 53.735C95.1671 45.5027 99.3331 39.9876 99.3331 39.9876C99.3331 39.9876 100.316 35.4698 99.6887 34.7022C99.0585 33.9241 95.2688 34.9602 95.2688 34.9602Z" fill="#B3E1EE"/>
<path d="M95.2688 34.9601C95.2688 34.9601 99.7462 28.6387 105.16 23.4929C110.193 18.7056 115.346 14.4191 117.072 16.2205C118.713 17.9336 112.943 22.7431 108.265 28.2679C103.586 33.7928 99.3508 39.9706 99.3508 39.9706C99.3508 39.9706 98.0088 38.6687 97.0053 37.3879C96.3809 36.6122 95.8011 35.8016 95.2688 34.9601Z" fill="#ED6A65"/>
<path d="M106.303 53.4356C98.8234 49.8778 91.1727 53.8271 88.6568 59.8273C86.0818 66.0061 88.7078 73.414 94.9429 76.4295C100.61 79.1631 109.079 77.5597 112.231 70.2862C115.04 63.8287 112.423 56.338 106.303 53.4356Z" fill="#E1E1E1"/>
<path d="M92.2514 60.7865C89.8446 65.253 92.1163 71.9233 97.184 73.7203C101.61 75.2925 106.666 73.5778 108.851 69.3175C111.035 65.0573 109.194 59.1124 105.244 56.9692C100.706 54.5159 95.0077 55.6736 92.2514 60.7865Z" fill="#3F545F"/>
<path d="M77.1168 105.571C77.1168 105.571 81.5524 97.0068 82.4828 97.4973C83.4133 97.9877 84.552 101.998 82.8311 107.385C81.0998 112.776 76.72 122.777 72.9651 129.768C69.2576 136.652 63.5993 144.965 62.8565 145.081C62.2768 145.169 59.6843 144.746 58.4493 143.938C57.2384 143.133 58.2853 137.233 58.8196 135.224C59.3644 133.212 77.1168 105.571 77.1168 105.571Z" fill="#A02524"/>
<path d="M55.1332 140.957C55.5155 142.488 58.4935 143.97 58.4935 143.97L82.4859 97.5076C82.4859 97.5076 80.2729 96.1663 76.3745 100.66C72.444 105.197 69.3071 110.153 64.9036 118.192C58.7712 129.411 54.7508 139.427 55.1332 140.957Z" fill="#CA2C31"/>
<path d="M31.8687 73.8516C31.0681 75.3704 31.5917 77.2464 33.2173 77.9109C34.661 78.5058 36.3403 77.3102 36.775 76.2367C37.2097 75.1632 36.5502 73.3293 35.3357 72.6978C34.1178 72.0559 32.3624 72.9316 31.8687 73.8516Z" fill="white"/>
<path opacity="0.5" d="M54.3919 65.3884C53.8152 66.6319 54.5438 67.9863 55.5237 68.2668C56.5037 68.5473 57.7099 68.1165 58.079 67.2008C58.408 66.3775 58.063 65.0417 56.9957 64.4791C56.0685 63.9991 54.762 64.5868 54.3919 65.3884Z" fill="white"/>
<path d="M61.8858 35.8628C61.8858 35.8628 62.0345 31.8322 62.7738 31.5575C63.5236 31.2795 65.7595 34.6175 65.7595 34.6175C65.7595 34.6175 69.5442 33.4913 69.9664 33.9674C70.5103 34.5776 68.5106 37.8074 68.5106 37.8074C68.5106 37.8074 70.4987 41.0847 70.2134 41.6425C69.8888 42.2583 66.0604 41.3942 66.0604 41.3942C66.0604 41.3942 63.4385 44.7595 62.5202 44.3454C61.7219 43.9858 61.8631 39.82 61.8631 39.82C61.8631 39.82 58.0202 38.5025 57.99 37.8134C57.9521 36.8405 61.8858 35.8628 61.8858 35.8628ZM132.199 109.627C133.68 109.936 135.145 109.047 135.313 107.518C135.474 106.152 134.048 105.024 133.041 104.913C132.033 104.801 130.635 105.795 130.384 106.983C130.141 108.158 131.307 109.446 132.199 109.627ZM140.608 73.2578C139.541 72.3631 137.871 72.4795 137.135 73.6919C136.425 74.8736 137.092 76.1784 137.863 76.7069C138.634 77.2355 140.198 77.0373 140.919 76.1844C141.639 75.3315 141.254 73.7906 140.608 73.2578Z" fill="white"/>
</g>
<defs>
<clipPath id="clip0_292_82">
<rect width="140" height="140" fill="white" transform="translate(0 41.4126) rotate(-17.2057)"/>
</clipPath>
</defs>
</svg>
