<svg width="164" height="96" viewBox="0 0 164 96" fill="none" xmlns="http://www.w3.org/2000/svg">
<g clip-path="url(#clip0_0_1)">
<g filter="url(#filter0_d_0_1)">
<path fill-rule="evenodd" clip-rule="evenodd" d="M73.1925 18.9003C71.1717 14.5071 69.2954 10.7081 67.7628 8.07159C66.9668 6.58082 65.7907 5.32704 64.3539 4.43741C63.5914 4.02218 62.7532 3.76465 61.8891 3.68018C61.025 3.59572 60.1528 3.68603 59.3244 3.94575C50.8417 6.60343 42.5492 9.83363 34.5039 13.6141C28.9983 16.0224 23.7423 18.9649 18.8112 22.3994C17.3504 23.6672 16.2485 25.2967 15.616 27.1245C15.176 28.4468 15.1126 29.8603 15.4239 31.2156C17.202 36.7864 19.4142 42.2091 22.0402 47.434C25.5582 55.3693 29.5373 63.0905 33.9549 70.5577C34.8505 71.8249 36.2005 72.7009 37.7273 73.0021C39.6891 73.3772 41.7139 73.2662 43.6259 72.6788C47.307 71.4579 50.9067 69.9894 54.3915 68.287C62.6549 64.5568 72.4089 59.5982 78.4788 56.7335C78.6012 56.6794 78.7114 56.6014 78.803 56.5039C78.8945 56.4064 78.9656 56.2915 79.0119 56.166C79.0581 56.0405 79.0787 55.907 79.0724 55.7734C79.066 55.6398 79.0328 55.5089 78.9749 55.3884C78.9244 55.2631 78.8483 55.1498 78.7514 55.0557C78.6545 54.9616 78.539 54.8889 78.4123 54.8422C78.2856 54.7954 78.1505 54.7758 78.0157 54.7844C77.8809 54.793 77.7495 54.8298 77.6297 54.8923C71.5268 57.6758 61.5809 62.4842 53.403 66.0162C49.9852 67.5614 46.4718 68.8856 42.8844 69.9808C41.6264 70.3395 40.3115 70.4548 39.0103 70.3205C38.526 70.2636 38.0581 70.1097 37.6346 69.8678C37.2112 69.626 36.8408 69.3013 36.5457 68.9131C32.9695 62.8028 29.7067 56.5143 26.77 50.0722C23.6044 43.7643 20.9346 37.2197 18.7846 30.4976C18.5906 29.5581 18.7086 28.5827 19.1192 27.7165C19.5278 26.7172 20.1527 25.8158 20.9493 25.0794C25.6571 21.8085 30.6744 19.0071 35.9291 16.7156C43.7806 12.904 51.8702 9.60385 60.1475 6.83579C60.6037 6.67327 61.0894 6.60964 61.5721 6.64912C62.0549 6.6886 62.5237 6.83029 62.9476 7.0648C63.898 7.63373 64.6827 8.43677 65.2371 9.39577C66.8526 11.9952 68.7798 15.6788 70.8474 19.9549C75.2852 29.0724 80.1739 40.2557 82.6377 45.5749C83.2144 46.8285 83.4753 48.2043 83.3893 49.5781C83.4128 50.1823 83.2727 50.7818 82.9836 51.3129C82.6945 51.8441 82.2673 52.2872 81.747 52.5956C81.5834 52.6628 81.4439 52.7779 81.347 52.9259C81.25 53.0738 81.2 53.2477 81.2037 53.4245C81.2085 53.5703 81.2484 53.7127 81.3201 53.8397C81.3917 53.9667 81.4929 54.0746 81.615 54.1542C81.7372 54.2338 81.8768 54.2828 82.0219 54.297C82.1671 54.3111 82.3135 54.2901 82.4488 54.2357C83.1417 53.9115 83.7455 53.4236 84.2078 52.814C84.6702 52.2045 84.9773 51.4916 85.1027 50.7369C85.4847 48.72 85.247 46.6327 84.4213 44.7526C82.1482 39.5809 77.4149 28.1383 73.1908 18.9042" fill="#020202"/>
<path fill-rule="evenodd" clip-rule="evenodd" d="M77.7934 62.3285C77.5319 62.398 77.3084 62.5677 77.1712 62.8009C77.0341 63.0341 76.9944 63.312 77.0608 63.5742C77.3188 64.5715 77.5036 65.5862 77.6138 66.6104C77.7221 67.6763 77.7408 68.3543 77.378 68.6656C72.1732 72.0981 66.6528 75.0293 60.8868 77.4142C52.3344 81.3406 43.5409 84.732 34.5651 87.5644C34.1177 87.7 33.6475 87.7432 33.1829 87.6914C32.7183 87.6395 32.2691 87.4937 31.8627 87.2628C30.94 86.6708 30.1749 85.8636 29.6331 84.9107C27.5288 81.4332 24.8553 76.0003 22.0666 70.1247C17.992 61.5773 13.7758 52.2746 11.5101 47.5211C10.9126 46.2435 10.6212 44.8442 10.6592 43.4343C10.6135 42.8121 10.7407 42.1893 11.0267 41.6347C11.3127 41.0802 11.7463 40.6154 12.2798 40.2918C12.4124 40.2318 12.5286 40.1408 12.6187 40.0264C12.7087 39.9121 12.7699 39.7777 12.797 39.6347C12.8242 39.4917 12.8165 39.3442 12.7747 39.2048C12.7329 39.0654 12.6581 38.9381 12.5567 38.8337C12.431 38.7084 12.2703 38.6242 12.0958 38.5922C11.9213 38.5602 11.7411 38.582 11.5792 38.6545C10.8739 38.9864 10.2606 39.4858 9.79269 40.1092C9.3248 40.7326 9.01658 41.4611 8.89492 42.231C8.47178 44.3308 8.72122 46.5105 9.60779 48.4604C11.8893 54.0531 16.6694 65.7704 20.9911 75.3239C23.0815 79.8877 25.1166 83.9159 26.7115 86.6249C27.5426 88.062 28.708 89.2779 30.1141 90.1637C30.9164 90.6362 31.8089 90.935 32.7339 91.0408C33.659 91.1465 34.5959 91.0569 35.4841 90.7777C43.073 88.2759 50.5046 85.3204 57.739 81.9274C65.1157 78.7837 72.1525 74.8956 78.74 70.3236C79.0805 69.9975 79.3477 69.6027 79.524 69.1655C79.7002 68.7283 79.7815 68.2586 79.7624 67.7875C79.7499 66.1961 79.5128 64.6146 79.0505 63.089C79.0192 62.9558 78.9616 62.8302 78.8812 62.7195C78.8007 62.6088 78.6989 62.5153 78.5818 62.4444C78.4648 62.3736 78.3347 62.3269 78.1993 62.307C78.0639 62.287 77.9259 62.2944 77.7934 62.3285Z" fill="#8B1E1E"/>
<path fill-rule="evenodd" clip-rule="evenodd" d="M56.6182 34.5686C55.6252 35.1873 54.7733 36.008 54.118 36.9773C53.4627 37.9466 53.0186 39.043 52.8145 40.1951C52.692 41.1929 52.8406 42.2053 53.2448 43.1257C53.6491 44.0462 54.2939 44.8407 55.1116 45.4256C55.9166 45.9837 56.8332 46.3606 57.7981 46.5301C58.7629 46.6996 59.7531 46.6578 60.7002 46.4075C61.3575 46.2046 61.9911 45.9461 62.6008 45.6321C63.2337 45.2999 63.8204 44.8973 64.361 44.4243C65.3598 43.5458 66.1047 42.4155 66.5181 41.1512C66.9315 39.8868 66.9982 38.5348 66.7112 37.2359C65.73 34.1311 64.2981 31.1874 62.4613 28.4988L59.7518 23.5377C59.7518 23.5377 56.9546 17.2412 56.1988 17.5495C52.2398 18.576 48.5541 20.4585 45.4016 23.0643C42.4778 25.2692 39.8857 27.8873 37.7108 30.8315C37.3294 31.3576 37.0742 31.9644 36.9651 32.605C36.9239 33.3188 37.0163 34.0341 37.2377 34.714C37.4961 35.5075 37.8113 36.2801 38.1832 37.0317C39.6909 39.871 41.4367 42.574 43.4055 45.1109L42.5937 45.4421C41.0574 46.0182 39.7503 47.0786 38.8699 48.4631C37.9657 49.8295 37.4838 51.4319 37.4844 53.0704C37.4846 54.9532 38.1685 56.7719 39.409 58.1884C39.8979 58.7446 40.5065 59.1827 41.1892 59.4698C41.8718 59.7568 42.6106 59.8853 43.3501 59.8456C43.95 59.8382 44.5465 59.7798 45.1397 59.6706C45.7513 59.5691 46.3491 59.4123 46.933 59.2002C47.733 58.925 48.462 58.4754 49.0672 57.8841C49.6723 57.2928 50.1386 56.5745 50.4324 55.781C51.0252 53.6301 50.8312 51.3382 49.8852 49.3175C49.2169 47.7277 48.3989 46.205 47.4424 44.7701C45.1674 41.8657 43.092 38.8105 41.2304 35.6253C40.8537 35.0255 40.5304 34.3937 40.2642 33.7372C40.1279 33.523 40.0312 33.2859 39.9788 33.0374C39.9788 33.0374 40.4999 32.0739 41.073 31.3177C43.2666 28.4423 45.8411 25.8785 48.7254 23.6967C50.9148 21.9752 53.3919 20.6552 56.0418 19.7978C57.2746 23.1824 58.6976 26.484 60.311 29.7025C60.7792 30.8501 61.2919 32.107 61.9725 33.2953C60.0912 33.0306 58.1802 33.487 56.6182 34.5686ZM47.3972 54.0154C47.3401 54.4828 47.1543 54.925 46.8604 55.2929C46.5665 55.6607 46.1761 55.9395 45.7329 56.0983L44.5572 56.5779C44.1112 56.6764 43.6585 56.741 43.2028 56.7713C42.8022 56.8022 42.4005 56.7274 42.0378 56.5546C41.6751 56.3817 41.3641 56.1168 41.1357 55.7862C40.5035 54.9779 40.1085 54.0097 39.995 52.9898C39.9141 51.8311 40.1813 50.6773 40.765 49.6751C41.3391 48.6573 42.2149 47.8429 43.2753 47.345L44.5322 46.8323C44.7035 47.2522 45.0147 47.615 45.2305 47.984C45.7537 48.8502 46.2086 49.7519 46.5953 50.689C47.1355 51.7137 47.4111 52.8571 47.3972 54.0154ZM62.3789 35.4118C62.5479 35.501 62.7436 35.5256 62.9295 35.481C63.1747 36.2377 63.3599 37.0127 63.4831 37.7986C63.6292 38.5511 63.5753 39.3288 63.3269 40.054C63.0785 40.7793 62.6442 41.4267 62.0675 41.9317C61.757 42.2216 61.4096 42.4612 61.0254 42.6506C60.6215 42.8611 60.2016 43.0324 59.7658 43.1645C59.2962 43.3195 58.7975 43.3658 58.3074 43.2999C57.8173 43.234 57.3485 43.0576 56.9366 42.7841C56.5316 42.5358 56.2005 42.1836 55.9777 41.7641C55.7549 41.3445 55.6484 40.873 55.6695 40.3984C55.7757 39.6216 56.0398 38.8748 56.4455 38.2039C56.8513 37.533 57.3901 36.9522 58.0287 36.4975C58.6019 35.9622 59.3018 35.5815 60.0625 35.3911C60.8233 35.2007 61.62 35.2068 62.3777 35.409" fill="#020202"/>
</g>
</g>
<g clip-path="url(#clip1_0_1)">
<g filter="url(#filter1_d_0_1)">
<path d="M100.617 25.7517C102.13 26.1821 103.684 26.4602 105.258 26.7773C107.607 27.249 109.96 27.591 112.261 28.1146C112.511 28.1757 112.775 28.1384 112.999 28.0105C113.223 27.8825 113.389 27.6737 113.463 27.427C113.538 27.1803 113.515 26.9145 113.399 26.6842C113.283 26.454 113.083 26.2769 112.841 26.1895C110.671 25.3104 108.497 24.4634 106.218 23.7496L103.197 22.8906C102.229 22.6152 101.261 22.3397 100.105 22.2728C97.7525 21.9308 95.4475 21.7659 93.138 21.5016C92.9095 21.4614 92.6742 21.5097 92.4801 21.6368C92.2859 21.7639 92.1475 21.9602 92.093 22.1857C92.0689 22.2993 92.0676 22.4164 92.089 22.5305C92.1105 22.6446 92.1542 22.7533 92.2178 22.8504C92.2814 22.9475 92.3635 23.0311 92.4595 23.0964C92.5554 23.1617 92.6634 23.2073 92.7771 23.2307C95.4935 24.1342 98.0035 25.0737 100.617 25.7517ZM129.077 33.061C129.05 33.1721 129.045 33.2876 129.063 33.4006C129.081 33.5136 129.122 33.6217 129.183 33.7185C129.244 33.8153 129.324 33.8988 129.419 33.9639C129.513 34.029 129.619 34.0744 129.731 34.0974C132.452 34.8712 135.058 36.0375 137.8 36.8502L142.663 38.2333C145.114 38.9305 147.624 39.2845 150.072 39.9808C150.194 40.029 150.325 40.052 150.456 40.0485C150.588 40.045 150.717 40.0151 150.836 39.9604C150.955 39.9058 151.063 39.8276 151.151 39.7306C151.24 39.6336 151.307 39.5197 151.351 39.3958C151.431 39.1482 151.416 38.8793 151.308 38.6424C151.199 38.4056 151.006 38.2182 150.766 38.1173C148.447 37.0686 146.149 36.0877 143.743 35.2401L137.7 33.5212C135.225 33.0462 132.738 32.8297 130.256 32.4835C130.141 32.4314 130.017 32.4054 129.891 32.4073C129.765 32.4092 129.641 32.439 129.529 32.4946C129.416 32.5501 129.317 32.63 129.239 32.7285C129.16 32.8269 129.106 32.9385 129.077 33.061ZM101.669 44.3428C101.705 44.2156 101.716 44.0826 101.701 43.9512C101.686 43.8199 101.645 43.6929 101.58 43.5774C101.516 43.4619 101.429 43.3602 101.326 43.2781C101.222 43.196 101.103 43.1351 100.976 43.099C99.6745 42.4998 98.3846 41.8712 97.0083 41.3163C96.4316 41.1217 95.8458 40.9551 95.253 40.817C94.6685 40.6194 94.0747 40.4505 93.4736 40.3109C92.0512 39.9064 90.5719 39.9436 89.1312 39.7301C88.9117 39.6676 88.6764 39.6926 88.475 39.8001C88.2735 39.9076 88.1217 40.089 88.0515 40.3063C88.0112 40.4162 87.9941 40.5332 88.0011 40.6501C88.0082 40.7669 88.0394 40.881 88.0927 40.9852C88.146 41.0895 88.2202 41.1815 88.3108 41.2557C88.4014 41.3299 88.5063 41.3846 88.6189 41.4163C89.9042 42.0729 91.1683 42.7923 92.536 43.3775C93.118 43.5932 93.7121 43.7622 94.3185 43.8845C94.903 44.0835 95.4982 44.2527 96.104 44.3923C97.5203 44.7951 98.9768 44.8495 100.418 45.063C100.679 45.129 100.957 45.0904 101.19 44.9553C101.424 44.8203 101.596 44.5995 101.67 44.3398M144.666 56.3427C143.447 55.7997 142.252 55.2963 140.971 54.8665L139.337 54.4018C138.786 54.3013 138.229 54.2304 137.67 54.1894C136.313 54.1305 135.034 54.2574 133.676 54.3291C133.503 54.304 133.327 54.3327 133.171 54.4113C133.015 54.4899 132.888 54.6146 132.805 54.7683C132.753 54.8712 132.72 54.9827 132.708 55.0973C132.692 55.2094 132.699 55.3234 132.728 55.4328C132.757 55.5422 132.807 55.6448 132.876 55.7345C132.945 55.8242 133.031 55.8992 133.129 55.9551C133.228 56.011 133.336 56.0468 133.448 56.0602C134.716 56.4209 135.864 56.9761 137.132 57.3368C137.648 57.5162 138.172 57.6654 138.705 57.7843L140.263 57.9328C141.564 58.0739 142.827 58.1061 144.125 58.2463C144.249 58.2774 144.379 58.2837 144.505 58.2649C144.632 58.246 144.754 58.2024 144.864 58.1364C144.974 58.0705 145.07 57.9835 145.146 57.8805C145.222 57.7775 145.277 57.6604 145.308 57.5361C145.378 57.2924 145.35 57.0314 145.23 56.8081C145.11 56.5848 144.908 56.4199 144.666 56.3427ZM139.187 77.4497L133.143 75.7308L130.544 75.2205C129.663 75.0739 128.776 74.9743 127.884 74.9221C125.8 74.7871 123.746 74.8899 121.67 74.9538C121.5 74.9346 121.328 74.9672 121.177 75.0473C121.026 75.1275 120.902 75.2514 120.823 75.403C120.772 75.5054 120.741 75.6161 120.73 75.7298C120.704 75.9606 120.771 76.1921 120.915 76.374C121.059 76.5559 121.27 76.6736 121.5 76.7013C123.507 77.1086 125.441 77.6586 127.621 78.1477C128.438 78.3801 129.286 78.6211 130.177 78.5803L132.768 78.8918C134.796 79.1089 136.82 79.2266 138.81 79.4654C139.008 79.5012 139.212 79.4785 139.398 79.4002C139.584 79.322 139.742 79.1914 139.855 79.0244C139.968 78.8574 140.029 78.6613 140.033 78.4599C140.036 78.2585 139.98 78.0605 139.873 77.8901C139.795 77.7729 139.694 77.6732 139.576 77.5973C139.458 77.5215 139.326 77.4712 139.187 77.4497Z" fill="#8B1E1E"/>
<path d="M127.888 57.8087C128.443 56.7172 128.668 55.4874 128.534 54.27C128.236 52.5399 127.461 50.9273 126.296 49.6134C124.742 47.472 122.527 45.9016 119.992 45.1445C119.133 44.9087 118.248 44.778 117.358 44.7553C117.392 42.1889 117.596 39.6276 117.968 37.0881C118.201 36.271 118.203 35.3556 118.352 34.4855C122.089 32.5392 125.65 30.2744 128.998 27.7164C131.418 25.454 133.122 22.5304 133.904 19.3115C134.073 18.6628 134.107 17.9865 134.006 17.3239C133.905 16.6613 133.669 16.0264 133.314 15.4579C132.959 14.8894 132.492 14.3993 131.941 14.0175C131.39 13.6357 130.767 13.3703 130.11 13.2374C128.479 12.9379 126.797 13.1311 125.277 13.7924C123.757 14.4537 122.468 15.5531 121.576 16.9502C119.039 20.4 117.24 24.336 116.292 28.5122C115.88 29.9618 115.675 31.6013 115.431 33.0364C111.839 34.9457 108.638 37.5143 105.996 40.6079C104.757 42.2334 103.898 44.1157 103.482 46.1165C103.066 48.1174 103.103 50.1861 103.591 52.1708C104.372 54.6339 105.75 56.866 107.601 58.669C109.452 60.472 111.72 61.7902 114.203 62.5065L114.385 62.5582C114.351 63.3664 114.249 64.1846 114.155 64.9756C113.772 69.1739 112.17 73.1685 109.545 76.4677C108.631 77.6948 107.446 78.6944 106.082 79.3885C104.718 80.0825 103.212 80.4524 101.682 80.4692C98.5169 80.3056 95.5301 78.9538 93.3183 76.6839C92.3171 75.5648 91.7207 74.1418 91.6249 72.6433C91.3982 71.0948 91.5882 69.514 92.1751 68.0633C92.7496 66.699 93.7729 65.5737 95.0781 64.872C96.4591 64.2901 97.982 64.1322 99.453 64.4186C100.579 64.6571 101.611 65.2254 102.418 66.0469C103.417 67.0181 104.163 68.0773 104.142 68.7256C104.034 69.4439 103.742 70.1218 103.292 70.6927C102.843 71.2635 102.253 71.7076 101.581 71.9813C101.283 72.1499 100.955 72.2576 100.616 72.2983C100.276 72.339 99.9318 72.3117 99.6029 72.2182C99.274 72.1247 98.967 71.9667 98.6997 71.7534C98.4324 71.5402 98.2102 71.2759 98.0459 70.976C97.9897 70.8699 97.9124 70.7764 97.8188 70.7012C97.7251 70.626 97.6171 70.5708 97.5013 70.5389C97.3855 70.507 97.2645 70.4992 97.1455 70.5158C97.0266 70.5324 96.9123 70.5731 96.8097 70.6355C96.7071 70.6979 96.6183 70.7806 96.5488 70.8785C96.4794 70.9765 96.4306 71.0876 96.4057 71.205C96.3807 71.3225 96.38 71.4438 96.4036 71.5616C96.4272 71.6793 96.4747 71.791 96.543 71.8897C97.0549 72.8985 97.9454 73.6636 99.0198 74.0176C100.094 74.3716 101.265 74.2857 102.276 73.7788C103.26 73.3551 104.119 72.6874 104.773 71.8389C105.426 70.9904 105.852 69.9892 106.011 68.93C105.878 67.2678 105.13 65.715 103.913 64.5748C102.782 63.4649 101.353 62.7074 99.7997 62.3942C97.906 61.9945 95.9353 62.1865 94.1544 62.9443C92.386 63.8638 90.9972 65.3759 90.231 67.2159C89.4203 69.0429 89.1077 71.0507 89.3279 73.0368C89.4775 75.0963 90.2985 77.05 91.6649 78.5983C94.2846 81.3714 97.8591 83.0422 101.666 83.2745C103.604 83.3041 105.523 82.8856 107.273 82.0516C109.023 81.2176 110.556 79.9906 111.754 78.4664C114.805 74.78 116.719 70.2868 117.264 65.5328C117.462 64.8368 117.457 64.0502 117.504 63.3112C119.597 63.6369 121.739 63.2771 123.61 62.2854C125.482 61.2937 126.982 59.7233 127.888 57.8087ZM124.055 19.0225C125.478 17.2389 127.161 15.9218 129.17 16.4276C129.445 16.4686 129.709 16.5683 129.943 16.7199C130.177 16.8715 130.376 17.0714 130.526 17.3063C130.676 17.5412 130.774 17.8056 130.814 18.0816C130.853 18.3576 130.833 18.6389 130.754 18.9064C130.161 21.3978 128.847 23.6591 126.976 25.4075C124.539 27.3917 121.929 29.152 119.176 30.667L119.598 29.1841C120.362 25.5241 121.881 22.0636 124.058 19.0234M106.319 51.6415C105.869 49.4576 106.043 47.1911 106.823 45.1019C107.602 43.0127 108.954 41.1856 110.725 39.8299C112.029 38.7179 113.405 37.705 114.854 36.791C114.48 39.5632 114.277 42.347 114.245 45.1424C113.648 45.3228 113.062 45.5385 112.491 45.7884C112.267 45.9244 112.103 46.14 112.031 46.392C111.959 46.644 111.986 46.9138 112.105 47.1472C112.236 47.3687 112.447 47.5313 112.695 47.6017C112.943 47.6722 113.208 47.6451 113.436 47.5259C113.768 47.3803 114.107 47.2589 114.456 47.1617C114.55 51.3036 114.9 55.5835 114.847 59.7817C112.869 59.2244 111.058 58.1911 109.571 56.7721C108.084 55.3531 106.968 53.5916 106.319 51.6415ZM117.685 60.7196C117.876 56.1357 117.496 51.389 117.453 46.8365C118.162 46.8746 118.859 46.9858 119.546 47.1702C121.631 47.8426 123.441 49.1724 124.706 50.9603C125.387 51.8342 125.888 52.8306 126.191 53.8947C126.428 54.8651 126.312 55.8852 125.862 56.7747C125.104 58.2232 123.899 59.389 122.426 60.0994C120.953 60.8099 119.291 61.0273 117.685 60.7196Z" fill="#020202"/>
</g>
</g>
<defs>
<filter id="filter0_d_0_1" x="6.69409" y="3.64941" width="84.5862" height="95.4343" filterUnits="userSpaceOnUse" color-interpolation-filters="sRGB">
<feFlood flood-opacity="0" result="BackgroundImageFix"/>
<feColorMatrix in="SourceAlpha" type="matrix" values="0 0 0 0 0 0 0 0 0 0 0 0 0 0 0 0 0 0 127 0" result="hardAlpha"/>
<feOffset dx="2" dy="4"/>
<feGaussianBlur stdDeviation="2"/>
<feComposite in2="hardAlpha" operator="out"/>
<feColorMatrix type="matrix" values="0 0 0 0 0 0 0 0 0 0 0 0 0 0 0 0 0 0 0.25 0"/>
<feBlend mode="normal" in2="BackgroundImageFix" result="effect1_dropShadow_0_1"/>
<feBlend mode="normal" in="SourceGraphic" in2="effect1_dropShadow_0_1" result="shape"/>
</filter>
<filter id="filter1_d_0_1" x="85.9996" y="13.1001" width="71.4022" height="78.1758" filterUnits="userSpaceOnUse" color-interpolation-filters="sRGB">
<feFlood flood-opacity="0" result="BackgroundImageFix"/>
<feColorMatrix in="SourceAlpha" type="matrix" values="0 0 0 0 0 0 0 0 0 0 0 0 0 0 0 0 0 0 127 0" result="hardAlpha"/>
<feOffset dx="2" dy="4"/>
<feGaussianBlur stdDeviation="2"/>
<feComposite in2="hardAlpha" operator="out"/>
<feColorMatrix type="matrix" values="0 0 0 0 0 0 0 0 0 0 0 0 0 0 0 0 0 0 0.25 0"/>
<feBlend mode="normal" in2="BackgroundImageFix" result="effect1_dropShadow_0_1"/>
<feBlend mode="normal" in="SourceGraphic" in2="effect1_dropShadow_0_1" result="shape"/>
</filter>
<clipPath id="clip0_0_1">
<rect width="72.555" height="72.555" fill="white" transform="translate(0 27.406) rotate(-22.1929)"/>
</clipPath>
<clipPath id="clip1_0_1">
<rect width="75.5116" height="75.5116" fill="white" transform="translate(90.6571 2.00024) rotate(15.8763)"/>
</clipPath>
</defs>
</svg>
