<svg width="1440" height="336" viewBox="0 0 1440 336" fill="none" xmlns="http://www.w3.org/2000/svg">
<g clip-path="url(#clip0_639_17)">
<rect width="1440" height="336" fill="#E9E4DC"/>
<path d="M313.169 28.6982L196 335.898H235.501L270.798 241.395H398.844L434.305 335.898H475.122L358.392 28.6982H313.169ZM284.233 205.403L334.665 70.3931L385.335 205.403H284.233Z" fill="#212121"/>
<path d="M884.741 183.396C869.094 169.504 846.921 162.558 818.26 162.558C791.353 162.558 769.472 168.699 752.656 180.983C735.839 193.267 726.114 210.376 723.464 232.329H759.455C761.795 220.923 768.01 211.783 778.1 204.91C788.19 198.037 800.986 194.601 816.505 194.601C834.053 194.601 847.744 198.695 857.541 206.885C867.339 215.074 872.238 226.48 872.238 241.121V256.476H806.415C777.15 256.476 754.849 262.471 739.495 274.463C724.14 286.454 716.463 303.727 716.463 326.247C716.463 329.592 716.755 332.791 717.158 335.899H754.849C753.551 332.28 752.893 328.331 752.893 324.054C752.893 299.176 769.564 286.746 802.923 286.746H872.256V297.714C872.256 312.794 868.235 325.498 860.302 335.899H908.229V243.297C908.211 217.267 900.388 197.288 884.741 183.396Z" fill="#212121"/>
<path d="M908.212 102.126V69.2051H871.635C869.881 83.9929 863.83 96.2399 853.356 105.855C840.78 117.407 823.507 123.183 801.572 123.183C786.656 123.183 774.793 119.82 766.019 113.093C757.245 106.367 752.858 97.4464 752.858 86.3326C752.858 79.7339 754.064 74.0491 756.404 69.2051H718.712C717.25 75.1641 716.427 81.5618 716.427 88.5262C716.427 108.706 723.958 124.664 739.02 136.363C754.082 148.061 774.061 153.911 798.921 153.911C831.696 153.911 856.701 141.481 873.957 116.603C874.249 128.009 877.467 136.637 883.608 142.504C889.75 148.354 899.987 151.279 914.336 151.279H934.077V118.358H923.11C913.184 118.358 908.212 112.947 908.212 102.126Z" fill="#960019"/>
<path d="M697.144 112.088H654.133L540.474 232.328V69.1866V28.6982H504.482V69.1866V335.898H540.474V276.655L585.239 229.696L659.836 335.898H703.286L611.141 203.794L697.144 112.088Z" fill="#212121"/>
<path d="M1145.18 286.747V190.196C1145.18 164.167 1137.36 144.187 1121.71 130.295C1106.07 116.403 1083.89 109.457 1055.23 109.457C1028.32 109.457 1006.44 115.599 989.628 127.882C972.811 140.166 963.086 157.275 960.436 179.229H996.428C998.767 167.822 1004.98 158.683 1015.07 151.81C1025.16 144.937 1037.96 141.5 1053.48 141.5C1071.02 141.5 1084.72 145.595 1094.51 153.784C1104.31 161.973 1109.21 173.379 1109.21 188.021V203.375H1043.39C1014.14 203.375 991.821 209.371 976.467 221.362C961.112 233.353 953.435 250.627 953.435 273.147C953.435 293.327 960.966 309.285 976.028 320.983C985.277 328.167 996.409 333.121 1009.35 335.899C1017.49 337.636 1026.33 338.531 1035.93 338.531C1044.59 338.531 1052.71 337.636 1060.28 335.899C1081.37 331.055 1098.28 319.521 1110.96 301.224C1111.26 312.63 1114.47 321.257 1120.62 327.125C1126.76 332.974 1136.99 335.899 1151.34 335.899H1171.08V302.978H1160.12C1150.16 302.997 1145.18 297.568 1145.18 286.747ZM1109.19 244.613C1109.19 263.623 1102.9 278.923 1090.33 290.475C1077.75 302.028 1060.48 307.804 1038.54 307.804C1023.63 307.804 1011.76 304.441 1002.99 297.714C994.216 290.987 989.829 282.067 989.829 270.953C989.829 246.075 1006.5 233.646 1039.86 233.646H1109.19V244.613Z" fill="#212121"/>
<path d="M1234.7 112.088H1198.7V335.898H1234.7V112.088Z" fill="#212121"/>
<path d="M1236.05 33.6348C1230.95 28.5349 1224.5 25.9941 1216.69 25.9941C1208.89 25.9941 1202.43 28.5349 1197.33 33.6348C1192.23 38.7347 1189.69 45.169 1189.69 52.9925C1189.69 59.2805 1191.43 64.6546 1194.74 69.1878C1195.54 70.2845 1196.35 71.363 1197.33 72.35C1202.43 77.4499 1208.89 79.9908 1216.69 79.9908C1224.5 79.9908 1230.95 77.4317 1236.05 72.35C1237.04 71.363 1237.86 70.2663 1238.64 69.1878C1241.95 64.6546 1243.69 59.2988 1243.69 52.9925C1243.69 45.1873 1241.15 38.7347 1236.05 33.6348Z" fill="#212121"/>
</g>
<defs>
<clipPath id="clip0_639_17">
<rect width="1440" height="336" fill="white"/>
</clipPath>
</defs>
</svg>
