<svg width="113" height="152" viewBox="0 0 113 152" fill="none" xmlns="http://www.w3.org/2000/svg">
<path d="M65.8095 37.2945C66.2243 38.0908 66.3225 38.949 66.1042 39.8691C65.8859 40.7893 65.42 41.4808 64.7065 41.9437C63.9929 42.4066 63.2239 42.5162 62.3994 42.2726C61.5749 42.0289 60.9553 41.509 60.5405 40.7127C59.0728 37.8951 56.4583 36.6821 52.6968 37.0735C48.9354 37.465 45.6276 38.5865 42.7736 40.438C42.0601 40.9009 41.291 41.0105 40.4665 40.7669C39.642 40.5232 39.0224 40.0033 38.6076 39.207C38.1928 38.4107 38.0946 37.5525 38.3129 36.6324C38.5312 35.7122 38.9971 35.0207 39.7106 34.5578C42.4549 32.7775 45.4407 31.4961 48.668 30.7136C51.8954 29.9311 55.1443 30.0361 58.4149 31.0284C61.6855 32.0207 64.1504 34.1094 65.8095 37.2945ZM78.982 28.749C76.6848 24.3389 73.6004 20.8492 69.7287 18.2801C65.857 15.7109 61.7679 14.2046 57.4615 13.7613C53.1551 13.3181 48.7906 13.609 44.3679 14.6343C39.9453 15.6596 35.8404 17.4006 32.0533 19.8574C28.2662 22.3143 24.8792 25.4335 21.8923 29.2151C18.9054 32.9967 16.519 37.0852 14.7332 41.4808C12.9473 45.8764 12.0966 50.5872 12.1812 55.6132C12.2658 60.6392 13.4567 65.3573 15.7539 69.7674C18.9764 75.9538 23.714 80.2559 29.9668 82.6735C30.8666 82.9912 32.23 83.4589 34.0571 84.0765C35.8842 84.6941 37.2476 85.1618 38.1474 85.4795C50.0543 90.2933 58.6777 96.9096 64.0175 105.328L82.7883 93.1509C78.8755 83.8065 77.991 72.1698 80.1348 58.2407C80.3327 57.2108 80.6433 55.6572 81.0665 53.5797C81.4897 51.5023 81.8003 49.9486 81.9982 48.9188C83.2099 41.6587 82.2045 34.9354 78.982 28.749ZM89.52 21.9126C94.4654 31.4066 95.9141 41.448 93.8662 52.0369C92.9598 56.6405 92.3032 60.6313 91.8965 64.0093C91.4898 67.3872 91.3804 71.3712 91.5684 75.9614C91.7564 80.5516 92.5383 84.4491 93.914 87.6541C97.387 87.6957 99.9849 89.3703 101.708 92.6778C102.888 94.9442 103.223 97.3493 102.713 99.8932C104.946 100.657 106.653 102.172 107.834 104.438C109.493 107.623 109.55 110.905 108.005 114.284C109.453 115.23 110.559 116.438 111.325 117.908C112.793 120.725 113.061 123.46 112.13 126.113C111.198 128.766 109.47 130.912 106.946 132.549C107.252 135.957 106.722 139.169 105.356 142.185C103.99 145.202 102.017 147.547 99.4378 149.221C96.8582 150.894 94.0559 151.647 91.031 151.479C88.006 151.31 85.2427 150.235 82.7412 148.252C80.2165 149.89 77.6908 150.504 75.1643 150.094C72.6378 149.684 70.6407 148.071 69.173 145.253C68.4073 143.783 68.0143 142.112 67.9939 140.241C64.5988 140.067 62.0717 138.387 60.4126 135.202C59.2321 132.936 58.8972 130.531 59.4079 127.987C57.1743 127.223 55.4673 125.708 54.2868 123.442C52.5639 120.134 52.5456 116.786 54.2318 113.397C52.417 110.477 49.769 107.79 46.2879 105.337C42.8068 102.883 39.6504 101.017 36.8189 99.7401C33.9874 98.463 30.555 97.1249 26.5218 95.7258C17.2632 92.4718 10.1613 86.0978 5.21592 76.6038C2.05727 70.5399 0.335188 64.0972 0.0496664 57.2757C-0.235854 50.4542 0.709652 44.0224 2.88618 37.9802C5.06272 31.9381 8.14353 26.2927 12.1286 21.044C16.1137 15.7954 20.7133 11.4797 25.9274 8.09713C31.1416 4.71454 36.7781 2.38959 42.837 1.12229C48.896 -0.145003 54.8164 -0.339019 60.5983 0.540239C66.3801 1.4195 71.8562 3.6854 77.0265 7.33793C82.1969 10.9905 86.3614 15.8487 89.52 21.9126Z" fill="#757575"/>
</svg>
