<svg width="115" height="115" viewBox="0 0 115 115" fill="none" xmlns="http://www.w3.org/2000/svg">
<g clip-path="url(#clip0_22_100)">
<path d="M75.7083 111.267C62.4354 111.267 49.7375 110.549 36.6083 109.83C32.9667 109.83 9.10417 110.213 6.85208 108.201C6.42083 105.038 6.18125 92.9632 5.22292 36.6084V28.75C4.64792 21.5769 4.50417 14.375 4.79167 7.18754C4.79167 5.07921 2.15625 5.89379 2.0125 6.27712C1.4375 8.38546 0.71875 87.6875 0.71875 88.1667C0.71875 96.4132 0.71875 109.638 2.44375 111.411C8.09792 117.592 17.9208 113.855 26.7375 114.094C42.4062 114.478 60.2792 114.765 75.7083 114.526C76.1404 114.526 76.5548 114.354 76.8603 114.048C77.1659 113.743 77.3375 113.329 77.3375 112.896C77.3375 112.464 77.1659 112.05 76.8603 111.744C76.5548 111.439 76.1404 111.267 75.7083 111.267Z" fill="#757575"/>
<path d="M104.415 27.5521H96.9402C99.2881 17.9688 96.5569 13.1771 96.1736 13.1771C93.8256 10.0626 91.9569 19.7417 93.2986 27.5521C87.7402 27.5521 84.6736 27.2167 78.9236 27.0251C79.211 23.982 78.7844 20.9139 77.6777 18.0646C77.6777 18.0646 75.4736 16.9146 74.8506 18.8313C73.585 21.335 73.2783 24.2151 73.9881 26.9292H61.2902C61.6809 23.9267 61.5512 20.8794 60.9069 17.9209C60.8523 17.7371 60.7615 17.5661 60.6398 17.4179C60.5182 17.2697 60.3681 17.1474 60.1984 17.0581C60.0287 16.9688 59.8429 16.9143 59.6519 16.8979C59.4608 16.8815 59.2685 16.9035 59.0861 16.9626C57.6704 18.1588 56.691 19.7904 56.3009 21.6023C55.9108 23.4142 56.1319 25.3043 56.9298 26.9771H43.8917V26.1146C44.6104 22.3771 45.0417 12.6021 42.9333 11.9792C42.1667 11.5959 41.5438 11.9792 40.8729 12.9376C38.5729 16.148 39.5313 25.3959 39.5313 25.8751C39.5313 27.648 40.7771 26.3542 29.5167 26.6896V11.5001C28.4146 7.37922 26.5938 9.10422 26.2584 11.5001C26.2584 19.1667 25.9709 15.4771 25.5875 26.7376L9.58335 28.3667C5.22293 29.7084 5.31877 30.7626 9.58335 31.5771C12.1229 31.5771 16.7229 31.5771 25.2521 31.1459C24.9167 44.1792 25.0125 37.9501 24.9646 45.1855C24.5813 45.1855 12.3146 41.6396 11.1646 45.5688C9.87085 47.9167 13.1292 47.2938 15.3813 48.3959C18.4692 49.5623 21.8766 49.5623 24.9646 48.3959V60.0876C13.5125 57.6438 15.9563 63.0584 15.3813 63.4417C27.5042 66.5084 24.5813 59.6084 25.3959 76.3313C24.0063 75.6944 22.4698 75.4471 20.9506 75.6159C19.4314 75.7847 17.9867 76.3633 16.7709 77.2896C13.6084 80.2125 25.2042 80.6917 25.5875 80.7396C25.875 85.723 26.1146 90.7079 26.3063 95.6944C24.9646 96.3653 10.4459 95.3111 11.6438 98.9048C11.6438 99.2882 11.6438 99.8632 12.4584 100.055C17.0314 101.513 21.9636 101.378 26.45 99.6715V105.422C27.4083 108.392 28.5104 108.728 29.9479 105.422C30.4271 82.3736 29.9479 52.7132 29.325 31.0501C37.8063 31.3376 41.6396 32.5355 55.5354 32.3917C62.7229 32.3917 69.9104 31.8646 77.0979 31.7688C82.8 31.7688 93.5861 31.7688 104.08 30.9542C107.53 30.4271 109.399 27.6001 104.415 27.5521Z" fill="#757575"/>
<path d="M113.04 75.7083V29.5646C113.04 22.7604 115.196 11.1646 111.746 4.025C110.213 0.814587 105.421 1.58125 103.553 1.10209C90.4714 -2.20416 52.7131 2.97084 33.5417 3.35417C29.0375 3.45 22.1854 2.0125 16.2916 1.86875C4.0729 1.62917 7.66665 4.3125 9.58331 5.60625C11.5 6.9 101.492 6.325 102.451 6.37292C107.242 6.37292 108.249 10.3021 108.824 14.95C108.967 17.0392 108.967 19.1315 108.824 21.2271V36.6563L109.734 74.4625L83.5235 76.6667C77.5819 77.6729 80.2173 82.1771 80.2652 84.2375C81.0798 106.476 80.8881 93.011 79.3069 108.536C79.2346 108.839 79.2597 109.158 79.3785 109.446C79.4974 109.735 79.704 109.978 79.9691 110.143C80.2342 110.307 80.5443 110.384 80.8555 110.362C81.1666 110.34 81.4631 110.221 81.7027 110.021C84.2902 108.153 85.2006 82.709 85.2485 81.2715C112.561 79.211 108.44 79.5944 108.919 79.3548C109.399 79.1152 107.434 86.159 106.811 87.6444C103.601 94.9756 95.1673 104.894 87.1652 105.086C86.7331 105.086 86.3187 105.258 86.0132 105.563C85.7077 105.869 85.536 106.283 85.536 106.715C85.536 107.147 85.7077 107.562 86.0132 107.867C86.3187 108.173 86.7331 108.344 87.1652 108.344C102.786 108.632 118.934 81.9375 113.04 75.7083Z" fill="#757575"/>
</g>
<defs>
<clipPath id="clip0_22_100">
<rect width="115" height="115" fill="white"/>
</clipPath>
</defs>
</svg>
