<svg width="110" height="110" viewBox="0 0 110 110" fill="none" xmlns="http://www.w3.org/2000/svg">
<path fill-rule="evenodd" clip-rule="evenodd" d="M108.68 1.12306e-07C99.5352 -0.000522561 90.4822 1.82336 82.0511 5.36487C73.6199 8.90638 65.98 14.0943 59.5787 20.625H46.4062C41.392 20.625 36.5831 22.6169 33.0375 26.1625C29.4919 29.7081 27.5 34.517 27.5 39.5312V55H41.25L55 68.75V82.5H70.4687C75.483 82.5 80.2918 80.5081 83.8374 76.9625C87.3831 73.4169 89.375 68.608 89.375 63.5938V50.4212C95.9056 44.0199 101.094 36.38 104.635 27.9489C108.177 19.5177 110 10.4648 110 1.32V1.12306e-07H108.68ZM44.275 44.6875C46.078 39.857 48.4188 35.2447 51.2531 30.9375H46.4062C41.6625 30.9375 37.8125 34.7875 37.8125 39.5312V44.6875H44.275ZM65.3125 72.1875V65.725C70.143 63.9219 74.7553 61.5812 79.0625 58.7469V63.5938C79.0625 68.3375 75.2125 72.1875 70.4687 72.1875H65.3125ZM98.8625 11.1375C88.1426 12.9656 78.1455 17.7487 69.9958 24.9487C61.846 32.1486 55.867 41.4798 52.7312 51.8925L58.1075 57.2756C68.5202 54.1399 77.8513 48.1608 85.0513 40.0111C92.2512 31.8613 97.0343 21.8642 98.8625 11.1444V11.1375ZM19.1125 70.675C19.6191 70.2029 20.0254 69.6337 20.3072 69.0012C20.589 68.3687 20.7406 67.6859 20.7528 66.9936C20.765 66.3013 20.6376 65.6136 20.3783 64.9715C20.119 64.3295 19.733 63.7462 19.2433 63.2566C18.7537 62.767 18.1705 62.381 17.5284 62.1217C16.8864 61.8623 16.1987 61.735 15.5064 61.7472C14.814 61.7594 14.1313 61.9109 13.4988 62.1928C12.8663 62.4746 12.297 62.8809 11.825 63.3875L1.51246 73.7C1.00586 74.1721 0.599533 74.7413 0.317713 75.3738C0.0358933 76.0063 -0.115644 76.6891 -0.12786 77.3814C-0.140075 78.0737 -0.012718 78.7614 0.246614 79.4035C0.505946 80.0455 0.89194 80.6288 1.38157 81.1184C1.8712 81.608 2.45443 81.994 3.09647 82.2533C3.73852 82.5127 4.42622 82.64 5.11855 82.6278C5.81088 82.6156 6.49366 82.4641 7.12616 82.1822C7.75865 81.9004 8.32791 81.4941 8.79996 80.9875L19.1125 70.675ZM39.7375 77.55C40.2441 77.0779 40.6504 76.5087 40.9322 75.8762C41.214 75.2437 41.3656 74.5609 41.3778 73.8686C41.39 73.1763 41.2626 72.4886 41.0033 71.8465C40.744 71.2045 40.358 70.6212 39.8683 70.1316C39.3787 69.642 38.7955 69.256 38.1534 68.9967C37.5114 68.7373 36.8237 68.61 36.1314 68.6222C35.439 68.6344 34.7563 68.7859 34.1238 69.0678C33.4913 69.3496 32.922 69.7559 32.45 70.2625L1.51246 101.2C1.00586 101.672 0.599533 102.241 0.317713 102.874C0.0358933 103.506 -0.115644 104.189 -0.12786 104.881C-0.140075 105.574 -0.012718 106.261 0.246614 106.903C0.505946 107.546 0.89194 108.129 1.38157 108.618C1.8712 109.108 2.45443 109.494 3.09647 109.753C3.73852 110.013 4.42622 110.14 5.11855 110.128C5.81088 110.116 6.49366 109.964 7.12616 109.682C7.75865 109.4 8.32791 108.994 8.79996 108.487L39.7375 77.55ZM46.6125 90.8875C47.5781 91.8543 48.1204 93.1648 48.1204 94.5312C48.1204 95.8977 47.5781 97.2082 46.6125 98.175L36.3 108.487C35.3225 109.398 34.0297 109.894 32.6939 109.871C31.358 109.847 30.0835 109.306 29.1388 108.361C28.1941 107.416 27.6529 106.142 27.6294 104.806C27.6058 103.47 28.1017 102.177 29.0125 101.2L39.325 90.8875C40.2918 89.9219 41.6023 89.3795 42.9687 89.3795C44.3351 89.3795 45.6457 89.9219 46.6125 90.8875Z" fill="#757575"/>
</svg>
