<svg width="163" height="115" viewBox="0 0 163 115" fill="none" xmlns="http://www.w3.org/2000/svg">
<path fill-rule="evenodd" clip-rule="evenodd" d="M162.8 25.8115C163.221 22.5735 162.941 19.2665 161.983 16.1646C161.025 13.0627 159.417 10.2551 157.29 7.97457C153.396 3.36338 148.101 0.520858 142.439 0.00203163C140.056 -0.0359509 137.692 0.465435 135.494 1.47564C132.297 2.84989 129.357 4.86475 126.82 7.42027C125.47 8.64651 124.277 10.0714 123.275 11.656C122.963 12.0964 122.814 12.6532 122.859 13.213C122.904 13.7728 123.139 14.2937 123.517 14.6697C123.685 14.8516 123.885 14.9944 124.103 15.0897C124.321 15.185 124.555 15.231 124.789 15.2248C125.023 15.2186 125.253 15.1604 125.467 15.0536C125.68 14.9469 125.871 14.7937 126.03 14.6032L129.376 11.0494C131.307 9.38507 133.439 8.02934 135.711 7.02148C137.735 6.21618 139.909 5.97314 142.043 6.31348C146.023 7.18576 149.616 9.55852 152.212 13.0293C153.71 14.4414 154.899 16.2129 155.69 18.2088C156.481 20.2048 156.852 22.3725 156.775 24.5467C156.401 28 155.309 31.2993 153.575 34.1777C151.797 37.0806 149.672 39.7008 147.259 41.967L146.72 41.2137C142.254 35.2553 131.606 21.1721 128.449 16.6188C128.111 16.1514 127.622 15.8495 127.088 15.7781C126.553 15.7068 126.016 15.8718 125.592 16.2375C125.175 16.6102 124.907 17.1507 124.846 17.7426C124.785 18.3345 124.935 18.9305 125.266 19.4025L143.612 45.3061C142.668 46.2667 141.172 47.6687 139.299 49.385C127.169 60.6753 98.9409 85.5924 89.1838 93.7029C87.8785 90.1124 86.3136 86.6438 84.5047 83.3312C83.5804 81.7571 82.5483 80.1312 81.5242 78.6506C80.4326 77.1493 79.2503 75.7321 77.9855 74.4088C75.6625 71.9567 73.1378 69.7518 70.4449 67.8233C70.8913 67.1611 71.3824 66.5487 71.9181 65.9859C81.7668 55.6507 105.487 33.808 116.397 23.6991C118.846 21.4817 120.619 19.8588 121.44 19.0514C123.39 17.3013 120.336 15.1295 120.259 15.1633C118.058 16.7054 115.978 18.4497 114.041 20.378C102.495 30.3162 77.9256 51.0519 67.7712 61.0213C65.6141 62.8133 63.7911 65.0624 62.4158 67.6393C61.8276 70.3253 57.3702 89.1831 56.1949 97.0361C55.7442 99.0672 55.8785 101.202 56.5798 103.157C57.3206 104.247 58.3277 105.077 59.4881 105.542C62.1039 106.392 64.8245 106.766 67.5438 106.65C74.726 106.449 81.8395 105.101 88.6655 102.649C90.6547 101.624 120.177 74.8542 136.873 58.8289C141.808 54.1295 145.615 50.3728 147.242 48.4677C150.934 44.9074 154.396 41.064 157.604 36.9654C160.013 33.6925 161.78 29.8951 162.792 25.8149M63.545 99.1487L62.7375 98.7613C62.7375 98.7613 66.6612 77.3154 67.8447 71.5935C69.8464 74.1791 71.9873 77.3969 74.0434 80.5035C75.2987 82.3777 76.7075 84.1843 78.2549 86.128C79.8023 88.0717 81.1495 89.7073 82.5353 91.5736L85.6544 96.3914C81.5299 97.7272 77.2849 98.5812 73 98.9425C69.8662 99.3821 66.6951 99.4551 63.545 99.1487ZM54.1988 110.001C51.2022 107.637 48.3323 105.08 45.6039 102.344C43.8855 100.63 42.3306 98.7232 40.9643 96.6553C39.8165 94.9613 39.3063 92.8405 39.5422 90.7434C40.4105 88.0377 41.7759 85.5644 43.5519 83.4799C46.0596 80.3448 47.5836 76.3883 47.8966 72.2004C47.7895 69.6728 46.9597 67.2448 45.5278 65.2691C43.7996 62.7741 41.6144 60.7139 39.1177 59.2259C34.51 56.9105 29.7029 55.1254 24.7719 53.8986C17.4009 52.1717 9.94209 50.9539 2.44329 50.254C2.02 50.0804 1.55458 50.0869 1.13704 50.2723C0.719494 50.4576 0.379489 50.8087 0.182774 51.2576C-0.0139443 51.7066 -0.0533959 52.2214 0.0720451 52.7026C0.197486 53.1838 0.478913 53.5972 0.861898 53.8628C1.06651 53.9939 1.28796 54.0813 1.52627 54.125C7.39201 55.4548 13.2577 56.7847 19.4471 58.7645C25.1282 60.4702 30.6122 62.9112 35.7861 66.0374C37.0591 66.8389 38.1879 67.8821 39.1257 69.1235C39.8879 70.1252 40.7039 71.1527 40.6823 72.2024C40.4462 74.8492 39.4838 77.3477 37.9252 79.3602C35.679 82.3939 34.1213 85.9838 33.3819 89.8306C33.1952 91.6994 33.3587 93.5929 33.8619 95.3922C34.3652 97.1915 35.1975 98.8578 36.3065 100.286C38.0834 102.628 40.0606 104.73 42.2381 106.595C45.2974 109.25 48.4799 111.695 51.7855 113.931C52.2365 114.251 52.781 114.363 53.3034 114.244C53.8257 114.125 54.2845 113.784 54.5822 113.294C54.7603 113.054 54.892 112.777 54.9692 112.478C55.0464 112.179 55.0675 111.865 55.031 111.556C54.9946 111.247 54.9014 110.949 54.7574 110.681C54.6133 110.413 54.4214 110.181 54.1934 109.998" fill="#757575"/>
</svg>
